<?xml version="1.0" encoding="UTF-8"?>
<svg width="71px" height="63px" viewBox="0 0 71 63" version="1.1" xmlns="http://www.w3.org/2000/svg" xmlns:xlink="http://www.w3.org/1999/xlink">
    <!-- Generator: Sketch 56.3 (81716) - https://sketch.com -->
    <title>contac ticon</title>
    <desc>Created with Sketch.</desc>
    <defs>
        <polygon id="path-1" points="0.029832401 0.0332416406 39.9986295 0.0332416406 39.9986295 37 0.029832401 37"></polygon>
    </defs>
    <g id="Welcome" stroke="none" stroke-width="1" fill="none" fill-rule="evenodd">
        <g id="Desktop-HD" transform="translate(-1134.000000, -2274.000000)">
            <g id="contac-ticon" transform="translate(1134.000000, 2274.000000)">
                <path d="M37.2071719,38.069005 L37.2071719,35.6648233 C37.6238585,35.6216082 38.0021823,35.5512293 38.3809951,35.5483483 C40.2162739,35.5343548 42.0519288,35.5592362 43.8869443,35.5316983 C47.023809,35.4845171 49.3166193,33.2720534 49.4535215,30.1487423 C49.5182868,28.6705986 49.5274637,27.1891998 49.529946,25.7092601 C49.5385588,20.5277876 49.53728,15.346315 49.5290057,10.1648425 C49.5277646,9.37645677 49.4957205,8.58608802 49.4332871,7.80013432 C49.1970556,4.82390434 46.9955636,2.71190165 43.9861231,2.55905861 C43.5901599,2.53892898 43.1926547,2.54603795 42.7959017,2.54596312 C31.5853073,2.54349369 20.374788,2.53844257 9.16423115,2.54794615 C8.42571169,2.54858222 7.66688257,2.57398746 6.95250905,2.73835453 C4.36742767,3.33345086 2.59811769,5.39034026 2.58017749,8.02541411 C2.52989227,15.4270955 2.51800736,22.8297122 2.59142303,30.2310194 C2.6139517,32.5044333 3.6650895,34.3526181 5.9065615,35.2189032 C6.66072691,35.5104088 7.55213299,35.5133646 8.38347512,35.5321847 C10.5719163,35.5818727 10.8186787,35.8077137 10.8197318,38.0389228 C10.8205968,39.8153817 10.814504,41.591878 10.8227783,43.3682995 C10.8248092,43.8034064 10.8710325,44.2383262 10.9151496,44.9801668 C11.5506163,44.5116851 12.0120594,44.1933526 12.4497326,43.8453868 C15.5869734,41.3513326 18.7267718,38.8602343 21.8478026,36.3462002 C22.5332913,35.7940196 23.2350277,35.485041 24.1474956,35.5264227 C25.5788754,35.5913763 27.0154831,35.5437461 28.5642076,35.5437461 L28.5642076,38.0679948 C27.3096723,38.0679948 26.082367,38.1038016 24.8584466,38.0551986 C24.0616685,38.0235824 23.4440668,38.2792437 22.8300004,38.7729435 C18.9352844,41.9046356 15.0222144,45.0139158 11.1007197,48.1124576 C10.5104608,48.5789188 9.97511318,49.3347903 9.02973606,48.8363387 C8.13750256,48.365874 8.30919441,47.5197933 8.30738911,46.7442411 C8.3019732,44.4249182 8.30528292,42.1055952 8.3052077,39.7862349 C8.30517009,39.2997188 8.30517009,38.8131654 8.30517009,38.3033768 C8.02726623,38.2065824 7.85260314,38.1041009 7.67034274,38.0883863 C3.12891445,37.6970932 0.111425344,34.6869646 0.0623812728,30.2085326 C-0.0186317089,22.8073002 -0.0237091242,15.4038603 0.0646755123,8.00281504 C0.118082399,3.53040699 3.70672431,0.0505994145 8.20061295,0.0340242698 C20.0558887,-0.00963982461 31.9114654,-0.0116976868 43.7667412,0.0302827021 C48.5096112,0.0470823409 51.963758,3.64033424 51.961539,8.36245452 C51.9582293,15.5178285 51.8549133,22.6752603 51.9986605,29.8277158 C52.0765895,33.7044663 48.7476479,38.1994734 43.7080312,38.0775732 C41.5874393,38.0262389 39.4645531,38.069005 37.2071719,38.069005" id="Fill-1" fill="#FEFEFE"></path>
                <g id="Group-5" transform="translate(31.000000, 26.000000)">
                    <mask id="mask-2" fill="white">
                        <use xlink:href="#path-1"></use>
                    </mask>
                    <g id="Clip-4"></g>
                    <path d="M33.0722876,28.8954164 C33.0722876,29.6161795 33.0729688,30.208822 33.0721741,30.8014267 C33.0701684,32.3459782 33.1240946,33.8933266 33.0493548,35.4344011 C32.9745771,36.9752489 31.9616727,37.450013 30.7254191,36.5382408 C27.8370937,34.4079629 24.9458543,32.2789701 22.1224674,30.0646769 C20.8870464,29.0957607 19.6405374,28.6157811 18.0328553,28.665253 C14.4440946,28.7757617 10.8428458,28.5633235 7.259421,28.7398199 C3.94941154,28.9028618 0.179156102,26.4190242 0.0957502365,21.9010559 C0.00288363292,16.8703787 0.0103386944,11.8353174 0.104264901,6.80456456 C0.17873983,2.81926016 3.16231599,0.0491733401 7.15909934,0.038288764 C9.25450142,0.0325819203 11.3499792,0.0327708887 13.4453434,0.0396871297 C13.9316254,0.0412744637 14.4177559,0.0810711951 14.9916443,0.1073 L14.9916443,2.47484648 C14.4125336,2.50099969 13.9287114,2.53992717 13.4447758,2.54170347 C11.4491277,2.54903544 9.45007379,2.61929387 7.45866414,2.52790878 C4.49185241,2.3917382 2.57049007,4.48055638 2.60488931,7.33805996 C2.65230653,11.2737035 2.61393377,15.2103674 2.61355535,19.1466534 C2.61347966,20.0434593 2.59296878,20.9413235 2.62642195,21.8369956 C2.71671523,24.2548455 4.13196594,25.8246432 6.53359319,26.1701907 C7.07361211,26.2478945 7.62604352,26.2646749 8.17287417,26.2660354 C12.0643406,26.2757106 15.9560719,26.2961948 19.8471977,26.260253 C20.7988344,26.2514471 21.5703765,26.5045135 22.3198562,27.0840416 C24.488333,28.7607198 26.6930634,30.3906851 28.8912091,32.0288138 C29.3154664,32.3449578 29.77435,32.6148424 30.4196859,33.0391897 C30.4709253,32.3215257 30.5271977,31.8502387 30.5336689,31.3781958 C30.5479735,30.3321427 30.5313605,29.2856361 30.5380965,28.2393562 C30.5490331,26.5344083 30.7267436,26.3546994 32.395088,26.2789987 C32.7928553,26.2610089 33.1927796,26.2347045 33.5855516,26.1730252 C35.9155043,25.8071069 37.3812753,24.2785043 37.4086358,21.9243368 C37.4671031,16.8926769 37.4706982,11.859203 37.4045109,6.82773207 C37.3704144,4.2351621 35.6327417,2.61067692 32.9894494,2.5594287 C30.4957881,2.51105281 28.0005374,2.54608754 25.5060057,2.5445002 C24.9643217,2.54416006 24.4226755,2.54446241 23.7611807,2.54446241 L23.7611807,0.133755567 C24.1464976,0.103785189 24.5754096,0.0428995914 25.004473,0.0415012257 C27.6985506,0.0326953013 30.3927039,0.029558427 33.0868193,0.0389690501 C36.8290331,0.0518944842 39.8414078,2.79968304 39.9188344,6.53536027 C40.0272167,11.7647566 40.0247569,16.9998975 39.9141041,22.2292183 C39.8417105,25.6506034 37.4244541,28.122536 33.970755,28.6788587 C33.7312848,28.7174083 33.4975289,28.791635 33.0722876,28.8954164" id="Fill-3" fill="#FEFEFE" mask="url(#mask-2)"></path>
                </g>
                <path d="M17.9714605,20.9994765 C16.9137706,20.9763558 16.0153434,20.0892963 16.0001627,19.0530608 C15.984982,18.0169044 17.0346011,16.971761 18.0614684,17.0005828 C19.1748848,17.0318591 20.0568247,18.007086 19.9971396,19.1411095 C19.9402601,20.2228343 19.0675824,21.0234286 17.9714605,20.9994765" id="Fill-6" fill="#FEFEFE"></path>
                <path d="M35.999831,19.0340185 C35.9850756,20.1526467 35.1346144,20.990135 34.003522,20.9999018 C32.8297498,21.0100639 32.0175655,20.2308993 32.0002715,19.0780677 C31.9820652,17.8672288 32.8817112,16.9516065 34.0400536,17.0019823 C35.1363993,17.0495903 36.0139915,17.9595581 35.999831,19.0340185" id="Fill-8" fill="#FEFEFE"></path>
                <path d="M27.9997098,18.9996303 C28.0173156,20.1595177 27.232302,20.9798022 26.0855227,20.9996903 C24.9361046,21.019618 23.9699916,20.0750924 24.0007131,18.9612804 C24.0294653,17.9176313 24.9948694,16.9876058 26.0365259,17.000125 C27.1215469,17.0131988 27.9828523,17.8904535 27.9997098,18.9996303" id="Fill-10" fill="#FEFEFE"></path>
            </g>
        </g>
    </g>
</svg>