<?xml version="1.0" standalone="no"?>
<!DOCTYPE svg PUBLIC "-//W3C//DTD SVG 1.1//EN" "http://www.w3.org/Graphics/SVG/1.1/DTD/svg11.dtd" >
<svg xmlns="http://www.w3.org/2000/svg" xmlns:xlink="http://www.w3.org/1999/xlink" version="1.1">
<metadata>
Created by FontForge 20161003 at Sun Oct 22 10:14:06 2017
 By www-data
HTF Knockout Copr. 1994-7 The Hoefler Type Foundry, Inc. http://www.typography.com
</metadata>
<defs>
<font id="KnockoutHTF91UltmtMiddlewt" horiz-adv-x="484" >
  <font-face 
    font-family="KnockoutHTF91UltmtMiddlewt"
    font-weight="500"
    font-stretch="normal"
    units-per-em="1000"
    panose-1="0 0 0 0 0 0 0 0 0 0"
    ascent="800"
    descent="-200"
    x-height="501"
    cap-height="666"
    bbox="-226 -263 1005 879"
    underline-thickness="146"
    underline-position="-299"
    unicode-range="U+0020-FB02"
  />
<missing-glyph horiz-adv-x="500" 
 />
    <glyph glyph-name=".notdef" horiz-adv-x="500" 
 />
    <glyph glyph-name=".null" horiz-adv-x="0" 
 />
    <glyph glyph-name="nonmarkingreturn" horiz-adv-x="333" 
 />
    <glyph glyph-name="space" unicode=" " horiz-adv-x="184" 
 />
    <glyph glyph-name="exclam" unicode="!" horiz-adv-x="244" 
d="M216 417l-58 -202h-73l-58 202v249h189v-249zM199 0h-157v163h157v-163z" />
    <glyph glyph-name="quotedbl" unicode="&#x22;" horiz-adv-x="410" 
d="M415 666l-102 -233h-122l65 233h159zM216 666l-81 -233h-121l46 233h156z" />
    <glyph glyph-name="numbersign" unicode="#" horiz-adv-x="675" 
d="M665 414h-143l-31 -162h143v-92h-160l-31 -160h-103l31 160h-123l-31 -160h-103l31 160h-126v92h144l31 162h-145v93h162l31 159h102l-31 -159h123l31 159h103l-31 -159h126v-93zM419 414h-123l-31 -162h123z" />
    <glyph glyph-name="dollar" unicode="$" horiz-adv-x="566" 
d="M543 202q0 -77 -45.5 -135.5t-135.5 -77.5v-84h-146v81q-93 15 -142 69.5t-49 133.5v30h192v-13q0 -27 17.5 -45t45.5 -18q50 0 50 40q0 17 -22 32.5t-55 28t-72 32.5t-72 42.5t-55 61.5t-22 87q0 78 45.5 134t137.5 76v84h146v-83q86 -17 132 -71.5t46 -130.5v-30h-192
v17q0 25 -15 43t-41 18q-47 0 -47 -41q0 -16 22 -31t55.5 -27t72 -31.5t72 -42t55.5 -61.5t22 -88z" />
    <glyph glyph-name="percent" unicode="%" horiz-adv-x="697" 
d="M309 461q0 -61 -40 -99.5t-106 -38.5t-106.5 38.5t-40.5 99.5v84q0 61 40.5 100.5t106.5 39.5t106 -39t40 -101v-84zM613 648l-471 -677l-59 47l471 677zM682 120q0 -61 -40 -100t-106 -39t-106 39t-40 100v84q0 61 40 100t106 39t106 -39t40 -100v-84zM187 443v121
q0 28 -24 28q-26 0 -26 -28v-120q0 -30 26 -30q11 0 17.5 8t6.5 21zM561 102v121q0 29 -25 29q-11 0 -18 -8t-7 -21v-121q0 -28 25 -28t25 28z" />
    <glyph glyph-name="ampersand" unicode="&#x26;" horiz-adv-x="698" 
d="M690 114q0 -61 -31 -97t-85 -36q-69 0 -145 60q-93 -60 -187 -60q-105 0 -167 53t-62 131q0 63 38 115.5t107 83.5q-41 60 -41 125q0 88 65 142t158 54q81 0 134.5 -44.5t53.5 -109.5q0 -116 -144 -193q36 -54 63 -86q27 50 39 108l137 -24q-11 -109 -72 -195
q20 -16 32 -16q18 0 18 19v19h89v-49zM363 501q0 34 -28 34q-33 0 -33 -47q0 -31 16 -53q45 24 45 66zM310 146q-44 46 -77 104q-28 -21 -28 -57q0 -25 17.5 -42t44.5 -17q26 0 43 12z" />
    <glyph glyph-name="quotesingle" unicode="'" horiz-adv-x="229" 
d="M238 666l-105 -233h-111l40 233h176z" />
    <glyph glyph-name="parenleft" unicode="(" horiz-adv-x="368" 
d="M391 -141l-51 -54q-132 89 -201.5 222t-69.5 271q0 139 69.5 272t201.5 221l51 -54q-149 -178 -149 -439q0 -260 149 -439z" />
    <glyph glyph-name="parenright" unicode=")" horiz-adv-x="368" 
d="M301 298q0 -138 -69.5 -271t-201.5 -222l-51 54q149 179 149 439q0 261 -149 439l51 54q132 -88 201.5 -221t69.5 -272z" />
    <glyph glyph-name="asterisk" unicode="*" horiz-adv-x="340" 
d="M323 456l-29 -52q-7 -11 -22 -3q-36 22 -73 58q14 -55 14 -93q0 -16 -14 -16h-58q-14 0 -14 16q0 35 14 92q-42 -40 -74 -58q-14 -9 -21 4l-29 51q-7 12 7 19q30 18 86 35q-49 14 -87 35q-14 7 -7 20l30 51q6 13 20 4q34 -19 74 -58q-14 53 -14 93q0 16 14 16h59
q13 0 13 -16q0 -40 -13 -92q43 41 73 58q14 9 21 -4l30 -51q7 -12 -7 -21q-39 -21 -87 -34q55 -15 86 -34q15 -8 8 -20z" />
    <glyph glyph-name="plus" unicode="+" horiz-adv-x="422" 
d="M396 275h-118v-126h-134v126h-118v125h118v126h134v-126h118v-125z" />
    <glyph glyph-name="comma" unicode="," horiz-adv-x="207" 
d="M185 30q0 -74 -42.5 -112.5t-120.5 -38.5v44q31 0 48 20.5t17 56.5h-65v171h163v-141z" />
    <glyph glyph-name="hyphen" unicode="-" horiz-adv-x="320" 
d="M304 225h-288v135h288v-135z" />
    <glyph glyph-name="period" unicode="." horiz-adv-x="207" 
d="M185 0h-163v171h163v-171z" />
    <glyph glyph-name="slash" unicode="/" horiz-adv-x="303" 
d="M303 730l-212 -811h-90l212 811h90z" />
    <glyph glyph-name="zero" unicode="0" horiz-adv-x="574" 
d="M552 223q0 -109 -70 -175.5t-195 -66.5q-126 0 -196 66.5t-70 175.5v219q0 109 70 175.5t196 66.5t195.5 -66.5t69.5 -175.5v-219zM341 219v227q0 67 -54 67t-54 -67v-227q0 -67 54 -67t54 67z" />
    <glyph glyph-name="one" unicode="1" horiz-adv-x="293" 
d="M255 0h-216v583q43 0 64.5 24t21.5 59h130v-666z" />
    <glyph glyph-name="two" unicode="2" horiz-adv-x="532" 
d="M514 483q0 -48 -20.5 -90t-53.5 -72.5t-66.5 -55.5t-67.5 -51t-49 -47h250v-167h-499v55q0 57 22.5 107.5t56 84t73 66t73 56t56 50.5t22.5 52q0 52 -46 52q-53 0 -53 -71v-31h-185v42q0 103 65 162t176 59q122 0 184 -57.5t62 -143.5z" />
    <glyph glyph-name="three" unicode="3" horiz-adv-x="547" 
d="M531 179q0 -84 -69 -141t-190 -57q-117 0 -186.5 55.5t-69.5 155.5v28h185v-17q0 -61 58 -61q53 0 53 52v33q0 20 -14 31.5t-38 11.5h-48v125h52q24 0 38 11.5t14 31.5v33q0 52 -53 52t-53 -61v-17h-185v28q0 100 67 155.5t179 55.5q123 0 190 -54.5t67 -136.5v-9
q0 -54 -30.5 -94.5t-101.5 -49.5q135 -24 135 -144v-17z" />
    <glyph glyph-name="four" unicode="4" horiz-adv-x="559" 
d="M548 127h-70v-127h-207v127h-261v141l276 398h192v-392h70v-147zM271 274v126l-83 -126h83z" />
    <glyph glyph-name="five" unicode="5" horiz-adv-x="544" 
d="M531 186q0 -89 -68.5 -147t-195.5 -58q-115 0 -183 55.5t-68 155.5v28h185v-17q0 -61 59 -61t59 52v76q0 52 -49 52q-41 0 -59 -40l-181 21l20 363h475q-15 -165 -105 -165h-193l-7 -118q53 59 138 59q83 0 128 -46.5t45 -121.5v-88z" />
    <glyph glyph-name="six" unicode="6" horiz-adv-x="564" 
d="M550 198q0 -93 -70.5 -155t-191.5 -62q-128 0 -197 66t-69 174v210q0 112 73.5 182.5t202.5 70.5q113 0 178.5 -53t65.5 -153v-22h-193v5q0 62 -55 62q-59 0 -59 -72v-105q63 70 153 70q77 0 119.5 -47.5t42.5 -125.5v-45zM344 196v54q0 52 -52 52q-38 0 -57 -43v-64
q0 -22 14 -37.5t39 -15.5q28 0 42 15.5t14 38.5z" />
    <glyph glyph-name="seven" unicode="7" horiz-adv-x="495" 
d="M503 563q-95 -141 -140 -270t-54 -293h-236q11 136 75.5 275.5t150.5 216.5h-290v174h494v-103z" />
    <glyph glyph-name="eight" unicode="8" horiz-adv-x="569" 
d="M547 175q0 -82 -68.5 -138t-194.5 -56q-125 0 -193.5 56t-68.5 138v15q0 101 105 146q-48 15 -74 53t-26 87v12q0 82 66.5 139t190.5 57q125 0 192 -57t67 -139v-12q0 -49 -26.5 -87t-74.5 -53q105 -45 105 -146v-15zM334 433v45q0 48 -50 48q-49 0 -49 -48v-45
q0 -48 49 -48q50 0 50 48zM334 187v46q0 47 -50 47q-49 0 -49 -47v-46q0 -48 49 -48q50 0 50 48z" />
    <glyph glyph-name="nine" unicode="9" horiz-adv-x="570" 
d="M547 236q0 -120 -72 -187.5t-204 -67.5q-115 0 -183 56t-68 156v22h185v-12q0 -61 64 -61q66 0 66 70v106q-28 -33 -58.5 -49t-78.5 -16q-77 0 -127.5 45t-50.5 116v51q0 93 70.5 156t191.5 63q127 0 196 -66.5t69 -174.5v-207zM335 408v56q0 26 -14 42t-40 16
q-28 0 -41.5 -15t-13.5 -39v-51q0 -23 12.5 -37.5t38.5 -14.5q43 0 58 43z" />
    <glyph glyph-name="colon" unicode=":" horiz-adv-x="227" 
d="M195 295h-163v171h163v-171zM195 0h-163v171h163v-171z" />
    <glyph glyph-name="semicolon" unicode=";" horiz-adv-x="227" 
d="M195 295h-163v171h163v-171zM195 30q0 -74 -42.5 -112.5t-120.5 -38.5v44q31 0 48 20.5t17 56.5h-65v171h163v-141z" />
    <glyph glyph-name="less" unicode="&#x3c;" horiz-adv-x="493" 
d="M427 60l-388 256v35l388 255v-160l-173 -113l173 -113v-160z" />
    <glyph glyph-name="equal" unicode="=" horiz-adv-x="412" 
d="M384 373h-356v124h356v-124zM384 189h-356v124h356v-124z" />
    <glyph glyph-name="greater" unicode="&#x3e;" horiz-adv-x="493" 
d="M454 316l-388 -256v160l173 113l-173 113v160l388 -255v-35z" />
    <glyph glyph-name="question" unicode="?" horiz-adv-x="490" 
d="M477 494q0 -44 -20 -78.5t-47.5 -57t-55.5 -42.5t-46.5 -45.5t-17.5 -56.5h-150q-1 47 12.5 83.5t33 58t39.5 39.5t34 37.5t14 41.5q0 47 -41 47q-46 0 -46 -69v-31h-178v48q0 101 63 158t171 57q114 0 174.5 -53t60.5 -137zM293 0h-158v163h158v-163z" />
    <glyph glyph-name="at" unicode="@" horiz-adv-x="723" 
d="M709 387q0 -93 -54 -162.5t-145 -69.5q-48 0 -77.5 23.5t-29.5 63.5q-44 -77 -117 -77q-52 0 -84 32.5t-32 85.5q0 75 57 146t139 71q31 0 51 -15t24 -40l17 46h111l-72 -207q-21 -66 34 -66q41 0 74 46.5t33 119.5q0 105 -75 172t-189 67q-124 0 -204.5 -85t-80.5 -206
t80.5 -205.5t204.5 -84.5q121 0 199 70l40 -47q-97 -84 -239 -84q-152 0 -253.5 100.5t-101.5 247.5q0 148 102 251.5t253 103.5q83 0 149.5 -28t105.5 -73t59.5 -95.5t20.5 -100.5zM423 400q-2 38 -35 38q-40 0 -72.5 -56t-32.5 -106q0 -19 9.5 -30.5t25.5 -11.5
q25 0 44.5 20.5t30.5 51.5z" />
    <glyph glyph-name="A" unicode="A" horiz-adv-x="585" 
d="M597 0h-238l-20 99h-118l-23 -99h-212l175 666h262zM315 229l-28 181l-36 -181h64z" />
    <glyph glyph-name="B" unicode="B" horiz-adv-x="591" 
d="M573 166q0 -76 -48.5 -121t-149.5 -45h-345v666h342q102 0 151 -45.5t49 -121.5v-23q0 -51 -29 -89t-92 -50q122 -26 122 -138v-33zM345 423v52q0 35 -41 35h-36v-122h36q41 0 41 35zM345 190v51q0 36 -41 36h-36v-123h36q41 0 41 36z" />
    <glyph glyph-name="C" unicode="C" horiz-adv-x="603" 
d="M583 205q0 -92 -73.5 -158t-198.5 -66q-141 0 -216 70t-75 183v198q0 113 75 182.5t216 69.5q126 0 199 -65.5t73 -157.5v-67h-212v62q0 24 -14 38.5t-41 14.5q-53 0 -53 -67v-218q0 -67 53 -67q27 0 41 14.5t14 38.5v62h212v-67z" />
    <glyph glyph-name="D" unicode="D" horiz-adv-x="621" 
d="M603 254q0 -117 -72.5 -185.5t-214.5 -68.5h-286v666h286q141 0 214 -73.5t73 -192.5v-146zM365 245v177q0 75 -65 75h-32v-326h32q65 0 65 74z" />
    <glyph glyph-name="E" unicode="E" horiz-adv-x="540" 
d="M523 0h-493v666h493v-169h-255v-92h162v-131h-162v-95h255v-179z" />
    <glyph glyph-name="F" unicode="F" horiz-adv-x="532" 
d="M525 496h-257v-112h151v-141h-151v-243h-238v666h495v-170z" />
    <glyph glyph-name="G" unicode="G" horiz-adv-x="616" 
d="M583 0h-121l-18 64q-52 -83 -168 -83q-117 0 -186.5 68.5t-69.5 186.5v182q0 121 74.5 193.5t216.5 72.5q126 0 199 -65.5t73 -157.5v-57h-212v52q0 24 -14 38.5t-41 14.5q-53 0 -53 -67v-226q0 -28 16.5 -45t48.5 -17q27 0 42.5 14.5t15.5 37.5v32h-70v110h267v-348z
" />
    <glyph glyph-name="H" unicode="H" horiz-adv-x="648" 
d="M618 0h-238v235h-112v-235h-238v666h238v-260h112v260h238v-666z" />
    <glyph glyph-name="I" unicode="I" horiz-adv-x="297" 
d="M267 0h-237v666h237v-666z" />
    <glyph glyph-name="J" unicode="J" horiz-adv-x="563" 
d="M537 232q0 -115 -66.5 -183t-205.5 -68q-125 0 -188.5 62t-63.5 162v67h205v-67q0 -47 42 -47q40 0 40 47v461h237v-434z" />
    <glyph glyph-name="K" unicode="K" horiz-adv-x="633" 
d="M631 0h-251l-75 234l-37 -61v-173h-238v666h238v-267l115 267h243l-147 -292z" />
    <glyph glyph-name="L" unicode="L" horiz-adv-x="520" 
d="M515 0h-485v666h237v-487h248v-179z" />
    <glyph glyph-name="M" unicode="M" horiz-adv-x="837" 
d="M807 0h-228v355l-25 -99l-66 -256h-173l-61 256l-25 99v-355h-199v666h318l60 -242l17 -76l17 76l59 242h306v-666z" />
    <glyph glyph-name="N" unicode="N" horiz-adv-x="636" 
d="M606 0h-199l-128 221l-37 69v-290h-212v666h200l135 -226l30 -54v280h211v-666z" />
    <glyph glyph-name="O" unicode="O" horiz-adv-x="623" 
d="M603 245q0 -123 -78 -193.5t-213 -70.5q-136 0 -214 70t-78 194v176q0 123 78 193t214 70q135 0 213 -70t78 -193v-176zM361 216v232q0 62 -49 62t-49 -62v-232q0 -61 49 -61t49 61z" />
    <glyph glyph-name="P" unicode="P" horiz-adv-x="587" 
d="M575 410q0 -85 -56 -137t-151 -52h-100v-221h-238v666h336q96 0 152.5 -51t56.5 -136v-69zM345 393v77q0 38 -40 38h-37v-153h37q40 0 40 38z" />
    <glyph glyph-name="Q" unicode="Q" horiz-adv-x="629" 
d="M636 -2q-24 -17 -81 -17q-68 0 -107 36q-61 -36 -136 -36q-136 1 -214 71t-78 193v176q0 123 78 193t214 70q135 0 213 -70t78 -193v-176q0 -62 -17 -94q17 -12 50 -12v-141zM361 257v191q0 62 -49 62t-49 -62v-232q0 -61 49 -61q16 0 29 8l-30 30z" />
    <glyph glyph-name="R" unicode="R" horiz-adv-x="600" 
d="M600 0h-203q-22 0 -37 31.5t-15 71.5v85q0 31 -11 45.5t-42 14.5h-25v-248h-237v666h335q96 0 153 -45.5t57 -128.5v-40q0 -105 -104 -130q103 -15 103 -124v-87q0 -52 26 -106v-5zM343 411v61q0 20 -9.5 28.5t-30.5 8.5h-36v-137h36q40 0 40 39z" />
    <glyph glyph-name="S" unicode="S" horiz-adv-x="567" 
d="M554 202q0 -94 -69 -157.5t-205 -63.5q-132 0 -202 58t-70 150v30h206v-10q0 -29 16 -46.5t45 -17.5q55 0 55 43q0 20 -32.5 37t-78.5 33.5t-92.5 39t-79 66t-32.5 103.5q0 95 67.5 156t205.5 61q126 0 194 -58.5t68 -149.5v-30h-206v14q0 26 -14.5 44t-41.5 18
q-23 0 -36 -11t-13 -31q0 -23 32.5 -40.5t78.5 -33t92.5 -37.5t79 -64.5t32.5 -102.5z" />
    <glyph glyph-name="T" unicode="T" horiz-adv-x="568" 
d="M561 487h-158v-487h-238v487h-158v179h554v-179z" />
    <glyph glyph-name="U" unicode="U" horiz-adv-x="622" 
d="M594 209q0 -105 -69.5 -166.5t-210.5 -61.5t-213.5 62t-72.5 166v457h239v-452q0 -57 51 -57q52 0 52 57v452h224v-457z" />
    <glyph glyph-name="V" unicode="V" horiz-adv-x="604" 
d="M616 666l-202 -666h-233l-195 666h248l79 -376l78 376h225z" />
    <glyph glyph-name="W" unicode="W" horiz-adv-x="862" 
d="M875 666l-152 -666h-230l-65 299l-67 -299h-217l-154 666h240l62 -353l60 353h193l62 -354l64 354h204z" />
    <glyph glyph-name="X" unicode="X" horiz-adv-x="613" 
d="M611 666l-163 -335l159 -331h-251l-61 175l-64 -175h-235l164 333l-160 333h250l62 -179l65 179h234z" />
    <glyph glyph-name="Y" unicode="Y" horiz-adv-x="614" 
d="M628 666l-206 -422v-244h-237v251l-197 415h254l77 -211l71 211h238z" />
    <glyph glyph-name="Z" unicode="Z" horiz-adv-x="559" 
d="M550 610l-247 -424h241v-186h-542v56l254 433h-240v177h534v-56z" />
    <glyph glyph-name="bracketleft" unicode="[" horiz-adv-x="362" 
d="M349 -178h-259v953h259v-108h-121v-737h121v-108z" />
    <glyph glyph-name="backslash" unicode="\" horiz-adv-x="318" 
d="M314 -81h-90l-213 811h90z" />
    <glyph glyph-name="bracketright" unicode="]" horiz-adv-x="362" 
d="M272 -178h-259v108h121v737h-121v108h259v-953z" />
    <glyph glyph-name="asciicircum" unicode="^" horiz-adv-x="380" 
d="M370 553q-24 -7 -58 -7q-101 0 -125 85q-25 -85 -126 -85q-27 0 -51 7v41q29 0 56.5 29t42.5 79h162q15 -50 42.5 -79t56.5 -29v-41z" />
    <glyph glyph-name="underscore" unicode="_" horiz-adv-x="444" 
d="M444 -135h-444v135h444v-135z" />
    <glyph glyph-name="grave" unicode="`" horiz-adv-x="262" 
d="M230 556h-119l-112 151h178z" />
    <glyph glyph-name="a" unicode="a" 
d="M478 -4h-55q-53 0 -80 16.5t-45 57.5q-46 -78 -141 -78q-70 0 -110.5 36t-40.5 101v5q0 73 65 110.5t189 48.5v47q0 41 -30 41q-31 0 -31 -65h-169q-2 92 53 142.5t160 50.5q103 0 157 -49.5t54 -127.5v-188q0 -14 5 -20.5t19 -6.5v-121zM260 143v73q-66 0 -66 -57v-19
q0 -39 30 -39q36 0 36 42z" />
    <glyph glyph-name="b" unicode="b" horiz-adv-x="493" 
d="M475 171q0 -82 -44 -130.5t-128 -48.5q-78 0 -116 61l-8 -53h-153v672h195v-204q44 41 105 41q66 0 107.5 -47.5t41.5 -121.5v-169zM283 177v145q0 54 -32 54q-31 0 -31 -54v-145q0 -53 31 -53q32 0 32 53z" />
    <glyph glyph-name="c" unicode="c" horiz-adv-x="464" 
d="M455 206q3 -94 -54 -154t-156 -60q-103 0 -164.5 54.5t-61.5 140.5v127q0 86 61.5 140.5t164.5 54.5q99 0 156 -60t54 -154h-166v25q0 30 -9.5 41t-28.5 11q-41 0 -41 -52v-139q0 -52 41 -52q19 0 28.5 11t9.5 41v25h166z" />
    <glyph glyph-name="d" unicode="d" horiz-adv-x="491" 
d="M467 0h-154l-6 52q-42 -60 -119 -60q-84 0 -126.5 48.5t-42.5 131.5v167q0 73 44 121.5t110 48.5q35 0 56 -7.5t44 -30.5v201h194v-672zM273 176v146q0 54 -31 54t-31 -54v-146q0 -53 31 -53t31 53z" />
    <glyph glyph-name="e" unicode="e" horiz-adv-x="475" 
d="M462 225h-251v-60q0 -41 43 -41q19 0 29 11.5t10 41.5v14h166q1 -92 -57 -145.5t-160 -53.5q-104 0 -163.5 55t-59.5 140v126q0 85 59.5 140.5t163.5 55.5t162 -54.5t58 -138.5v-91zM273 285v52q0 42 -31 42t-31 -42v-52h62z" />
    <glyph glyph-name="f" unicode="f" horiz-adv-x="365" 
d="M365 357h-89v-357h-196v357h-73v132h75v9q0 88 50.5 133.5t169.5 45.5h51v-126h-15q-36 0 -50.5 -12.5t-14.5 -40.5v-9h92v-132z" />
    <glyph glyph-name="g" unicode="g" horiz-adv-x="474" 
d="M505 512q0 -32 -20.5 -53.5t-51.5 -21.5q-16 0 -44 13q59 -46 59 -113v-4q0 -71 -54 -114t-158 -43q-26 0 -43 3q-39 0 -39 -21q0 -25 102 -25q223 0 223 -140v-6q0 -73 -64 -118.5t-179 -45.5q-110 0 -170.5 33t-60.5 87v3q0 28 26.5 53t71.5 36q-88 32 -88 86
q0 33 29.5 55.5t79.5 26.5q-42 14 -70.5 52.5t-28.5 82.5v4q0 71 58.5 119t152.5 48q21 0 46.5 -5t29.5 -5q30 0 40.5 12.5t10.5 47.5h137q5 -30 5 -47zM269 316v43q0 42 -31 42q-32 0 -32 -42v-43q0 -42 32 -42q31 0 31 42zM318 -23v3q0 29 -74 29t-74 -29v-3q0 -28 74 -28
t74 28z" />
    <glyph glyph-name="h" unicode="h" horiz-adv-x="502" 
d="M480 0h-195v330q0 43 -29 43q-35 0 -35 -46v-327h-195v672h195v-232q51 69 130 69q62 0 95.5 -37.5t33.5 -99.5v-372z" />
    <glyph glyph-name="i" unicode="i" horiz-adv-x="247" 
d="M221 533h-195v143h195v-143zM221 0h-195v501h195v-501z" />
    <glyph glyph-name="j" unicode="j" horiz-adv-x="246" 
d="M221 534h-195v142h195v-142zM221 14q0 -180 -207 -180h-70v126h21q36 0 48.5 13t12.5 44v484h195v-487z" />
    <glyph glyph-name="k" unicode="k" horiz-adv-x="499" 
d="M502 0h-199l-53 172l-29 -63v-109h-195v672h195v-360l79 189h199l-108 -209z" />
    <glyph glyph-name="l" unicode="l" horiz-adv-x="247" 
d="M221 0h-195v672h195v-672z" />
    <glyph glyph-name="m" unicode="m" horiz-adv-x="748" 
d="M726 0h-194v330q0 43 -28 43q-34 0 -34 -46v-327h-187v330q0 43 -29 43q-33 0 -33 -46v-327h-195v501h171l7 -77q50 85 135 85q90 0 117 -88q24 43 63 65.5t84 22.5q62 0 92.5 -37t30.5 -100v-372z" />
    <glyph glyph-name="n" unicode="n" horiz-adv-x="502" 
d="M480 0h-195v330q0 43 -29 43q-35 0 -35 -46v-327h-195v501h173l6 -77q52 85 141 85q63 0 98.5 -38t35.5 -99v-372z" />
    <glyph glyph-name="o" unicode="o" horiz-adv-x="482" 
d="M464 197q0 -89 -59.5 -147t-163.5 -58t-163 58t-59 147v106q0 90 59 148t163 58t163.5 -58.5t59.5 -147.5v-106zM273 172v156q0 24 -7.5 34t-24.5 10q-32 0 -32 -44v-156q0 -44 32 -44q17 0 24.5 10t7.5 34z" />
    <glyph glyph-name="p" unicode="p" horiz-adv-x="493" 
d="M475 160q0 -78 -41 -123.5t-107 -45.5q-63 0 -106 37v-187h-195v660h158l5 -60q50 68 130 68q78 0 117 -48.5t39 -132.5v-168zM283 176v145q0 54 -32 54q-31 0 -31 -54v-145q0 -53 31 -53q32 0 32 53z" />
    <glyph glyph-name="q" unicode="q" horiz-adv-x="493" 
d="M467 -159h-194v188q-44 -38 -103 -38q-68 0 -109.5 45t-41.5 123v164q0 84 42 135t121 51q80 0 125 -68l7 60h153v-660zM273 175v146q0 54 -31 54t-31 -54v-146q0 -53 31 -53t31 53z" />
    <glyph glyph-name="r" unicode="r" horiz-adv-x="381" 
d="M375 502l-5 -177q-84 17 -116.5 -2t-32.5 -65v-258h-195v501h172l9 -99q14 65 59 91t109 9z" />
    <glyph glyph-name="s" unicode="s" horiz-adv-x="452" 
d="M439 150q0 -65 -54 -111.5t-151 -46.5q-103 0 -164.5 43t-59.5 129h169q0 -49 46 -49q18 0 28.5 9.5t10.5 23.5q0 13 -25.5 23.5t-61.5 21.5t-72.5 27t-62 49.5t-25.5 80.5q0 72 55 115.5t150 43.5q102 0 159 -44.5t55 -132.5h-164q0 54 -46 54q-32 0 -32 -27
q0 -15 25 -27t61 -24.5t72.5 -29.5t61.5 -50t25 -78z" />
    <glyph glyph-name="t" unicode="t" horiz-adv-x="362" 
d="M364 363h-89v-212q0 -93 38 -151h-204q-30 49 -30 151v212h-73v133h79v91l190 37v-128h89v-133z" />
    <glyph glyph-name="u" unicode="u" horiz-adv-x="505" 
d="M479 0h-173l-7 76q-51 -84 -140 -84q-63 0 -98.5 38t-35.5 99v372h194v-331q0 -43 30 -43q34 0 34 46v328h196v-501z" />
    <glyph glyph-name="v" unicode="v" horiz-adv-x="468" 
d="M479 501l-148 -501h-197l-146 501h197l41 -210l15 -83l13 83l40 210h185z" />
    <glyph glyph-name="w" unicode="w" horiz-adv-x="689" 
d="M702 501l-132 -501h-189l-33 163l-12 77l-13 -77l-33 -163h-174l-128 501h193l32 -191l11 -78l13 78l37 191h153l34 -191l12 -78l13 78l34 191h182z" />
    <glyph glyph-name="x" unicode="x" horiz-adv-x="475" 
d="M476 0h-197l-46 129l-47 -129h-191l123 247l-123 254h197l47 -139l46 139h191l-122 -242z" />
    <glyph glyph-name="y" unicode="y" horiz-adv-x="480" 
d="M481 501l-135 -457q-37 -119 -87.5 -164.5t-149.5 -45.5h-70v140h20q38 0 51.5 8.5t20.5 34.5l3 9l-143 475h200l38 -206l15 -81l13 81l36 206h188z" />
    <glyph glyph-name="z" unicode="z" horiz-adv-x="425" 
d="M420 445l-179 -300h173v-145h-410v56l181 302h-173v143h408v-56z" />
    <glyph glyph-name="braceleft" unicode="{" horiz-adv-x="363" 
d="M324 -178h-57q-92 0 -140 43t-48 112q0 44 20.5 89.5t40.5 82.5t20 59q-1 28 -16 40.5t-53 12.5h-42v76h42q38 0 53 12t15 39q0 23 -20 60t-40 82.5t-20 89.5q0 69 48 112t140 43h57v-106h-22q-61 0 -61 -59q0 -38 24 -95t24 -85q0 -51 -22.5 -79t-84.5 -40
q62 -12 84.5 -40.5t22.5 -79.5q0 -29 -23.5 -97t-23.5 -107q0 -59 60 -59h22v-106z" />
    <glyph glyph-name="bar" unicode="|" horiz-adv-x="160" 
d="M124 -81h-88v811h88v-811z" />
    <glyph glyph-name="braceright" unicode="}" horiz-adv-x="363" 
d="M315 261h-42q-39 0 -54 -12.5t-15 -40.5q0 -22 20 -59t40 -82.5t20 -89.5q0 -69 -48 -112t-140 -43h-57v106h22q61 0 61 59q0 39 -24 107t-24 97q0 51 22.5 79.5t84.5 40.5q-62 12 -84.5 40t-22.5 79q0 28 24 85t24 95q0 59 -61 59h-22v106h57q92 0 140 -43t48 -112
q0 -44 -20 -89.5t-40 -82.5t-20 -60q0 -27 15 -39t54 -12h42v-76z" />
    <glyph glyph-name="asciitilde" unicode="~" horiz-adv-x="371" 
d="M361 352q0 -42 -23.5 -69t-72.5 -27q-36 0 -82.5 21t-59.5 21q-30 0 -30 -28v-11h-67q-16 22 -16 55q0 42 26 70.5t75 28.5q36 0 82 -21t56 -21q29 0 29 28v10h69q14 -22 14 -57z" />
    <glyph glyph-name="nbspace" unicode="&#xa0;" horiz-adv-x="92" 
 />
    <glyph glyph-name="exclamdown" unicode="&#xa1;" horiz-adv-x="244" 
d="M199 338h-157v163h157v-163zM215 -165h-189v248l58 203h73l58 -203v-248z" />
    <glyph glyph-name="cent" unicode="&#xa2;" horiz-adv-x="488" 
d="M466 284q2 -75 -37 -129t-108 -72v-89h-136v89q-72 17 -113.5 67.5t-41.5 119.5v127q0 69 41.5 119.5t113.5 67.5v88h136v-88q69 -18 108 -72t37 -129h-164v20q0 30 -9.5 41t-29.5 11q-42 0 -42 -52v-139q0 -52 42 -52q20 0 29.5 11t9.5 41v20h164z" />
    <glyph glyph-name="sterling" unicode="&#xa3;" horiz-adv-x="652" 
d="M629 178q0 -94 -40.5 -145.5t-139.5 -51.5q-101 0 -199 59q-54 -59 -132 -59q-53 0 -87 29.5t-34 74.5q0 48 37.5 79.5t103.5 31.5q32 0 71 -11q15 18 15 38q0 25 -15 43h-165v110h117q-41 57 -41 118q0 77 64.5 133.5t181.5 56.5q111 0 176 -55t65 -156v-25h-185v14
q0 33 -10.5 46t-35.5 13q-46 0 -46 -48q0 -44 42 -97h158v-110h-130q2 -12 2 -21q0 -60 -61 -98q39 -17 71 -17q52 0 52 59v21h165v-32zM182 88q-24 20 -54 20q-15 0 -24 -7t-9 -17q0 -9 9 -16t25 -7q34 0 53 27z" />
    <glyph glyph-name="currency" unicode="&#xa4;" horiz-adv-x="591" 
d="M251 389h249v-112h-249v-57q0 -68 69 -68q33 0 49 17.5t16 43.5v7h192v-30q0 -81 -69.5 -145t-190.5 -64q-140 0 -218.5 71t-78.5 182v198q0 111 78.5 182t218.5 71q121 0 190.5 -64t69.5 -145v-30h-192v7q0 26 -16 43.5t-49 17.5q-69 0 -69 -68v-57z" />
    <glyph glyph-name="yen" unicode="&#xa5;" horiz-adv-x="620" 
d="M605 666l-140 -297h106v-105h-153l-5 -11v-38h158v-105h-158v-110h-215v110h-150v105h150v38l-4 11h-146v105h101l-136 296l-1 1h229l77 -221l71 221h216z" />
    <glyph glyph-name="section" unicode="&#xa7;" horiz-adv-x="558" 
d="M532 263q0 -76 -79 -124q67 -49 67 -123q0 -79 -63 -133t-182 -54q-115 0 -182 55t-67 145v19h172v-12q0 -25 18.5 -42.5t49.5 -17.5q53 0 53 37q0 18 -29.5 33.5t-71.5 31t-84 35t-71.5 54t-29.5 79.5q0 79 75 127q-71 47 -71 126q0 77 63.5 131t181.5 54
q113 0 179 -58.5t66 -144.5v-13h-187v12q0 58 -52 58q-51 0 -51 -38q0 -18 30.5 -34.5t73.5 -32.5t86.5 -36t74 -54.5t30.5 -79.5zM358 228q0 20 -23 37t-107 50q-22 -7 -22 -31q0 -21 21.5 -37.5t107.5 -48.5q23 5 23 30z" />
    <glyph glyph-name="dieresis" unicode="&#xa8;" horiz-adv-x="332" 
d="M315 552h-131v129h131v-129zM149 552h-132v129h132v-129z" />
    <glyph glyph-name="copyright" unicode="&#xa9;" horiz-adv-x="741" 
d="M722 333q0 -147 -101 -249.5t-250 -102.5q-150 0 -251 102.5t-101 249.5t101 249.5t251 102.5q149 0 250 -102.5t101 -249.5zM663 333q0 126 -82 212.5t-210 86.5t-210.5 -86.5t-82.5 -212.5t82.5 -212t210.5 -86t210 86t82 212zM519 279q0 -55 -38 -90.5t-105 -35.5
q-69 0 -110 36.5t-41 99.5v92q0 63 41 99.5t110 36.5q67 0 105 -35.5t38 -90.5v-16h-101v5q0 28 -8 39.5t-30 11.5q-36 0 -36 -43v-106q0 -43 36 -43q22 0 30 11.5t8 39.5v5h101v-16z" />
    <glyph glyph-name="ordfeminine" unicode="&#xaa;" horiz-adv-x="398" 
d="M384 302h-55q-39 0 -58 11t-32 42q-35 -58 -106 -58q-54 0 -84.5 27.5t-30.5 75.5v3q0 105 189 120v32q0 30 -27 30q-28 0 -28 -44h-119q-1 70 42.5 106.5t123.5 36.5q83 0 121.5 -37t38.5 -97v-134q0 -20 25 -20v-94zM207 412v51q-40 -1 -40 -40v-14q0 -28 18 -28
q22 0 22 31z" />
    <glyph glyph-name="guillemotleft" unicode="&#xab;" horiz-adv-x="514" 
d="M492 0h-79q-33 122 -153 162v90q119 39 153 162h79q-2 -78 -20 -126t-63 -81q45 -33 63 -81t20 -126zM251 0h-78q-35 122 -154 162v90q119 38 154 162h78q-2 -78 -20 -126.5t-63 -80.5q45 -32 63 -80.5t20 -126.5z" />
    <glyph glyph-name="logicalnot" unicode="&#xac;" horiz-adv-x="454" 
d="M423 225l-88 -88l-109 108l-107 -108l-88 88l107 108l-107 108l89 88l108 -108l107 108l88 -87l-108 -108z" />
    <glyph glyph-name="registered" unicode="&#xae;" horiz-adv-x="741" 
d="M722 333q0 -147 -101 -249.5t-250 -102.5q-150 0 -251 102.5t-101 249.5t101 249.5t251 102.5q149 0 250 -102.5t101 -249.5zM663 333q0 126 -82 212.5t-210 86.5t-210.5 -86.5t-82.5 -212.5t82.5 -212t210.5 -86t210 86t82 212zM540 163h-99q-12 0 -19.5 16t-7.5 38v47
q0 29 -25 29h-35v-130h-117v344h178q53 0 81.5 -24t28.5 -64v-24q0 -50 -55 -66q56 -11 56 -62v-46q0 -31 14 -57v-1zM412 377v29q0 22 -28 22h-30v-74h30q28 0 28 23z" />
    <glyph glyph-name="macron" unicode="&#xaf;" horiz-adv-x="326" 
d="M316 566h-306v101h306v-101z" />
    <glyph glyph-name="degree" unicode="&#xb0;" horiz-adv-x="327" 
d="M318 535q0 -61 -43.5 -105t-110.5 -44t-110.5 44t-43.5 105t43.5 105.5t110.5 44.5t110.5 -44.5t43.5 -105.5zM226 535q0 30 -16.5 48.5t-45.5 18.5t-46 -18.5t-17 -48.5t16.5 -48t46.5 -18q29 0 45.5 18t16.5 48z" />
    <glyph glyph-name="plusminus" unicode="&#xb1;" horiz-adv-x="507" 
d="M483 0h-459v484h459v-484zM432 49v386h-357v-386h357z" />
    <glyph glyph-name="acute" unicode="&#xb4;" horiz-adv-x="263" 
d="M263 707l-111 -151h-120l54 151h177z" />
    <glyph glyph-name="mu" unicode="&#xb5;" horiz-adv-x="362" 
d="M364 357h-89v-206q0 -93 38 -151h-204q-30 49 -30 151v206h-73v132h79v91l190 36v-127h89v-132z" />
    <glyph glyph-name="paragraph" unicode="&#xb6;" horiz-adv-x="667" 
d="M628 -161h-109v678h-57v-678h-108v310h-36q-140 0 -219 68.5t-79 182.5v14q0 114 79.5 183t218.5 69h310v-827zM354 281v236h-21q-66 0 -66 -85v-68q0 -83 66 -83h21z" />
    <glyph glyph-name="periodcentered" unicode="&#xb7;" horiz-adv-x="222" 
d="M192 247h-163v171h163v-171z" />
    <glyph glyph-name="cedilla" unicode="&#xb8;" horiz-adv-x="243" 
d="M250 -152q0 -50 -33 -78.5t-98 -28.5q-28 0 -52 8v51h29q39 0 39 42v6q0 40 -37 40q-25 0 -46 -17l-42 34l100 125l40 -29l-58 -71q24 14 48 14q52 0 81 -25t29 -71z" />
    <glyph glyph-name="ordmasculine" unicode="&#xba;" horiz-adv-x="372" 
d="M354 450q0 -68 -43.5 -110t-124.5 -42t-124.5 42t-43.5 110v82q0 67 44 109.5t124 42.5t124 -42.5t44 -109.5v-82zM207 441v100q0 42 -21 42t-21 -42v-100q0 -43 21 -43t21 43z" />
    <glyph glyph-name="guillemotright" unicode="&#xbb;" horiz-adv-x="514" 
d="M493 162q-119 -40 -154 -162h-78q2 78 20 126.5t63 80.5q-45 32 -63 80.5t-20 126.5h78q35 -123 154 -162v-90zM252 162q-120 -40 -153 -162h-78q2 78 20 126.5t63 80.5q-45 32 -63 80.5t-20 126.5h78q34 -123 153 -162v-90z" />
    <glyph glyph-name="questiondown" unicode="&#xbf;" horiz-adv-x="457" 
d="M341 338h-158v163h158v-163zM468 32q0 -101 -63 -158t-171 -57q-114 0 -174.5 53t-60.5 137q0 44 20 78.5t47.5 57t55.5 42.5t46.5 45.5t17.5 56.5h150q1 -47 -12.5 -83.5t-33 -58t-39.5 -39.5t-34 -37.5t-14 -41.5q0 -47 41 -47q46 0 46 69v31h178v-48z" />
    <glyph glyph-name="Agrave" unicode="&#xc0;" horiz-adv-x="585" 
d="M597 0h-238l-20 99h-118l-23 -99h-212l175 666h262zM315 229l-28 181l-36 -181h64zM353 707h-119l-112 151h178z" />
    <glyph glyph-name="Aacute" unicode="&#xc1;" horiz-adv-x="585" 
d="M597 0h-238l-20 99h-118l-23 -99h-212l175 666h262zM315 229l-28 181l-36 -181h64zM444 858l-111 -151h-120l54 151h177z" />
    <glyph glyph-name="Acircumflex" unicode="&#xc2;" horiz-adv-x="585" 
d="M597 0h-238l-20 99h-118l-23 -99h-212l175 666h262zM315 229l-28 181l-36 -181h64zM467 710q-24 -7 -58 -7q-101 0 -125 85q-25 -85 -126 -85q-27 0 -51 7v41q29 0 56.5 29t42.5 79h162q15 -50 42.5 -79t56.5 -29v-41z" />
    <glyph glyph-name="Atilde" unicode="&#xc3;" horiz-adv-x="585" 
d="M597 0h-238l-20 99h-118l-23 -99h-212l175 666h262zM315 229l-28 181l-36 -181h64zM463 808q0 -42 -23.5 -69.5t-72.5 -27.5q-36 0 -82.5 21.5t-59.5 21.5q-30 0 -30 -28v-11h-67q-16 22 -16 55q0 42 26 70t75 28q36 0 82 -20.5t56 -20.5q29 0 29 27v10h69q14 -20 14 -56
z" />
    <glyph glyph-name="Adieresis" unicode="&#xc4;" horiz-adv-x="585" 
d="M597 0h-238l-20 99h-118l-23 -99h-212l175 666h262zM315 229l-28 181l-36 -181h64zM436 703h-131v129h131v-129zM270 703h-132v129h132v-129z" />
    <glyph glyph-name="Aring" unicode="&#xc5;" horiz-adv-x="585" 
d="M597 0h-238l-20 99h-118l-23 -99h-212l175 666h61q-45 32 -45 87q0 44 31 75.5t82 31.5t81 -31.5t30 -75.5q0 -57 -44 -87h66zM329 753q0 19 -10.5 30.5t-28.5 11.5q-19 0 -29.5 -11.5t-10.5 -30.5t10.5 -30.5t29.5 -11.5q18 0 28.5 12t10.5 30zM315 229l-28 181
l-36 -181h64z" />
    <glyph glyph-name="AE" unicode="&#xc6;" horiz-adv-x="899" 
d="M881 0h-493v98h-133l-40 -98h-229l291 666h604v-169h-255v-92h162v-131h-162v-95h255v-179zM388 231v216l-82 -216h82z" />
    <glyph glyph-name="Ccedilla" unicode="&#xc7;" horiz-adv-x="603" 
d="M583 205q0 -86 -65 -150.5t-178 -72.5l-46 -56q24 14 48 14q52 0 81 -25t29 -71q0 -50 -33 -78.5t-98 -28.5q-28 0 -52 8v51h29q39 0 39 42v6q0 40 -37 40q-25 0 -46 -17l-42 34l65 81q-125 9 -191 78t-66 174v198q0 113 75 182.5t216 69.5q126 0 199 -65.5t73 -157.5
v-67h-212v62q0 24 -14 38.5t-41 14.5q-53 0 -53 -67v-218q0 -67 53 -67q27 0 41 14.5t14 38.5v62h212v-67z" />
    <glyph glyph-name="Egrave" unicode="&#xc8;" horiz-adv-x="540" 
d="M523 0h-493v666h493v-169h-255v-92h162v-131h-162v-95h255v-179zM360 707h-119l-112 151h178z" />
    <glyph glyph-name="Eacute" unicode="&#xc9;" horiz-adv-x="540" 
d="M523 0h-493v666h493v-169h-255v-92h162v-131h-162v-95h255v-179zM438 858l-111 -151h-120l54 151h177z" />
    <glyph glyph-name="Ecircumflex" unicode="&#xca;" horiz-adv-x="540" 
d="M523 0h-493v666h493v-169h-255v-92h162v-131h-162v-95h255v-179zM461 710q-24 -7 -58 -7q-101 0 -125 85q-25 -85 -126 -85q-27 0 -51 7v41q29 0 56.5 29t42.5 79h162q15 -50 42.5 -79t56.5 -29v-41z" />
    <glyph glyph-name="Edieresis" unicode="&#xcb;" horiz-adv-x="540" 
d="M523 0h-493v666h493v-169h-255v-92h162v-131h-162v-95h255v-179zM430 703h-131v129h131v-129zM264 703h-132v129h132v-129z" />
    <glyph glyph-name="Igrave" unicode="&#xcc;" horiz-adv-x="297" 
d="M267 0h-237v666h237v-666zM220 707h-119l-112 151h178z" />
    <glyph glyph-name="Iacute" unicode="&#xcd;" horiz-adv-x="297" 
d="M267 0h-237v666h237v-666zM304 858l-111 -151h-120l54 151h177z" />
    <glyph glyph-name="Icircumflex" unicode="&#xce;" horiz-adv-x="297" 
d="M267 0h-237v666h237v-666zM332 710q-24 -7 -58 -7q-101 0 -125 85q-25 -85 -126 -85q-27 0 -51 7v41q29 0 56.5 29t42.5 79h162q15 -50 42.5 -79t56.5 -29v-41z" />
    <glyph glyph-name="Idieresis" unicode="&#xcf;" horiz-adv-x="297" 
d="M267 0h-237v666h237v-666zM298 703h-131v129h131v-129zM132 703h-132v129h132v-129z" />
    <glyph glyph-name="Eth" unicode="&#xd0;" horiz-adv-x="643" 
d="M624 254q0 -117 -72.5 -185.5t-214.5 -68.5h-286v274h-56v116h56v276h286q141 0 214 -73.5t73 -192.5v-146zM386 240v187q0 75 -65 75h-33v-112h50v-116h-50v-108h33q65 0 65 74z" />
    <glyph glyph-name="Ntilde" unicode="&#xd1;" horiz-adv-x="636" 
d="M606 0h-199l-128 221l-37 69v-290h-212v666h200l135 -226l30 -54v280h211v-666zM490 808q0 -42 -23.5 -69.5t-72.5 -27.5q-36 0 -82.5 21.5t-59.5 21.5q-30 0 -30 -28v-11h-67q-16 22 -16 55q0 42 26 70t75 28q36 0 82 -20.5t56 -20.5q29 0 29 27v10h69q14 -20 14 -56z
" />
    <glyph glyph-name="Ograve" unicode="&#xd2;" horiz-adv-x="623" 
d="M603 245q0 -123 -78 -193.5t-213 -70.5q-136 0 -214 70t-78 194v176q0 123 78 193t214 70q135 0 213 -70t78 -193v-176zM361 216v232q0 62 -49 62t-49 -62v-232q0 -61 49 -61t49 61zM381 720h-119l-112 151h178z" />
    <glyph glyph-name="Oacute" unicode="&#xd3;" horiz-adv-x="623" 
d="M603 245q0 -123 -78 -193.5t-213 -70.5q-136 0 -214 70t-78 194v176q0 123 78 193t214 70q135 0 213 -70t78 -193v-176zM361 216v232q0 62 -49 62t-49 -62v-232q0 -61 49 -61t49 61zM472 871l-111 -151h-120l54 151h177z" />
    <glyph glyph-name="Ocircumflex" unicode="&#xd4;" horiz-adv-x="623" 
d="M603 245q0 -123 -78 -193.5t-213 -70.5q-136 0 -214 70t-78 194v176q0 123 78 193t214 70q135 0 213 -70t78 -193v-176zM361 216v232q0 62 -49 62t-49 -62v-232q0 -61 49 -61t49 61zM494 719q-24 -7 -58 -7q-101 0 -125 85q-25 -85 -126 -85q-27 0 -51 7v41q29 0 56.5 29
t42.5 79h162q15 -50 42.5 -79t56.5 -29v-41z" />
    <glyph glyph-name="Otilde" unicode="&#xd5;" horiz-adv-x="623" 
d="M603 245q0 -123 -78 -193.5t-213 -70.5q-136 0 -214 70t-78 194v176q0 123 78 193t214 70q135 0 213 -70t78 -193v-176zM361 216v232q0 62 -49 62t-49 -62v-232q0 -61 49 -61t49 61zM485 816q0 -42 -23.5 -69.5t-72.5 -27.5q-36 0 -82.5 21.5t-59.5 21.5q-30 0 -30 -28
v-11h-67q-16 22 -16 55q0 42 26 70t75 28q36 0 82 -20.5t56 -20.5q29 0 29 27v10h69q14 -20 14 -56z" />
    <glyph glyph-name="Odieresis" unicode="&#xd6;" horiz-adv-x="623" 
d="M603 245q0 -123 -78 -193.5t-213 -70.5q-136 0 -214 70t-78 194v176q0 123 78 193t214 70q135 0 213 -70t78 -193v-176zM361 216v232q0 62 -49 62t-49 -62v-232q0 -61 49 -61t49 61zM460 716h-131v129h131v-129zM294 716h-132v129h132v-129z" />
    <glyph glyph-name="multiply" unicode="&#xd7;" horiz-adv-x="454" 
d="M423 225l-88 -88l-109 108l-107 -108l-88 88l107 108l-107 108l89 88l108 -108l107 108l88 -87l-108 -108z" />
    <glyph glyph-name="Oslash" unicode="&#xd8;" horiz-adv-x="623" 
d="M614 660l-60 -77q49 -66 49 -162v-176q0 -123 -78 -193.5t-213 -70.5q-114 0 -187 49l-55 -70l-61 46l60 77q-49 64 -49 162v176q0 123 78 193t214 70q113 0 185 -49l57 73zM360 459q-4 51 -48 51q-49 0 -49 -62v-115zM361 216v118l-98 -126q4 -53 49 -53q49 0 49 61z
" />
    <glyph glyph-name="Ugrave" unicode="&#xd9;" horiz-adv-x="622" 
d="M594 209q0 -105 -69.5 -166.5t-210.5 -61.5t-213.5 62t-72.5 166v457h239v-452q0 -57 51 -57q52 0 52 57v452h224v-457zM380 707h-119l-112 151h178z" />
    <glyph glyph-name="Uacute" unicode="&#xda;" horiz-adv-x="622" 
d="M594 209q0 -105 -69.5 -166.5t-210.5 -61.5t-213.5 62t-72.5 166v457h239v-452q0 -57 51 -57q52 0 52 57v452h224v-457zM479 858l-111 -151h-120l54 151h177z" />
    <glyph glyph-name="Ucircumflex" unicode="&#xdb;" horiz-adv-x="622" 
d="M594 209q0 -105 -69.5 -166.5t-210.5 -61.5t-213.5 62t-72.5 166v457h239v-452q0 -57 51 -57q52 0 52 57v452h224v-457zM502 710q-24 -7 -58 -7q-101 0 -125 85q-25 -85 -126 -85q-27 0 -51 7v41q29 0 56.5 29t42.5 79h162q15 -50 42.5 -79t56.5 -29v-41z" />
    <glyph glyph-name="Udieresis" unicode="&#xdc;" horiz-adv-x="622" 
d="M594 209q0 -105 -69.5 -166.5t-210.5 -61.5t-213.5 62t-72.5 166v457h239v-452q0 -57 51 -57q52 0 52 57v452h224v-457zM463 703h-131v129h131v-129zM297 703h-132v129h132v-129z" />
    <glyph glyph-name="Yacute" unicode="&#xdd;" horiz-adv-x="614" 
d="M628 666l-206 -422v-244h-237v251l-197 415h254l77 -211l71 211h238zM474 858l-111 -151h-120l54 151h177z" />
    <glyph glyph-name="Thorn" unicode="&#xde;" horiz-adv-x="587" 
d="M575 314q0 -85 -56.5 -137t-150.5 -52h-100v-125h-238v666h238v-95h98q96 0 152.5 -51.5t56.5 -136.5v-69zM345 302v76q0 39 -40 39h-37v-153h37q40 0 40 38z" />
    <glyph glyph-name="germandbls" unicode="&#xdf;" horiz-adv-x="490" 
d="M482 147q0 -79 -46.5 -117t-120.5 -38q-43 0 -75 13v92q27 0 39 15.5t12 49.5v84q0 34 -10.5 49.5t-37.5 16.5v88q29 1 39.5 13t10.5 42v46q0 52 -39 52q-41 0 -41 -53v-500h-195v474q0 96 62 152t172 56q107 0 163.5 -49.5t56.5 -122.5v-13q0 -49 -26.5 -87.5
t-80.5 -51.5q66 -16 91.5 -49t25.5 -89v-73z" />
    <glyph glyph-name="agrave" unicode="&#xe0;" 
d="M478 -4h-55q-53 0 -80 16.5t-45 57.5q-46 -78 -141 -78q-70 0 -110.5 36t-40.5 101v5q0 73 65 110.5t189 48.5v47q0 41 -30 41q-31 0 -31 -65h-169q-2 92 53 142.5t160 50.5q103 0 157 -49.5t54 -127.5v-188q0 -14 5 -20.5t19 -6.5v-121zM260 143v73q-66 0 -66 -57v-19
q0 -39 30 -39q36 0 36 42zM314 548h-119l-112 151h178z" />
    <glyph glyph-name="aacute" unicode="&#xe1;" 
d="M478 -4h-55q-53 0 -80 16.5t-45 57.5q-46 -78 -141 -78q-70 0 -110.5 36t-40.5 101v5q0 73 65 110.5t189 48.5v47q0 41 -30 41q-31 0 -31 -65h-169q-2 92 53 142.5t160 50.5q103 0 157 -49.5t54 -127.5v-188q0 -14 5 -20.5t19 -6.5v-121zM260 143v73q-66 0 -66 -57v-19
q0 -39 30 -39q36 0 36 42zM395 699l-111 -151h-120l54 151h177z" />
    <glyph glyph-name="acircumflex" unicode="&#xe2;" 
d="M478 -4h-55q-53 0 -80 16.5t-45 57.5q-46 -78 -141 -78q-70 0 -110.5 36t-40.5 101v5q0 73 65 110.5t189 48.5v47q0 41 -30 41q-31 0 -31 -65h-169q-2 92 53 142.5t160 50.5q103 0 157 -49.5t54 -127.5v-188q0 -14 5 -20.5t19 -6.5v-121zM260 143v73q-66 0 -66 -57v-19
q0 -39 30 -39q36 0 36 42zM419 543q-24 -7 -58 -7q-101 0 -125 85q-25 -85 -126 -85q-27 0 -51 7v41q29 0 56.5 29t42.5 79h162q15 -50 42.5 -79t56.5 -29v-41z" />
    <glyph glyph-name="atilde" unicode="&#xe3;" 
d="M478 -4h-55q-53 0 -80 16.5t-45 57.5q-46 -78 -141 -78q-70 0 -110.5 36t-40.5 101v5q0 73 65 110.5t189 48.5v47q0 41 -30 41q-31 0 -31 -65h-169q-2 92 53 142.5t160 50.5q103 0 157 -49.5t54 -127.5v-188q0 -14 5 -20.5t19 -6.5v-121zM260 143v73q-66 0 -66 -57v-19
q0 -39 30 -39q36 0 36 42zM414 648q0 -42 -23.5 -69.5t-72.5 -27.5q-36 0 -82.5 21.5t-59.5 21.5q-30 0 -30 -28v-11h-67q-16 22 -16 55q0 42 26 70t75 28q36 0 82 -20.5t56 -20.5q29 0 29 27v10h69q14 -20 14 -56z" />
    <glyph glyph-name="adieresis" unicode="&#xe4;" 
d="M478 -4h-55q-53 0 -80 16.5t-45 57.5q-46 -78 -141 -78q-70 0 -110.5 36t-40.5 101v5q0 73 65 110.5t189 48.5v47q0 41 -30 41q-31 0 -31 -65h-169q-2 92 53 142.5t160 50.5q103 0 157 -49.5t54 -127.5v-188q0 -14 5 -20.5t19 -6.5v-121zM260 143v73q-66 0 -66 -57v-19
q0 -39 30 -39q36 0 36 42zM388 544h-131v129h131v-129zM222 544h-132v129h132v-129z" />
    <glyph glyph-name="aring" unicode="&#xe5;" 
d="M478 -4h-55q-53 0 -80 16.5t-45 57.5q-46 -78 -141 -78q-70 0 -110.5 36t-40.5 101v5q0 73 65 110.5t189 48.5v47q0 41 -30 41q-31 0 -31 -65h-169q-2 92 53 142.5t160 50.5q103 0 157 -49.5t54 -127.5v-188q0 -14 5 -20.5t19 -6.5v-121zM260 143v73q-66 0 -66 -57v-19
q0 -39 30 -39q36 0 36 42zM356 646q0 -44 -30 -75t-81 -31t-81.5 31t-30.5 75t30.5 75.5t81.5 31.5t81 -31.5t30 -75.5zM284 646q0 19 -10.5 31t-28.5 12q-19 0 -29.5 -12t-10.5 -31t10.5 -30.5t29.5 -11.5q18 0 28.5 11.5t10.5 30.5z" />
    <glyph glyph-name="ae" unicode="&#xe6;" horiz-adv-x="741" 
d="M728 225h-250v-61q0 -40 43 -40q19 0 29 11.5t10 41.5v14h166q1 -92 -56 -145.5t-154 -53.5q-113 0 -164 68q-61 -68 -170 -68q-78 0 -127 37t-49 99v5q0 138 254 159v48q0 41 -30 41q-18 0 -25.5 -13t-7.5 -44h-169q-2 88 52 136.5t147 48.5q98 0 147 -59q23 27 60.5 43
t80.5 16q100 0 156.5 -55t56.5 -139v-90zM540 285v52q0 42 -31 42t-31 -42v-52h62zM260 143v72q-66 0 -66 -56v-19q0 -39 30 -39q36 0 36 42z" />
    <glyph glyph-name="ccedilla" unicode="&#xe7;" horiz-adv-x="464" 
d="M455 206q3 -89 -48 -148t-142 -65l-51 -63q24 14 48 14q52 0 81 -25t29 -71q0 -50 -33 -78.5t-98 -28.5q-28 0 -52 8v51h29q39 0 39 42v6q0 40 -37 40q-25 0 -46 -17l-42 34l72 90q-85 10 -135 62.5t-50 129.5v127q0 86 61.5 140.5t164.5 54.5q99 0 156 -60t54 -154h-166
v25q0 30 -9.5 41t-28.5 11q-41 0 -41 -52v-139q0 -52 41 -52q19 0 28.5 11t9.5 41v25h166z" />
    <glyph glyph-name="egrave" unicode="&#xe8;" horiz-adv-x="475" 
d="M462 225h-251v-60q0 -41 43 -41q19 0 29 11.5t10 41.5v14h166q1 -92 -57 -145.5t-160 -53.5q-104 0 -163.5 55t-59.5 140v126q0 85 59.5 140.5t163.5 55.5t162 -54.5t58 -138.5v-91zM273 285v52q0 42 -31 42t-31 -42v-52h62zM312 548h-119l-112 151h178z" />
    <glyph glyph-name="eacute" unicode="&#xe9;" horiz-adv-x="475" 
d="M462 225h-251v-60q0 -41 43 -41q19 0 29 11.5t10 41.5v14h166q1 -92 -57 -145.5t-160 -53.5q-104 0 -163.5 55t-59.5 140v126q0 85 59.5 140.5t163.5 55.5t162 -54.5t58 -138.5v-91zM273 285v52q0 42 -31 42t-31 -42v-52h62zM405 699l-111 -151h-120l54 151h177z" />
    <glyph glyph-name="ecircumflex" unicode="&#xea;" horiz-adv-x="475" 
d="M462 225h-251v-60q0 -41 43 -41q19 0 29 11.5t10 41.5v14h166q1 -92 -57 -145.5t-160 -53.5q-104 0 -163.5 55t-59.5 140v126q0 85 59.5 140.5t163.5 55.5t162 -54.5t58 -138.5v-91zM273 285v52q0 42 -31 42t-31 -42v-52h62zM423 543q-24 -7 -58 -7q-101 0 -125 85
q-25 -85 -126 -85q-27 0 -51 7v41q29 0 56.5 29t42.5 79h162q15 -50 42.5 -79t56.5 -29v-41z" />
    <glyph glyph-name="edieresis" unicode="&#xeb;" horiz-adv-x="475" 
d="M462 225h-251v-60q0 -41 43 -41q19 0 29 11.5t10 41.5v14h166q1 -92 -57 -145.5t-160 -53.5q-104 0 -163.5 55t-59.5 140v126q0 85 59.5 140.5t163.5 55.5t162 -54.5t58 -138.5v-91zM273 285v52q0 42 -31 42t-31 -42v-52h62zM391 544h-131v129h131v-129zM225 544h-132
v129h132v-129z" />
    <glyph glyph-name="igrave" unicode="&#xec;" horiz-adv-x="247" 
d="M221 0h-195v501h195v-501zM190 546h-119l-112 151h178z" />
    <glyph glyph-name="iacute" unicode="&#xed;" horiz-adv-x="247" 
d="M221 0h-195v501h195v-501zM284 697l-111 -151h-120l54 151h177z" />
    <glyph glyph-name="icircumflex" unicode="&#xee;" horiz-adv-x="247" 
d="M221 0h-195v501h195v-501zM307 542q-24 -7 -58 -7q-101 0 -125 85q-25 -85 -126 -85q-27 0 -51 7v41q29 0 56.5 29t42.5 79h162q15 -50 42.5 -79t56.5 -29v-41z" />
    <glyph glyph-name="idieresis" unicode="&#xef;" horiz-adv-x="247" 
d="M221 0h-195v501h195v-501zM272 542h-131v129h131v-129zM106 542h-132v129h132v-129z" />
    <glyph glyph-name="eth" unicode="&#xf0;" 
d="M467 200q0 -93 -64 -150.5t-166 -57.5q-100 0 -159 52t-59 138v133q0 75 44.5 122.5t109.5 47.5q63 0 105 -39q-3 51 -28 95l-57 -24l-31 58l43 20q-31 31 -65 54l154 25q18 -7 43 -25l60 26l32 -58l-40 -17q78 -95 78 -227v-173zM272 174v144q0 57 -31 57t-31 -57v-144
q0 -56 31 -56t31 56z" />
    <glyph glyph-name="ntilde" unicode="&#xf1;" horiz-adv-x="502" 
d="M480 0h-195v330q0 43 -29 43q-35 0 -35 -46v-327h-195v501h173l6 -77q52 85 141 85q63 0 98.5 -38t35.5 -99v-372zM420 648q0 -42 -23.5 -69.5t-72.5 -27.5q-36 0 -82.5 21.5t-59.5 21.5q-30 0 -30 -28v-11h-67q-16 22 -16 55q0 42 26 70t75 28q36 0 82 -20.5t56 -20.5
q29 0 29 27v10h69q14 -20 14 -56z" />
    <glyph glyph-name="ograve" unicode="&#xf2;" horiz-adv-x="482" 
d="M464 197q0 -89 -59.5 -147t-163.5 -58t-163 58t-59 147v106q0 90 59 148t163 58t163.5 -58.5t59.5 -147.5v-106zM273 172v156q0 24 -7.5 34t-24.5 10q-32 0 -32 -44v-156q0 -44 32 -44q17 0 24.5 10t7.5 34zM306 548h-119l-112 151h178z" />
    <glyph glyph-name="oacute" unicode="&#xf3;" horiz-adv-x="482" 
d="M464 197q0 -89 -59.5 -147t-163.5 -58t-163 58t-59 147v106q0 90 59 148t163 58t163.5 -58.5t59.5 -147.5v-106zM273 172v156q0 24 -7.5 34t-24.5 10q-32 0 -32 -44v-156q0 -44 32 -44q17 0 24.5 10t7.5 34zM400 699l-111 -151h-120l54 151h177z" />
    <glyph glyph-name="ocircumflex" unicode="&#xf4;" horiz-adv-x="482" 
d="M464 197q0 -89 -59.5 -147t-163.5 -58t-163 58t-59 147v106q0 90 59 148t163 58t163.5 -58.5t59.5 -147.5v-106zM273 172v156q0 24 -7.5 34t-24.5 10q-32 0 -32 -44v-156q0 -44 32 -44q17 0 24.5 10t7.5 34zM426 543q-24 -7 -58 -7q-101 0 -125 85q-25 -85 -126 -85
q-27 0 -51 7v41q29 0 56.5 29t42.5 79h162q15 -50 42.5 -79t56.5 -29v-41z" />
    <glyph glyph-name="otilde" unicode="&#xf5;" horiz-adv-x="482" 
d="M464 197q0 -89 -59.5 -147t-163.5 -58t-163 58t-59 147v106q0 90 59 148t163 58t163.5 -58.5t59.5 -147.5v-106zM273 172v156q0 24 -7.5 34t-24.5 10q-32 0 -32 -44v-156q0 -44 32 -44q17 0 24.5 10t7.5 34zM417 648q0 -42 -23.5 -69.5t-72.5 -27.5q-36 0 -82.5 21.5
t-59.5 21.5q-30 0 -30 -28v-11h-67q-16 22 -16 55q0 42 26 70t75 28q36 0 82 -20.5t56 -20.5q29 0 29 27v10h69q14 -20 14 -56z" />
    <glyph glyph-name="odieresis" unicode="&#xf6;" horiz-adv-x="482" 
d="M464 197q0 -89 -59.5 -147t-163.5 -58t-163 58t-59 147v106q0 90 59 148t163 58t163.5 -58.5t59.5 -147.5v-106zM273 172v156q0 24 -7.5 34t-24.5 10q-32 0 -32 -44v-156q0 -44 32 -44q17 0 24.5 10t7.5 34zM390 544h-131v129h131v-129zM224 544h-132v129h132v-129z" />
    <glyph glyph-name="oslash" unicode="&#xf8;" horiz-adv-x="482" 
d="M466 503l-49 -66q47 -55 47 -134v-106q0 -89 -59.5 -147t-163.5 -58q-73 0 -129 32l-11 -16q-11 -15 -23 -30l-11 -16l-50 37l48 65q-46 54 -46 133v106q0 90 59 148t163 58q73 0 129 -32l46 63zM272 344q-4 28 -31 28q-32 0 -32 -44v-69zM273 172v69l-63 -85
q4 -28 31 -28q17 0 24.5 10t7.5 34z" />
    <glyph glyph-name="ugrave" unicode="&#xf9;" horiz-adv-x="505" 
d="M479 0h-173l-7 76q-51 -84 -140 -84q-63 0 -98.5 38t-35.5 99v372h194v-331q0 -43 30 -43q34 0 34 46v328h196v-501zM316 546h-119l-112 151h178z" />
    <glyph glyph-name="uacute" unicode="&#xfa;" horiz-adv-x="505" 
d="M479 0h-173l-7 76q-51 -84 -140 -84q-63 0 -98.5 38t-35.5 99v372h194v-331q0 -43 30 -43q34 0 34 46v328h196v-501zM405 697l-111 -151h-120l54 151h177z" />
    <glyph glyph-name="ucircumflex" unicode="&#xfb;" horiz-adv-x="505" 
d="M479 0h-173l-7 76q-51 -84 -140 -84q-63 0 -98.5 38t-35.5 99v372h194v-331q0 -43 30 -43q34 0 34 46v328h196v-501zM437 543q-24 -7 -58 -7q-101 0 -125 85q-25 -85 -126 -85q-27 0 -51 7v41q29 0 56.5 29t42.5 79h162q15 -50 42.5 -79t56.5 -29v-41z" />
    <glyph glyph-name="udieresis" unicode="&#xfc;" horiz-adv-x="505" 
d="M479 0h-173l-7 76q-51 -84 -140 -84q-63 0 -98.5 38t-35.5 99v372h194v-331q0 -43 30 -43q34 0 34 46v328h196v-501zM401 542h-131v129h131v-129zM235 542h-132v129h132v-129z" />
    <glyph glyph-name="yacute" unicode="&#xfd;" horiz-adv-x="480" 
d="M481 501l-135 -457q-37 -119 -87.5 -164.5t-149.5 -45.5h-70v140h20q38 0 51.5 8.5t20.5 34.5l3 9l-143 475h200l38 -206l15 -81l13 81l36 206h188zM401 699l-111 -151h-120l54 151h177z" />
    <glyph glyph-name="thorn" unicode="&#xfe;" horiz-adv-x="493" 
d="M475 161q0 -79 -40.5 -124.5t-107.5 -45.5q-63 0 -106 37v-187h-195v831h195v-204q45 42 105 42q66 0 107.5 -48.5t41.5 -123.5v-177zM283 176v147q0 53 -32 53q-31 0 -31 -53v-147q0 -54 31 -54q32 0 32 54z" />
    <glyph glyph-name="ydieresis" unicode="&#xff;" horiz-adv-x="480" 
d="M481 501l-135 -457q-37 -119 -87.5 -164.5t-149.5 -45.5h-70v140h20q38 0 51.5 8.5t20.5 34.5l3 9l-143 475h200l38 -206l15 -81l13 81l36 206h188zM390 542h-131v129h131v-129zM224 542h-132v129h132v-129z" />
    <glyph glyph-name="dotlessi" unicode="&#x131;" horiz-adv-x="247" 
d="M221 0h-195v501h195v-501z" />
    <glyph glyph-name="Lslash" unicode="&#x141;" horiz-adv-x="560" 
d="M555 0h-485v221l-49 -21l-36 86l85 35v345h237v-245l66 28l35 -86l-101 -43v-141h248v-179z" />
    <glyph glyph-name="lslash" unicode="&#x142;" horiz-adv-x="312" 
d="M349 419l-95 -67v-352h-196v213l-36 -26l-50 77l86 62v346h196v-207l45 31z" />
    <glyph glyph-name="OE" unicode="&#x152;" horiz-adv-x="878" 
d="M860 0h-546q-143 0 -216.5 63.5t-73.5 170.5v186q0 110 74 178t216 68h546v-169h-256v-92h163v-131h-163v-95h256v-179zM368 164v339h-41q-64 0 -64 -76v-187q0 -76 64 -76h41z" />
    <glyph glyph-name="oe" unicode="&#x153;" horiz-adv-x="754" 
d="M742 225h-250v-60q0 -41 43 -41q19 0 29 11.5t10 41.5v14h166q1 -92 -53.5 -145.5t-149.5 -53.5q-97 0 -155 61q-53 -61 -145 -61q-101 0 -159.5 58t-58.5 147v106q0 89 58.5 147.5t159.5 58.5q92 0 145 -61q54 61 153 61q95 0 151 -55t56 -138v-91zM554 285v52
q0 42 -31 42t-31 -42v-52h62zM273 172v156q0 24 -7.5 34t-24.5 10q-32 0 -32 -44v-156q0 -44 32 -44q17 0 24.5 10t7.5 34z" />
    <glyph glyph-name="Scaron" unicode="&#x160;" horiz-adv-x="567" 
d="M554 202q0 -94 -69 -157.5t-205 -63.5q-132 0 -202 58t-70 150v30h206v-10q0 -29 16 -46.5t45 -17.5q55 0 55 43q0 20 -32.5 37t-78.5 33.5t-92.5 39t-79 66t-32.5 103.5q0 95 67.5 156t205.5 61q126 0 194 -58.5t68 -149.5v-30h-206v14q0 26 -14.5 44t-41.5 18
q-23 0 -36 -11t-13 -31q0 -23 32.5 -40.5t78.5 -33t92.5 -37.5t79 -64.5t32.5 -102.5zM471 830q-29 0 -56.5 -28.5t-42.5 -78.5h-162q-15 50 -42.5 78.5t-56.5 28.5v41q23 8 58 8q101 0 125 -86q24 86 126 86q28 0 51 -8v-41z" />
    <glyph glyph-name="scaron" unicode="&#x161;" horiz-adv-x="452" 
d="M439 150q0 -65 -54 -111.5t-151 -46.5q-103 0 -164.5 43t-59.5 129h169q0 -49 46 -49q18 0 28.5 9.5t10.5 23.5q0 13 -25.5 23.5t-61.5 21.5t-72.5 27t-62 49.5t-25.5 80.5q0 72 55 115.5t150 43.5q102 0 159 -44.5t55 -132.5h-164q0 54 -46 54q-32 0 -32 -27
q0 -15 25 -27t61 -24.5t72.5 -29.5t61.5 -50t25 -78zM410 658q-29 0 -56.5 -28.5t-42.5 -78.5h-162q-15 50 -42.5 78.5t-56.5 28.5v41q23 8 58 8q101 0 125 -86q24 86 126 86q28 0 51 -8v-41z" />
    <glyph glyph-name="Ydieresis" unicode="&#x178;" horiz-adv-x="614" 
d="M628 666l-206 -422v-244h-237v251l-197 415h254l77 -211l71 211h238zM460 703h-131v129h131v-129zM294 703h-132v129h132v-129z" />
    <glyph glyph-name="Zcaron" unicode="&#x17d;" horiz-adv-x="559" 
d="M550 610l-247 -424h241v-186h-542v56l254 433h-240v177h534v-56zM465 819q-29 0 -56.5 -28.5t-42.5 -78.5h-162q-15 50 -42.5 78.5t-56.5 28.5v41q23 8 58 8q101 0 125 -86q24 86 126 86q28 0 51 -8v-41z" />
    <glyph glyph-name="zcaron" unicode="&#x17e;" horiz-adv-x="425" 
d="M420 445l-179 -300h173v-145h-410v56l181 302h-173v143h408v-56zM402 654q-29 0 -56.5 -28.5t-42.5 -78.5h-162q-15 50 -42.5 78.5t-56.5 28.5v41q23 8 58 8q101 0 125 -86q24 86 126 86q28 0 51 -8v-41z" />
    <glyph glyph-name="florin" unicode="&#x192;" horiz-adv-x="435" 
d="M409 289h-90v-100q0 -104 -55 -156t-178 -52h-53v128h18q34 0 48.5 18.5t14.5 56.5v105h-93v111h93v62q0 104 54.5 155.5t177.5 51.5h50v-128h-15q-34 0 -48 -18t-14 -56v-67h90v-111z" />
    <glyph glyph-name="circumflex" unicode="&#x2c6;" horiz-adv-x="380" 
d="M370 556q-24 -7 -58 -7q-101 0 -125 85q-25 -85 -126 -85q-27 0 -51 7v41q29 0 56.5 29t42.5 79h162q15 -50 42.5 -79t56.5 -29v-41z" />
    <glyph glyph-name="caron" unicode="&#x2c7;" horiz-adv-x="380" 
d="M370 667q-29 0 -56.5 -28.5t-42.5 -78.5h-162q-15 50 -42.5 78.5t-56.5 28.5v41q23 8 58 8q101 0 125 -86q24 86 126 86q28 0 51 -8v-41z" />
    <glyph glyph-name="breve" unicode="&#x2d8;" horiz-adv-x="318" 
d="M309 660q0 -43 -39 -72.5t-111 -29.5q-71 0 -110 29.5t-39 72.5q0 30 12 51h77v-11q0 -44 60 -44q61 0 61 44v11h77q12 -24 12 -51z" />
    <glyph glyph-name="dotaccent" unicode="&#x2d9;" horiz-adv-x="270" 
d="M201 552h-132v129h132v-129z" />
    <glyph glyph-name="ring" unicode="&#x2da;" horiz-adv-x="241" 
d="M234 638q0 -44 -30 -75t-81 -31t-81.5 31t-30.5 75t30.5 75.5t81.5 31.5t81 -31.5t30 -75.5zM162 638q0 19 -10.5 31t-28.5 12q-19 0 -29.5 -12t-10.5 -31t10.5 -30.5t29.5 -11.5q18 0 28.5 11.5t10.5 30.5z" />
    <glyph glyph-name="ogonek" unicode="&#x2db;" horiz-adv-x="249" 
d="M241 -198q-20 -15 -77 -15q-69 0 -107 27t-38 73q0 50 47.5 89t137.5 62l12 -20q-79 -45 -79 -104q0 -60 80 -60h24v-52z" />
    <glyph glyph-name="tilde" unicode="&#x2dc;" horiz-adv-x="371" 
d="M361 657q0 -42 -23.5 -69.5t-72.5 -27.5q-36 0 -82.5 21.5t-59.5 21.5q-30 0 -30 -28v-11h-67q-16 22 -16 55q0 42 26 70t75 28q36 0 82 -20.5t56 -20.5q29 0 29 27v10h69q14 -20 14 -56z" />
    <glyph glyph-name="hungarumlaut" unicode="&#x2dd;" horiz-adv-x="339" 
d="M358 702l-107 -151h-98l75 151h130zM194 702l-88 -151h-97l57 151h128z" />
    <glyph glyph-name="Omega" unicode="&#x3a9;" horiz-adv-x="684" 
d="M684 357h-89v-357h-195v357h-124v-357h-196v357h-73v132h75v9q0 88 50.5 133.5t169.5 45.5h51v-126h-15q-36 0 -50.5 -12.5t-14.5 -40.5v-9h128v9q0 88 51 133.5t170 45.5h51v-126h-15q-36 0 -50.5 -12.5t-14.5 -40.5v-9h91v-132z" />
    <glyph glyph-name="pi" unicode="&#x3c0;" horiz-adv-x="741" 
d="M722 333q0 -147 -101 -249.5t-250 -102.5q-150 0 -251 102.5t-101 249.5t101 249.5t251 102.5q149 0 250 -102.5t101 -249.5zM663 333q0 126 -82 212.5t-210 86.5t-210.5 -86.5t-82.5 -212.5t82.5 -212t210.5 -86t210 86t82 212zM533 377q0 -43 -29 -69.5t-80 -26.5h-62
v-118h-117v344h179q51 0 80 -26t29 -68v-36zM420 371v34q0 24 -27 24h-31v-83h31q27 0 27 25z" />
    <glyph glyph-name="endash" unicode="&#x2013;" horiz-adv-x="525" 
d="M472 225h-418v135h418v-135z" />
    <glyph glyph-name="emdash" unicode="&#x2014;" horiz-adv-x="813" 
d="M747 225h-693v135h693v-135z" />
    <glyph glyph-name="quoteleft" unicode="&#x2018;" horiz-adv-x="207" 
d="M186 383h-163v142q0 73 42.5 111.5t120.5 38.5v-44q-31 0 -48 -20.5t-17 -56.5h65v-171z" />
    <glyph glyph-name="quoteright" unicode="&#x2019;" horiz-adv-x="207" 
d="M185 529q0 -74 -42.5 -112.5t-120.5 -38.5v44q31 0 48 20.5t17 56.5h-65v171h163v-141z" />
    <glyph glyph-name="quotesinglbase" unicode="&#x201a;" horiz-adv-x="207" 
d="M185 30q0 -74 -42.5 -112.5t-120.5 -38.5v44q31 0 48 20.5t17 56.5h-65v171h163v-141z" />
    <glyph glyph-name="quotedblleft" unicode="&#x201c;" horiz-adv-x="397" 
d="M376 383h-163v142q0 73 42.5 111.5t120.5 38.5v-44q-31 0 -48 -20.5t-17 -56.5h65v-171zM186 383h-163v142q0 73 42.5 111.5t120.5 38.5v-44q-31 0 -48 -20.5t-17 -56.5h65v-171z" />
    <glyph glyph-name="quotedblright" unicode="&#x201d;" horiz-adv-x="397" 
d="M375 529q0 -74 -42.5 -112.5t-120.5 -38.5v44q31 0 48 20.5t17 56.5h-65v171h163v-141zM185 529q0 -74 -42.5 -112.5t-120.5 -38.5v44q31 0 48 20.5t17 56.5h-65v171h163v-141z" />
    <glyph glyph-name="quotedblbase" unicode="&#x201e;" horiz-adv-x="397" 
d="M375 30q0 -74 -42.5 -112.5t-120.5 -38.5v44q31 0 48 20.5t17 56.5h-65v171h163v-141zM185 30q0 -74 -42.5 -112.5t-120.5 -38.5v44q31 0 48 20.5t17 56.5h-65v171h163v-141z" />
    <glyph glyph-name="dagger" unicode="&#x2020;" horiz-adv-x="412" 
d="M411 407q0 -16 -19 -16q-23 0 -74.5 4.5t-76.5 11.5q7 -23 13 -74t6 -83q0 -160 -16 -299q0 -19 -16 -19h-44q-14 0 -16 19q-16 139 -16 299q0 32 6 83t13 74q-25 -7 -76.5 -11.5t-74.5 -4.5q-19 0 -19 16v69q0 16 19 16q91 0 151 -15q-7 24 -11.5 86.5t-4.5 87.5
q0 19 16 19h70q17 0 17 -19q0 -23 -5 -86.5t-11 -87.5q58 15 150 15q19 0 19 -16v-69z" />
    <glyph glyph-name="daggerdbl" unicode="&#x2021;" horiz-adv-x="412" 
d="M411 126q0 -16 -19 -16q-88 0 -150 16q6 -25 11 -88.5t5 -86.5q0 -19 -17 -19h-70q-16 0 -16 19q0 25 4.5 87.5t11.5 87.5q-64 -16 -151 -16q-19 0 -19 16v70q0 16 19 16q23 0 73 -4.5t75 -11.5q-13 54 -13 105t13 106q-25 -7 -75 -11.5t-73 -4.5q-19 0 -19 16v69
q0 16 19 16q91 0 151 -15q-7 24 -11.5 86.5t-4.5 87.5q0 19 16 19h70q17 0 17 -19q0 -23 -5 -86.5t-11 -87.5q58 15 150 15q19 0 19 -16v-69q0 -16 -19 -16q-23 0 -73 4.5t-75 11.5q14 -53 14 -106q0 -54 -14 -105q25 7 75 11.5t73 4.5q19 0 19 -16v-70z" />
    <glyph glyph-name="bullet" unicode="&#x2022;" horiz-adv-x="362" 
d="M335 333q0 -70 -43 -113t-111 -43t-111.5 43t-43.5 113t43.5 113t111.5 43q67 0 110.5 -43t43.5 -113z" />
    <glyph glyph-name="ellipsis" unicode="&#x2026;" horiz-adv-x="614" 
d="M592 0h-163v171h163v-171zM388 0h-163v171h163v-171zM185 0h-163v171h163v-171z" />
    <glyph glyph-name="perthousand" unicode="&#x2030;" horiz-adv-x="1020" 
d="M309 461q0 -61 -40 -99.5t-106 -38.5t-106.5 38.5t-40.5 99.5v84q0 61 40.5 100.5t106.5 39.5t106 -39t40 -101v-84zM611 648l-469 -677l-59 47l471 677zM1005 120q0 -61 -40 -100t-106 -39t-106 39t-40 100v84q0 61 40 100t106 39t106 -39t40 -100v-84zM682 120
q0 -61 -40 -100t-106 -39t-106 39t-40 100v84q0 61 40 100t106 39t106 -39t40 -100v-84zM187 443v121q0 28 -24 28q-26 0 -26 -28v-120q0 -30 26 -30q11 0 17.5 8t6.5 21zM884 102v121q0 29 -25 29q-11 0 -18 -8t-7 -21v-121q0 -28 25 -28t25 28zM561 102v121q0 29 -25 29
q-11 0 -18 -8t-7 -21v-121q0 -28 25 -28t25 28z" />
    <glyph glyph-name="guilsinglleft" unicode="&#x2039;" horiz-adv-x="273" 
d="M251 0h-78q-35 122 -154 162v90q119 38 154 162h78q-2 -78 -20 -126.5t-63 -80.5q45 -32 63 -80.5t20 -126.5z" />
    <glyph glyph-name="guilsinglright" unicode="&#x203a;" horiz-adv-x="273" 
d="M254 162q-119 -40 -154 -162h-78q2 78 20 126.5t63 80.5q-45 32 -63 80.5t-20 126.5h78q35 -123 154 -162v-90z" />
    <glyph glyph-name="fraction" unicode="&#x2044;" horiz-adv-x="114" 
d="M343 701l-507 -798l-62 44l506 799z" />
    <glyph glyph-name="trademark" unicode="&#x2122;" horiz-adv-x="474" 
d="M440 441h-57v150l-11 -46l-30 -104h-41l-29 104l-12 46v-150h-52v225h80l29 -107l8 -35l8 35l29 107h78v-225zM184 618h-57v-177h-59v177h-57v48h173v-48z" />
    <glyph glyph-name="product" unicode="&#x220f;" horiz-adv-x="593" 
d="M363 0l-66 238h-30v-238h-237v666h335q96 0 153 -45.5t57 -128.5v-92q0 -80 -77 -114l99 -286h-234zM267 364h36q39 0 39 39v68q0 20 -9 29t-30 9h-36v-145z" />
    <glyph glyph-name="radical" unicode="&#x221a;" horiz-adv-x="931" 
d="M684 357h-89v-357h-195v357h-124v-357h-196v357h-73v132h75v9q0 88 50.5 133.5t169.5 45.5h51v-126h-15q-36 0 -50.5 -12.5t-14.5 -40.5v-9h128v9q0 88 51 133.5t170 45.5h51v-126h-15q-36 0 -50.5 -12.5t-14.5 -40.5v-9h91v-132zM905 0h-195v672h195v-672z" />
    <glyph glyph-name="approxequal" unicode="&#x2248;" horiz-adv-x="931" 
d="M905 533h-195v143h195v-143zM684 357h-89v-357h-195v357h-124v-357h-196v357h-73v132h75v9q0 88 50.5 133.5t169.5 45.5h51v-126h-15q-36 0 -50.5 -12.5t-14.5 -40.5v-9h128v9q0 88 51 133.5t170 45.5h51v-126h-15q-36 0 -50.5 -12.5t-14.5 -40.5v-9h91v-132zM905 0h-195
v501h195v-501z" />
    <glyph glyph-name="notequal" unicode="&#x2260;" horiz-adv-x="494" 
d="M470 0h-446v472h446v-472z" />
    <glyph glyph-name="lessequal" unicode="&#x2264;" horiz-adv-x="413" 
d="M367 69l-343 173v13l343 172v-358z" />
    <glyph glyph-name="greaterequal" unicode="&#x2265;" horiz-adv-x="413" 
d="M389 242l-343 -173v358l343 -172v-13z" />
    <glyph glyph-name="apple" unicode="&#xf8ff;" horiz-adv-x="967" 
d="M868 0h-767v750h767v-750zM859 -104h-6l-3 20l-10 -21h-2l-10 21l-3 -20h-6l6 34h1l13 -26l13 26h1zM806 -87q0 -18 -17 -18q-7 0 -12 5t-5 12q0 18 18 18q7 0 11.5 -5t4.5 -12zM758 -96l-1 -6q-3 -3 -10 -3q-18 0 -18 17q0 8 5.5 13t12.5 5t11 -3l-2 -5q-3 3 -9 3
q-12 0 -12 -12q0 -13 13 -13q4 0 10 4zM702 -71l-13 -19v-14h-6v14l-14 19l6 1l11 -15l9 14h7zM656 -104h-6v15h-16v-15h-6v33h6v-13h16v13h6v-33zM612 -82q0 -12 -17 -12v-10h-6v33q23 3 23 -11zM576 -104h-6l-4 8h-14l-3 -8h-6l15 34h2zM534 -104h-7l-8 11h-5v-11h-6v33
q23 3 23 -10q0 -7 -7 -10zM491 -101q-6 -4 -13 -4q-18 0 -18 17q0 8 5.5 13t13.5 5q6 0 12 -4l-2 -5q-4 4 -11 4q-12 0 -12 -13q0 -12 13 -12q2 0 6 2v7h-9v5h15v-15zM447 -87q0 -18 -17 -18q-7 0 -12 5t-5 12q0 18 18 18q7 0 11.5 -5t4.5 -12zM400 -82q0 -12 -17 -12v-10
h-6v33q23 3 23 -11zM364 -71l-13 -19v-14h-6v14l-14 19l6 1l11 -15l9 14h7zM323 -71v-5h-12v-28h-6v28h-12v5h30zM267 -71l-12 -34h-1l-11 23l-10 -23h-1l-12 34l6 1l7 -23l10 23h1l10 -23l7 22h6zM211 -71l-12 -34h-1l-11 23l-10 -23h-1l-12 34l6 1l7 -23l10 23h1l10 -23
l7 22h6zM155 -71l-12 -34h-1l-11 23l-10 -23h-1l-12 34l6 1l7 -23l10 23h1l10 -23l7 22h6zM716 -101q0 -4 -4 -4t-4 4t4 4t4 -4zM284 -101q0 -4 -4 -4t-4 4t4 4t4 -4zM559 686q0 8 -1 12q-2 -1 -17 -1t-18 1l-1 -12h2q4 9 10 9q3 0 3 -3v-23q-1 -5 -5 -5v-2h17v2l-4 2
q-1 1 -1 3v23q0 3 3 3t5.5 -2.5t3.5 -4.5l1 -2h2zM504 662v2q-6 -1 -6 5v21l6 5v2h-18v-1v-1l4 -2q1 -1 1 -3v-9h-17v9q1 5 5 5v1v1h-17v-2l4 -2q1 -1 1 -3v-21l-5 -5v-2h17v2q-5 0 -5 5v10h17v-10q-1 -5 -5 -5v-2h18zM439 664l-4 2q-1 1 -1 3v21q1 5 5 5v2h-29l-2 -10l2 -1
q3 8 9 8h4q4 0 4 -3v-10h-4l-6 5h-2v-13h2q0 6 6 6h4v-11q0 -3 -4 -3h-4q-3 0 -5.5 2.5t-3.5 4.5l-1 2l-2 -1l2 -11h30v2zM827 618v6h-685v-6h685zM696 540q0 15 -11.5 26.5t-25.5 11.5q-8 0 -15.5 -5.5t-7.5 -16.5q0 -16 11 -27t26 -11q8 0 15.5 5.5t7.5 16.5zM589 537
q0 12 -14 17q5 3 5 9q0 15 -21 15q-13 0 -13 -11q0 -6 5 -6q4 0 4 3q0 2 -1.5 3.5t-1.5 2.5q0 5 7 5q10 0 10 -12q0 -4 -2 -6q-16 2 -16 -6q0 -6 8 -6q6 0 11 5q6 -4 6 -15q0 -14 -12 -14t-12 9q0 3 3 3l1 -1q2 -1 4 -1q4 0 4 5t-7 5q-9 0 -9 -10q0 -13 16 -13q25 0 25 19z
M295 537q0 12 -14 17q5 3 5 9q0 15 -21 15q-13 0 -13 -11q0 -6 5 -6q4 0 4 3q0 2 -1.5 3.5t-1.5 2.5q0 5 7 5q10 0 10 -12q0 -4 -2 -6q-16 2 -16 -6q0 -6 8 -6q6 0 11 5q6 -4 6 -15q0 -14 -12 -14t-12 9q0 3 3 3l1 -1q2 -1 4 -1q4 0 4 5t-7 5q-9 0 -9 -10q0 -13 16 -13
q25 0 25 19zM820 522q-8 -1 -10 8l-7 35q-1 4 1 6t4 2h2l-1 3h-28l1 -3q7 1 9 -8l3 -15h-24l-3 15q-1 4 1 6t4 2h2l-1 3h-29l1 -3q8 1 10 -8l7 -35q1 -4 -1 -6t-4 -2h-2l1 -3h29l-1 3q-8 -1 -10 8l-3 16h24l3 -16q1 -4 -1 -6t-4 -2h-2l1 -3h29zM498 519l-1 3q-8 -1 -10 8
l-7 35q-1 4 1 6t4 2h2l-1 3h-45v-17h4q-1 13 13 13h4q5 0 6 -6l3 -16h-4q-4 0 -7 2t-4 4l-1 3h-3l5 -23h3q-1 11 8 11h4l3 -17q1 -4 -1 -6t-4 -2h-2l1 -3h29zM202 522q-8 -1 -10 8l-7 35q-1 4 1 6t4 2h2l-1 3h-27q-20 0 -20 -15q0 -13 19 -15l-9 -16q-2 -4 -5.5 -6t-6.5 -2
h-2l1 -3h19l12 23q2 3 5 3l3 -15q1 -4 -1 -6t-4 -2h-2l1 -3h29zM400 521q0 8 -13 9q-4 2 -5 14.5t-5.5 23t-18.5 10.5q-5 0 -9 -3.5t-4 -6.5q0 -5 5 -5q4 0 4 6t5 6t7 -8t4.5 -19.5t9.5 -17.5q-8 0 -14 -6.5t-9 -6.5q-5 0 -5 4q0 2 1 3t1 2q0 5 -5 5t-5 -7q0 -4 5 -8t10 -4
q10 0 15 6.5t10 6.5q4 -7 12 -7q4 0 4 3zM827 475v6h-685v-6h685zM827 378v62h-147v-62h36v28h11v-65h-14v-33h81v33h-14v65h11v-28h36zM648 406v34h-81v-34h11l-15 -23l-15 23h10v34h-62v-34h12l37 -46v-19h-14v-33h81v33h-15v20l37 45h14zM458 308v33h-14v65h14v34h-96
q-21 0 -34 -11.5t-13 -28.5q0 -18 13 -29t34 -11h30v-19h-15v-33h81zM283 308v33h-14v65h14v34h-141v-62h41v28h33v-20h-24v-24h24v-21h-33v28h-41v-61h141zM827 271v6h-685v-6h685zM728 192q0 15 -11.5 26.5t-25.5 11.5q-8 0 -15.5 -5.5t-7.5 -16.5q0 -16 11 -27t26 -11
q8 0 15.5 5.5t7.5 16.5zM203 217q-7 13 -18 13q-15 0 -14 -23q-7 23 -21 23q-12 0 -12 -12l3 -1q0 6 8 6q16 0 24 -33q2 -8 0.5 -11.5t-3.5 -3.5h-3l1 -4h28l-1 4q-7 -2 -10 9q-5 17 -5 25q0 13 9 13q5 0 12 -7zM823 171l-1 3q-8 -1 -10 8l-7 35q-1 4 1 6t4 2h2l-1 3h-45
v-17h4q-1 13 13 13h4q5 0 6 -6l3 -16h-4q-4 0 -7 2t-4 4l-1 3h-3l5 -23h3q-1 11 8 11h4l3 -17q1 -4 -1 -6t-4 -2h-2l1 -3h29zM621 225l-1 3h-29l1 -3q8 1 10 -9l5 -21q5 -20 -11 -20q-14 0 -20 22l-4 19q-1 5 1 7t4 2h2v3h-24l1 -3q9 1 11 -9l4 -19q5 -27 28 -27q24 0 19 24
l-5 22q-1 5 1 7t4 2h3zM522 174q-6 0 -9 10l-7 32q-1 4 1 6.5t5 2.5h2l-1 3h-14l-29 -42l-5 30q-1 4 1 6t4 2l2 1l-1 3h-21l1 -3q7 0 9 -9l8 -45l3 -1l30 44l6 -30q1 -5 -0.5 -7.5t-3.5 -2.5h-2l1 -3h21zM414 171l-1 4q-7 -2 -10 9l-8 31q-3 9 8 10l-1 3h-30q-25 0 -25 -22
q0 -15 11 -25t24 -10h32zM306 174q-8 -1 -10 8l-7 35q-1 4 1 6t4 2h2l-1 3h-27q-20 0 -20 -15q0 -13 19 -15l-9 -16q-2 -4 -5.5 -6t-6.5 -2h-2l1 -3h19l12 23q2 3 5 3l3 -15q1 -4 -1 -6t-4 -2h-2l1 -3h29zM827 127v6h-685v-6h685zM694 46v2q-6 1 -6 5v20l6 6v2h-10l-24 -26
v18q0 2 1.5 3.5t2.5 1.5l2 1v2h-15v-2q6 -1 6 -6v-28h3l25 28v-20l-5 -5v-2h14zM633 48l-4 2q-1 1 -1 3v21q1 5 5 5v2h-29l-2 -10l2 -1q3 8 9 8h4q4 0 4 -3v-10h-4l-6 5h-2v-13h2q0 6 6 6h4v-11q0 -3 -4 -3h-4q-3 0 -5.5 2.5t-3.5 4.5l-1 2l-2 -1l2 -11h30v2zM583 81h-15v-2
l2 -5l-9 -19l-5 10l4 8l6 6v2h-26l1 -2q3 0 7 -6l3 -5l-7 -13l-8 18l2 6v2h-13v-2q4 -1 6 -6l13 -27h1q1 -1 1 0l8 16l9 -16h1l12 27q1 3 3 4.5t3 1.5h1v2zM480 79v2h-15v-2l1 -5l-6 -9l-6 9l3 5v2h-15v-2q5 0 8 -5l8 -12v-8l-5 -6v-2h17v2q-5 0 -5 6v8l8 12zM425 64
q0 18 -20 18t-20 -18q0 -19 20 -19t20 19zM364 46v2q-5 0 -5 5v20l5 6v2h-18q-13 0 -13 -9q0 -5 9 -9l-7 -10l-8 -5v-2h11l7 12q3 4 7 4v-9l-5 -5v-2h17zM309 46v2q-6 1 -6 6v20l6 5v2h-18v-2q6 0 6 -5v-9q-2 0 -4 2l-8 8l1 4v2h-14v-2q5 -1 8 -4l10 -9l-13 -13l-7 -5v-2h17
v2l-2 5l8 8q2 2 4 2v-9q0 -3 -1.5 -4.5t-3.5 -1.5h-1v-2h18zM606 -83q0 8 -11 7v-13q11 0 11 6zM525 -82q0 8 -11 6v-12q11 -1 11 6zM394 -83q0 8 -11 7v-13q11 0 11 6zM564 -92l-5 12l-5 -12h10zM800 -88q0 13 -11 13t-11 -12q0 -13 11 -13t11 12zM441 -88q0 13 -11 13
t-11 -12q0 -13 11 -13t11 12zM176 548h-5q-15 0 -15 15q0 9 8 9t9 -5zM566 553q-3 -4 -7 -4t-4 2q0 3 4 3q5 0 7 -1zM272 553q-3 -4 -7 -4t-4 2q0 3 4 3q5 0 7 -1zM684 535q0 -13 -11 -13q-9 0 -17 11.5t-8 26.5q0 14 11 14q9 0 17 -12t8 -27zM392 384h-11q-13 0 -13 11
t13 11h11v-22zM280 200h-5q-15 0 -15 15q0 9 8 9t9 -5zM716 187q0 -13 -11 -13q-9 0 -17 11.5t-8 26.5q0 14 11 14q9 0 17 -12t8 -27zM393 182q0 -7 -4 -7h-5q-11 0 -18.5 10t-7.5 22q0 17 14 17h6q4 -1 6 -7zM553 79q5 0 0 -9q-5 9 0 9zM352 64h-3q-8 0 -8 8q0 6 7 6
q4 0 4 -4v-10zM417 64q0 -17 -12 -17t-12 17q0 16 12 16t12 -16z" />
    <glyph glyph-name="fi" unicode="&#xfb01;" horiz-adv-x="612" 
d="M586 533h-195v143h195v-143zM365 357h-89v-357h-196v357h-73v132h75v9q0 88 50.5 133.5t169.5 45.5h51v-126h-15q-36 0 -50.5 -12.5t-14.5 -40.5v-9h92v-132zM586 0h-195v501h195v-501z" />
    <glyph glyph-name="fl" unicode="&#xfb02;" horiz-adv-x="612" 
d="M365 357h-89v-357h-196v357h-73v132h75v9q0 88 50.5 133.5t169.5 45.5h51v-126h-15q-36 0 -50.5 -12.5t-14.5 -40.5v-9h92v-132zM586 0h-195v672h195v-672z" />
    </font>
</defs>
</svg>
