<?xml version="1.0" encoding="UTF-8"?>
<svg width="118px" height="136px" viewBox="0 0 118 136" version="1.1" xmlns="http://www.w3.org/2000/svg" xmlns:xlink="http://www.w3.org/1999/xlink">
    <!-- Generator: Sketch 55.2 (78181) - https://sketchapp.com -->
    <title>argentina</title>
    <desc>Created with Sketch.</desc>
    <g id="Page-1" stroke="none" stroke-width="1" fill="none" fill-rule="evenodd">
        <g id="argentina">
            <polygon id="Fill-1" fill="#F7F300" points="58.9979 -0.0001 -0.0001 33.9559 -0.0001 101.8709 58.9999 135.8269 117.9999 101.8709 117.9999 33.9559 59.0009 -0.0001"></polygon>
            <polygon id="Fill-2" fill="#E9E9E9" points="0 90.199 118 90.199 118 45.199 0 45.199"></polygon>
            <polygon id="Fill-3" fill="#71B1E5" points="58.9979 -0.0001 -0.0001 33.9559 -0.0001 45.1989 117.9999 45.1989 117.9999 33.9559 59.0009 -0.0001"></polygon>
            <polygon id="Fill-4" fill="#71B1E5" points="0 90.1988 0 101.8708 58.999 135.8268 118 101.8708 118 90.1988"></polygon>
            <polygon id="Fill-5" fill="#FFFFFF" points="0 90.199 58.999 90.199 58.999 45.199 0 45.199"></polygon>
            <polygon id="Fill-6" fill="#8EC1EB" points="58.9979 -0.0001 -0.0001 33.9559 -0.0001 45.1989 58.9999 45.1989 58.9999 -0.0001"></polygon>
            <polygon id="Fill-7" fill="#8EC1EB" points="0 90.1988 0 101.8708 58.999 135.8268 58.999 90.1988"></polygon>
            <g id="Group-248" transform="translate(42.000000, 50.827000)">
                <path d="M16.1966,17.1343 L16.7996,33.1543 C16.7996,33.1543 16.7996,33.4533 17.0006,33.4533 C17.2016,33.4533 17.2016,33.1543 17.2016,33.1543 L17.8046,17.1343" id="Fill-8" fill="#F6E700"></path>
                <path d="M17.0004,33.5708 C16.8294,33.5708 16.7404,33.4318 16.7134,33.3408 L16.6824,33.1568 L16.0794,17.1378 L16.3124,17.1288 L16.9154,33.1538 L16.9344,33.2668 L17.0004,33.3368 L17.0654,33.2668 L17.0844,33.1468 L17.6874,17.1288 L17.9204,17.1378 L17.3164,33.1538 L17.2864,33.3408 C17.2614,33.4318 17.1704,33.5708 17.0014,33.5708 L17.0004,33.5708 Z" id="Fill-10" fill="#B1B398"></path>
                <polyline id="Fill-12" fill="#B1B398" points="16.598 17.1343 17 28.1303 17.402 17.1343"></polyline>
                <path d="M15.4852,22.3091 C14.5632,24.3251 15.3562,25.9721 14.4342,27.7321 C13.5112,29.4911 14.0882,30.9421 14.0272,31.7471 C13.9652,32.5571 13.3042,32.7811 13.4702,32.9681 C13.6382,33.1551 14.3292,32.7851 14.5992,31.7101 C14.8662,30.6391 14.2242,30.0201 15.3302,27.8621 C16.4352,25.7051 15.5572,24.7321 16.6652,22.8051" id="Fill-14" fill="#F6E700"></path>
                <path d="M13.3851,33.0464 L13.3261,32.9024 C13.3501,32.7044 13.4961,32.6324 13.6231,32.4544 C13.7531,32.2874 13.8841,32.0704 13.9111,31.7414 L13.9131,31.6134 C13.9161,31.2044 13.7881,30.6164 13.7881,29.9114 C13.7881,29.2584 13.9001,28.4974 14.3301,27.6784 C15.2331,25.9834 14.4421,24.3314 15.3801,22.2604 L15.5911,22.3574 C14.6831,24.3174 15.4791,25.9614 14.5371,27.7854 C14.1281,28.5674 14.0201,29.2834 14.0201,29.9114 C14.0201,30.5904 14.1461,31.1614 14.1471,31.6134 L14.1421,31.7574 C14.0941,32.4304 13.6311,32.7584 13.5671,32.8884 L13.5651,32.8944 L13.5911,32.8984 C13.7521,32.9124 14.2761,32.5484 14.4851,31.6834 C14.5401,31.4644 14.5541,31.2644 14.5541,31.0624 C14.5541,30.8204 14.5331,30.5744 14.5331,30.2904 C14.5311,29.7004 14.6331,28.9634 15.2261,27.8094 C16.3151,25.7074 15.4331,24.7334 16.5651,22.7464 L16.7661,22.8634 C15.6791,24.7284 16.5541,25.7024 15.4331,27.9154 C14.8551,29.0464 14.7651,29.7294 14.7641,30.2904 C14.7641,30.5624 14.7871,30.8064 14.7871,31.0624 C14.7871,31.2754 14.7711,31.4974 14.7101,31.7404 C14.4691,32.6654 13.9551,33.1144 13.5911,33.1304 L13.5891,33.1304 L13.3851,33.0464 Z" id="Fill-16" fill="#B1B398"></path>
                <path d="M15.7406,22.8228 C15.0246,24.8288 15.7786,26.1608 14.8176,27.8618 C15.8856,26.6438 15.1816,25.0658 16.1146,23.0008" id="Fill-18" fill="#B1B398"></path>
                <path d="M17.8046,17.1343 L17.2016,1.1153 C17.2016,1.1153 17.2016,0.8133 17.0006,0.8133 C16.7996,0.8133 16.7996,1.1153 16.7996,1.1153 L16.1966,17.1343" id="Fill-20" fill="#F6E700"></path>
                <path d="M17.0848,1.1158 L17.0658,1.0008 L16.9998,0.9298 L16.9348,1.0008 L16.9158,1.1198 L16.3138,17.1378 L16.0798,17.1288 L16.6838,1.1158 L16.7138,0.9268 C16.7388,0.8348 16.8298,0.6958 16.9998,0.6958 C17.1698,0.6958 17.2598,0.8348 17.2878,0.9268 L17.3178,1.1098 L17.9198,17.1288 L17.6878,17.1378 L17.0848,1.1158 Z" id="Fill-22" fill="#B1B398"></path>
                <polyline id="Fill-24" fill="#B1B398" points="17.4022 17.1343 17.0002 6.1373 16.5982 17.1343"></polyline>
                <path d="M18.5145,11.9585 C19.4365,9.9425 18.6435,8.2955 19.5655,6.5365 C20.4885,4.7755 19.9115,3.3265 19.9735,2.5195 C20.0355,1.7125 20.6965,1.4875 20.5295,1.2995 C20.3615,1.1115 19.6705,1.4845 19.4015,2.5565 C19.1335,3.6295 19.7755,4.2465 18.6715,6.4055 C17.5645,8.5625 18.4435,9.5365 17.3345,11.4625" id="Fill-26" fill="#F6E700"></path>
                <path d="M18.4086,11.9097 C19.3166,9.9497 18.5206,8.3067 19.4626,6.4817 C19.8716,5.6987 19.9766,4.9827 19.9786,4.3547 C19.9796,3.6767 19.8516,3.1027 19.8506,2.6527 L19.8576,2.5097 C19.9056,1.8367 20.3676,1.5107 20.4316,1.3787 L20.4346,1.3727 L20.4086,1.3687 C20.2486,1.3537 19.7226,1.7187 19.5136,2.5857 C19.4596,2.8057 19.4446,3.0027 19.4446,3.2047 C19.4446,3.4457 19.4656,3.6917 19.4656,3.9757 C19.4676,4.5657 19.3656,5.3047 18.7736,6.4587 C17.6856,8.5597 18.5666,9.5327 17.4356,11.5207 L17.2336,11.4037 C18.3206,9.5387 17.4446,8.5647 18.5666,6.3507 C19.1436,5.2207 19.2336,4.5387 19.2336,3.9757 C19.2336,3.7057 19.2116,3.4607 19.2116,3.2047 C19.2116,2.9917 19.2286,2.7697 19.2886,2.5287 C19.5296,1.6007 20.0436,1.1517 20.4086,1.1367 L20.6166,1.2227 L20.6726,1.3637 C20.6496,1.5617 20.5026,1.6347 20.3756,1.8127 C20.2456,1.9787 20.1156,2.1957 20.0896,2.5297 L20.0846,2.6527 C20.0826,3.0597 20.2106,3.6497 20.2106,4.3547 C20.2106,5.0087 20.0996,5.7687 19.6696,6.5907 C18.7676,8.2837 19.5576,9.9347 18.6196,12.0077 L18.4086,11.9097 Z" id="Fill-28" fill="#B1B398"></path>
                <path d="M18.2601,11.4458 C18.9751,9.4388 18.2221,8.1068 19.1821,6.4068 C18.1141,7.6258 18.8201,9.2028 17.8861,11.2658" id="Fill-30" fill="#B1B398"></path>
                <path d="M17.0004,16.3296 L0.9814,16.9326 C0.9814,16.9326 0.6804,16.9326 0.6804,17.1346 C0.6804,17.3346 0.9814,17.3346 0.9814,17.3346 L17.0004,17.9366" id="Fill-32" fill="#F6E700"></path>
                <path d="M0.9818,17.4517 L0.7938,17.4207 C0.7018,17.3937 0.5638,17.3047 0.5638,17.1327 C0.5638,16.9637 0.7018,16.8737 0.7938,16.8467 L0.9768,16.8147 L16.9958,16.2127 L16.9958,16.2157 L17.0038,16.4457 L0.9818,17.0497 L0.8668,17.0667 L0.7958,17.1327 L0.8668,17.1997 L0.9858,17.2187 L17.0048,17.8207 L16.9958,18.0547 L0.9818,17.4517 Z" id="Fill-34" fill="#B1B398"></path>
                <polyline id="Fill-36" fill="#B1B398" points="17.0004 16.732 6.0024 17.134 17.0004 17.535"></polyline>
                <path d="M11.8251,15.6197 C9.8091,14.6957 8.1611,15.4907 6.4021,14.5677 C4.6431,13.6447 3.1931,14.2227 2.3851,14.1607 C1.5771,14.0987 1.3531,13.4367 1.1661,13.6037 C0.9791,13.7707 1.3501,14.4637 2.4241,14.7317 C3.4951,15.0007 4.1141,14.3577 6.2711,15.4637 C8.4291,16.5687 9.4021,15.6907 11.3281,16.7987" id="Fill-38" fill="#F6E700"></path>
                <path d="M6.2186,15.5679 C5.0866,14.9889 4.4026,14.9009 3.8426,14.9009 C3.5716,14.8989 3.3266,14.9209 3.0706,14.9209 C2.8576,14.9219 2.6356,14.9059 2.3946,14.8439 C1.4676,14.6019 1.0176,14.0889 1.0036,13.7239 L1.0876,13.5189 L1.2316,13.4619 C1.4276,13.4839 1.5016,13.6309 1.6786,13.7559 C1.8446,13.8879 2.0626,14.0169 2.3936,14.0439 L2.5186,14.0469 C2.9276,14.0489 3.5156,13.9229 4.2206,13.9209 C4.8756,13.9209 5.6356,14.0339 6.4556,14.4639 C8.1496,15.3659 9.8016,14.5779 11.8736,15.5139 L11.7756,15.7249 C9.8166,14.8169 8.1726,15.6119 6.3486,14.6709 C5.5636,14.2599 4.8486,14.1549 4.2206,14.1549 C3.5426,14.1549 2.9696,14.2789 2.5186,14.2809 L2.3766,14.2779 C1.7026,14.2269 1.3756,13.7649 1.2446,13.7029 L1.2396,13.6989 L1.2366,13.7239 C1.2206,13.8839 1.5846,14.4089 2.4506,14.6189 C2.6696,14.6739 2.8696,14.6889 3.0706,14.6889 C3.3116,14.6889 3.5586,14.6669 3.8426,14.6669 C4.4316,14.6649 5.1696,14.7669 6.3246,15.3599 C8.4266,16.4489 9.3996,15.5679 11.3876,16.6989 L11.2706,16.9009 C9.4046,15.8119 8.4306,16.6899 6.2186,15.5679" id="Fill-40" fill="#B1B398"></path>
                <path d="M11.3119,15.8736 C9.3049,15.1576 7.9739,15.9126 6.2729,14.9506 C7.4899,16.0186 9.0679,15.3156 11.1329,16.2486" id="Fill-42" fill="#B1B398"></path>
                <path d="M17.0004,17.9371 L33.0194,17.3341 C33.0194,17.3341 33.3204,17.3341 33.3204,17.1341 C33.3204,16.9321 33.0194,16.9321 33.0194,16.9321 L17.0004,16.3301" id="Fill-44" fill="#F6E700"></path>
                <path d="M16.9955,17.8208 L33.0195,17.2178 L33.1325,17.1998 L33.2035,17.1328 L33.1325,17.0698 L33.0135,17.0498 L16.9955,16.4458 L17.0045,16.2158 L33.0195,16.8178 L33.2065,16.8458 C33.2995,16.8738 33.4375,16.9638 33.4365054,17.1328 C33.4375,17.3028 33.2995,17.3938 33.2065,17.4208 L33.0235,17.4518 L17.0055,18.0538 L16.9955,17.8208 Z" id="Fill-46" fill="#B1B398"></path>
                <polyline id="Fill-48" fill="#B1B398" points="17.0004 17.5347 27.9974 17.1347 17.0004 16.7317"></polyline>
                <path d="M22.1747,18.648 C24.1917,19.571 25.8387,18.779 27.5987,19.7 C29.3577,20.623 30.8077,20.044 31.6147,20.106 C32.4227,20.169 32.6467,20.83 32.8337,20.664 C33.0217,20.496 32.6507,19.806 31.5777,19.535 C30.5047,19.266 29.8877,19.91 27.7287,18.804 C25.5707,17.698 24.5977,18.577 22.6717,17.468" id="Fill-50" fill="#F6E700"></path>
                <path d="M32.7684,20.8052 C32.5724,20.7832 32.4974,20.6372 32.3204,20.5102 C32.1534,20.3782 31.9364,20.2492 31.6044,20.2232 L31.4794,20.2192 C31.0714,20.2172 30.4834,20.3462 29.7794,20.3462 C29.1244,20.3462 28.3654,20.2332 27.5434,19.8022 C25.8494,18.9012 24.1984,19.6922 22.1264,18.7522 L22.2234,18.5412 C24.1834,19.4512 25.8274,18.6552 27.6524,19.5962 C28.4354,20.0062 29.1514,20.1132 29.7794,20.1132 C30.4564,20.1132 31.0294,19.9862 31.4794,19.9862 L31.6244,19.9922 C32.2974,20.0402 32.6234,20.5012 32.7544,20.5672 L32.7604,20.5682 L32.7644,20.5422 C32.7794,20.3812 32.4144,19.8582 31.5484,19.6482 C31.3294,19.5952 31.1314,19.5782 30.9294,19.5782 C30.6864,19.5782 30.4394,19.6002 30.1564,19.6002 C29.5664,19.6002 28.8284,19.4992 27.6764,18.9072 C25.5734,17.8182 24.6004,18.7012 22.6134,17.5692 L22.7284,17.3662 C24.5954,18.4542 25.5694,17.5772 27.7814,18.7012 C28.9124,19.2782 29.5954,19.3662 30.1564,19.3662 C30.4274,19.3662 30.6734,19.3472 30.9294,19.3472 C31.1424,19.3442 31.3644,19.3622 31.6054,19.4222 C32.5324,19.6652 32.9804,20.1782 32.9964,20.5422 L32.9084,20.7512 L32.7724,20.8052 L32.7684,20.8052 Z" id="Fill-52" fill="#B1B398"></path>
                <path d="M22.6883,18.3931 C24.6943,19.1091 26.0273,18.3551 27.7273,19.3171 C26.5093,18.2481 24.9313,18.9541 22.8663,18.0211" id="Fill-54" fill="#B1B398"></path>
                <path d="M16.4315,16.566 L5.5315,28.318 C5.5315,28.318 5.3175,28.532 5.4605,28.674 C5.6025,28.817 5.8145,28.604 5.8145,28.604 L17.5675,17.702" id="Fill-56" fill="#F6E700"></path>
                <path d="M5.3768,28.7554 L5.2938,28.5594 C5.3038,28.3634 5.4448,28.2474 5.4448,28.2394 L16.3468,16.4844 L16.3468,16.4864 L16.5168,16.6454 L5.6128,28.4014 L5.5678,28.4594 L5.5278,28.5594 L5.5428,28.5924 L5.5748,28.6054 L5.6748,28.5644 L5.7348,28.5164 L17.4888,17.6164 L17.6478,17.7864 L5.8968,28.6854 C5.8858,28.6884 5.7698,28.8294 5.5748,28.8394 L5.5698,28.8394 L5.3768,28.7554 Z" id="Fill-58" fill="#B1B398"></path>
                <polyline id="Fill-60" fill="#B1B398" points="16.7162 16.8492 9.2242 24.9112 17.2842 17.4172"></polyline>
                <path d="M12.2699,19.7232 C10.1919,20.4952 9.5879,22.2192 7.6919,22.8142 C5.7949,23.4052 5.1779,24.8382 4.5629,25.3662 C3.9489,25.8932 3.3229,25.5852 3.3089,25.8342 C3.2939,26.0852 4.0449,26.3102 4.9939,25.7442 C5.9439,25.1752 5.9259,24.2842 8.2329,23.5382 C10.5409,22.7942 10.6059,21.4862 12.7539,20.9082" id="Fill-62" fill="#F6E700"></path>
                <path d="M3.1903,25.8414 L3.1913,25.8274 C3.1933,25.7024 3.3173,25.6224 3.4013,25.6164 C3.4903,25.5984 3.5883,25.5984 3.7003,25.5864 C3.9263,25.5694 4.2043,25.5184 4.4873,25.2784 C5.0653,24.7924 5.7173,23.3074 7.6563,22.7014 C9.4923,22.1404 10.1013,20.4164 12.2293,19.6124 L12.3113,19.8324 C10.2823,20.5754 9.6833,22.3004 7.7263,22.9244 C5.8733,23.5044 5.2903,24.8834 4.6393,25.4534 C4.1353,25.8894 3.5893,25.8024 3.4383,25.8474 L3.4263,25.8484 L3.5083,25.9154 C3.5833,25.9514 3.7063,25.9824 3.8623,25.9804 C4.1373,25.9824 4.5113,25.8954 4.9333,25.6434 C5.8253,25.1234 5.8613,24.1804 8.1963,23.4274 C9.3313,23.0624 9.9023,22.5644 10.4763,22.0734 C11.0483,21.5804 11.6283,21.0884 12.7233,20.7944 L12.7853,21.0204 C11.7323,21.3044 11.2043,21.7564 10.6293,22.2494 C10.0573,22.7414 9.4403,23.2734 8.2683,23.6494 C5.9883,24.3874 6.0603,25.2274 5.0543,25.8434 C4.5983,26.1134 4.1853,26.2134 3.8623,26.2134 C3.5033,26.2064 3.2203,26.1094 3.1903,25.8414" id="Fill-64" fill="#B1B398"></path>
                <path d="M12.0868,20.2652 C10.1628,21.1782 9.7538,22.6542 7.8718,23.1762 C9.4878,23.0702 10.1048,21.4562 12.2258,20.6552" id="Fill-66" fill="#B1B398"></path>
                <path d="M17.5672,17.7017 L28.4682,5.9487 C28.4682,5.9487 28.6832,5.7357 28.5402,5.5937 C28.3992,5.4517 28.1852,5.6657 28.1852,5.6657 L16.4312,16.5657" id="Fill-68" fill="#F6E700"></path>
                <path d="M17.4828,17.6216 L28.3868,5.8656 L28.4318,5.8086 L28.4728,5.7076 L28.4578,5.6766 L28.4238,5.6616 L28.3248,5.7006 L28.2648,5.7516 L16.5108,16.6496 L16.3518,16.4796 L28.1028,5.5826 C28.1128,5.5786 28.2298,5.4376 28.4238,5.4286 L28.6228,5.5116 L28.7048,5.7076 C28.6948,5.9036 28.5558,6.0196 28.5538,6.0276 L17.6538,17.7816 L17.4828,17.6216 Z" id="Fill-70" fill="#B1B398"></path>
                <polyline id="Fill-72" fill="#B1B398" points="17.284 17.4175 24.776 9.3565 16.716 16.8495"></polyline>
                <path d="M21.7298,14.5445 C23.8078,13.7715 24.4118,12.0475 26.3088,11.4525 C28.2048,10.8625 28.8228,9.4295 29.4368,8.9015 C30.0518,8.3745 30.6768,8.6845 30.6918,8.4335 C30.7058,8.1815 29.9548,7.9575 29.0058,8.5235 C28.0578,9.0945 28.0758,9.9835 25.7688,10.7295 C23.4608,11.4725 23.3938,12.7815 21.2478,13.3585" id="Fill-74" fill="#F6E700"></path>
                <path d="M21.6898,14.4341 C23.7158,13.6921 24.3178,11.9661 26.2728,11.3421 C28.1248,10.7621 28.7098,9.3831 29.3608,8.8131 C29.8638,8.3771 30.4108,8.4641 30.5618,8.4221 L30.5718,8.4181 L30.4898,8.3511 C30.4168,8.3151 30.2928,8.2851 30.1358,8.2851 C29.8618,8.2851 29.4858,8.3721 29.0648,8.6231 C28.1758,9.1431 28.1388,10.0881 25.8028,10.8391 C24.6688,11.2071 24.0978,11.7031 23.5228,12.1961 C22.9508,12.6861 22.3728,13.1781 21.2768,13.4721 L21.2158,13.2471 C22.2678,12.9621 22.7968,12.5101 23.3708,12.0171 C23.9428,11.5251 24.5598,10.9941 25.7318,10.6181 C28.0118,9.8791 27.9398,9.0391 28.9458,8.4231 C29.3988,8.1541 29.8148,8.0531 30.1358,8.0531 C30.4968,8.0611 30.7778,8.1581 30.8088,8.4261 L30.8088,8.4391 C30.8058,8.5651 30.6818,8.6441 30.5988,8.6531 C30.5098,8.6681 30.4128,8.6681 30.2998,8.6801 C30.0728,8.7011 29.7958,8.7491 29.5128,8.9891 C28.9338,9.4771 28.2828,10.9601 26.3428,11.5651 C24.5068,12.1271 23.8978,13.8511 21.7698,14.6541 L21.6898,14.4341 Z" id="Fill-76" fill="#B1B398"></path>
                <path d="M21.9129,14.0025 C23.8379,13.0895 24.2469,11.6145 26.1289,11.0925 C24.5139,11.1975 23.8949,12.8105 21.7739,13.6115" id="Fill-78" fill="#B1B398"></path>
                <path d="M17.5672,16.566 L5.8152,5.666 C5.8152,5.666 5.6022,5.452 5.4602,5.593 C5.3172,5.736 5.5312,5.949 5.5312,5.949 L16.4312,17.702" id="Fill-80" fill="#F6E700"></path>
                <path d="M5.4481,6.0308 C5.4451,6.0198 5.3031,5.9028 5.2941,5.7108 L5.3771,5.5108 L5.5741,5.4278 C5.7701,5.4378 5.8851,5.5788 5.8941,5.5798 L17.6481,16.4798 L17.4891,16.6498 L5.7331,5.7478 L5.6751,5.7008 L5.5741,5.6618 L5.5411,5.6768 L5.5281,5.7108 L5.5681,5.8098 L5.6161,5.8698 L16.5171,17.6218 L16.3461,17.7818 L5.4481,6.0308 Z" id="Fill-82" fill="#B1B398"></path>
                <polyline id="Fill-84" fill="#B1B398" points="17.284 16.8492 9.224 9.3572 16.716 17.4172"></polyline>
                <path d="M14.411,12.4039 C13.639,10.3259 11.913,9.7219 11.32,7.8259 C10.728,5.9279 9.296,5.3109 8.768,4.6979 C8.241,4.0819 8.55,3.4569 8.299,3.4429 C8.049,3.4279 7.823,4.1779 8.391,5.1279 C8.96,6.0769 9.85,6.0579 10.595,8.3669 C11.34,10.6739 12.649,10.7399 13.226,12.8859" id="Fill-86" fill="#F6E700"></path>
                <path d="M11.8846,10.7623 C11.3926,10.1913 10.8606,9.5753 10.4836,8.4023 C9.7456,6.1213 8.9066,6.1943 8.2896,5.1873 C8.0186,4.7353 7.9196,4.3193 7.9186,3.9963 C7.9276,3.6363 8.0246,3.3533 8.2906,3.3253 L8.3066,3.3253 C8.4316,3.3263 8.5116,3.4513 8.5186,3.5333 C8.5356,3.6243 8.5356,3.7213 8.5466,3.8353 C8.5666,4.0623 8.6146,4.3383 8.8556,4.6213 C9.3416,5.2003 10.8256,5.8513 11.4326,7.7893 C11.9926,9.6253 13.7176,10.2363 14.5206,12.3623 L14.3016,12.4443 C13.5586,10.4173 11.8336,9.8163 11.2096,7.8613 C10.6296,6.0073 9.2486,5.4243 8.6796,4.7733 C8.2446,4.2693 8.3316,3.7223 8.2866,3.5733 L8.2846,3.5613 L8.2176,3.6423 C8.1806,3.7163 8.1506,3.8393 8.1526,3.9963 C8.1526,4.2713 8.2386,4.6463 8.4906,5.0693 C9.0096,5.9583 9.9556,5.9953 10.7056,8.3293 C11.0726,9.4643 11.5686,10.0353 12.0616,10.6123 C12.5536,11.1833 13.0456,11.7613 13.3386,12.8583 L13.1136,12.9173 C12.8296,11.8663 12.3766,11.3373 11.8846,10.7623" id="Fill-88" fill="#B1B398"></path>
                <path d="M13.8685,12.2212 C12.9555,10.2972 11.4805,9.8872 10.9585,8.0052 C11.0645,9.6212 12.6775,10.2392 13.4775,12.3592" id="Fill-90" fill="#B1B398"></path>
                <path d="M16.4315,17.7017 L28.1855,28.6037 C28.1855,28.6037 28.3985,28.8167 28.5395,28.6747 C28.6825,28.5317 28.4685,28.3177 28.4685,28.3177 L17.5675,16.5657" id="Fill-92" fill="#F6E700"></path>
                <path d="M28.4252,28.8394 C28.2302,28.8294 28.1132,28.6884 28.1062,28.6884 L16.3522,17.7864 L16.5112,17.6164 L28.2672,28.5204 L28.3252,28.5674 L28.4252,28.6054 L28.4582,28.5924 L28.4722,28.5594 L28.4322,28.4594 L28.3832,28.3984 L17.4832,16.6454 L17.6542,16.4864 L28.5512,28.2354 C28.5542,28.2474 28.6962,28.3634 28.7052,28.5594 L28.6222,28.7574 L28.4302,28.8394 L28.4252,28.8394 Z" id="Fill-94" fill="#B1B398"></path>
                <polyline id="Fill-96" fill="#B1B398" points="16.7162 17.4175 24.7762 24.9105 17.2842 16.8495"></polyline>
                <path d="M19.5887,21.8638 C20.3617,23.9408 22.0867,24.5478 22.6797,26.4408 C23.2717,28.3388 24.7047,28.9558 25.2317,29.5708 C25.7587,30.1858 25.4497,30.8108 25.7017,30.8268 C25.9517,30.8398 26.1767,30.0898 25.6097,29.1388 C25.0417,28.1918 24.1497,28.2088 23.4057,25.9028 C22.6607,23.5938 21.3527,23.5278 20.7737,21.3808" id="Fill-98" fill="#F6E700"></path>
                <path d="M25.6947,30.9419 C25.5687,30.9399 25.4897,30.8149 25.4817,30.7339 C25.4647,30.6449 25.4637,30.5459 25.4537,30.4309 C25.4327,30.2079 25.3847,29.9289 25.1437,29.6449 C24.6567,29.0689 23.1727,28.4159 22.5677,26.4769 C22.0067,24.6409 20.2817,24.0319 19.4807,21.9049 L19.6987,21.8229 C20.4417,23.8519 22.1667,24.4509 22.7907,26.4069 C23.3707,28.2599 24.7507,28.8419 25.3207,29.4949 C25.7567,29.9979 25.6687,30.5449 25.7117,30.6939 L25.7157,30.7069 L25.7797,30.6249 C25.8177,30.5509 25.8467,30.4249 25.8467,30.2699 C25.8467,29.9969 25.7607,29.6189 25.5087,29.2009 C24.9897,28.3079 24.0457,28.2709 23.2937,25.9369 C22.9277,24.8029 22.4317,24.2319 21.9387,23.6569 C21.4467,23.0839 20.9547,22.5049 20.6617,21.4099 L20.8867,21.3499 C21.1717,22.4019 21.6227,22.9289 22.1157,23.5049 C22.6087,24.0779 23.1387,24.6929 23.5167,25.8649 C24.2547,28.1459 25.0927,28.0739 25.7097,29.0809 C25.9807,29.5349 26.0797,29.9479 26.0797,30.2699 C26.0707,30.6289 25.9747,30.9119 25.7077,30.9419 L25.6947,30.9419 Z" id="Fill-100" fill="#B1B398"></path>
                <path d="M20.1327,22.0474 C21.0437,23.9724 22.5197,24.3794 23.0427,26.2614 C22.9367,24.6474 21.3237,24.0274 20.5217,21.9084" id="Fill-102" fill="#B1B398"></path>
                <path d="M16.2577,16.8257 L10.6847,31.8577 C10.6847,31.8577 10.5707,32.1367 10.7537,32.2127 C10.9407,32.2897 11.0547,32.0097 11.0547,32.0097 L17.7417,17.4417" id="Fill-104" fill="#F6E700"></path>
                <path d="M10.7103,32.3189 C10.5703,32.2639 10.5273,32.1209 10.5313,32.0309 C10.5333,31.9109 10.5743,31.8179 10.5743,31.8139 L16.1483,16.7869 L16.3673,16.8669 L10.7913,31.9019 L10.7653,32.0309 L10.7993,32.1039 L10.8183,32.1069 L10.8993,32.0469 L10.9493,31.9619 L17.6363,17.3929 L17.8493,17.4909 L11.1633,32.0549 C11.1513,32.0579 11.0853,32.3169 10.8183,32.3409 L10.7103,32.3189 Z" id="Fill-106" fill="#B1B398"></path>
                <polyline id="Fill-108" fill="#B1B398" points="16.6293 16.98 12.7923 27.294 17.3723 17.288"></polyline>
                <path d="M13.6205,21.3365 C11.9975,22.8455 12.0995,24.6695 10.5725,25.9425 C9.0495,27.2165 9.0265,28.7755 8.6595,29.4985 C8.2945,30.2205 7.5975,30.1765 7.6795,30.4135 C7.7625,30.6495 8.5425,30.5695 9.2025,29.6835 C9.8615,28.7945 9.5045,27.9775 11.3515,26.4065 C13.1985,24.8355 12.7595,23.6015 14.5215,22.2455" id="Fill-110" fill="#F6E700"></path>
                <path d="M7.5712,30.4556 L7.5562,30.3766 C7.5602,30.2516 7.6512,30.1896 7.7202,30.1486 L7.9812,30.0176 C8.1762,29.9106 8.3952,29.7606 8.5562,29.4456 C8.9042,28.7756 8.9382,27.1546 10.4982,25.8536 C11.9802,24.6316 11.8832,22.8056 13.5422,21.2506 L13.7002,21.4216 C12.1112,22.8846 12.2172,24.7066 10.6492,26.0316 C9.1602,27.2776 9.1482,28.7756 8.7642,29.5516 C8.6022,29.8736 8.3712,30.0596 8.1742,30.1766 C7.9952,30.2766 7.8322,30.3466 7.7952,30.3796 L7.9252,30.4106 C8.1692,30.4136 8.6682,30.2096 9.1092,29.6116 C9.7342,28.7906 9.4062,27.9046 11.2762,26.3166 C13.0852,24.7926 12.6442,23.5566 14.4492,22.1526 L14.5922,22.3396 C12.8732,23.6456 13.3102,24.8806 11.4262,26.4956 C9.6022,28.0496 9.9912,28.7986 9.2962,29.7516 C8.8162,30.3936 8.2782,30.6416 7.9252,30.6426 C7.7752,30.6426 7.6262,30.5966 7.5712,30.4556" id="Fill-112" fill="#B1B398"></path>
                <path d="M13.659,21.9078 C12.231,23.4868 12.417,25.0068 10.879,26.2098 C12.33,25.4928 12.284,23.7658 13.936,22.2148" id="Fill-114" fill="#B1B398"></path>
                <path d="M17.7421,17.4419 L23.3161,2.4119 C23.3161,2.4119 23.4311,2.1329 23.2461,2.0549 C23.0611,1.9789 22.9451,2.2569 22.9451,2.2569 L16.2581,16.8259" id="Fill-116" fill="#F6E700"></path>
                <path d="M17.6322,17.4009 L23.2082,2.3669 L23.2342,2.2359 L23.2012,2.1639 L23.1812,2.1599 L23.1002,2.2199 L23.0492,2.3049 L16.3642,16.8749 L16.1522,16.7769 L22.8382,2.2129 C22.8492,2.2119 22.9122,1.9499 23.1812,1.9259 L23.2912,1.9479 C23.4282,2.0039 23.4722,2.1439 23.4672,2.2359 C23.4672,2.3539 23.4262,2.4489 23.4262,2.4529 L17.8532,17.4809 L17.6322,17.4009 Z" id="Fill-118" fill="#B1B398"></path>
                <polyline id="Fill-120" fill="#B1B398" points="17.3719 17.2876 21.2079 6.9746 16.6289 16.9796"></polyline>
                <path d="M20.3797,12.9312 C22.0037,11.4212 21.9017,9.5982 23.4257,8.3242 C24.9517,7.0512 24.9737,5.4912 25.3397,4.7702 C25.7067,4.0462 26.4017,4.0932 26.3187,3.8562 C26.2367,3.6182 25.4577,3.6982 24.7977,4.5862 C24.1387,5.4722 24.4967,6.2892 22.6487,7.8612 C20.8027,9.4312 21.2417,10.6652 19.4787,12.0232" id="Fill-122" fill="#F6E700"></path>
                <path d="M20.3002,12.8453 C21.8892,11.3833 21.7822,9.5603 23.3512,8.2363 C24.8412,6.9893 24.8522,5.4913 25.2372,4.7153 C25.3982,4.3953 25.6272,4.2103 25.8252,4.0933 C26.0052,3.9903 26.1672,3.9213 26.2052,3.8873 L26.0752,3.8573 C25.8302,3.8543 25.3322,4.0573 24.8922,4.6553 C24.2662,5.4763 24.5952,6.3623 22.7242,7.9493 C20.9152,9.4753 21.3562,10.7103 19.5502,12.1143 L19.4082,11.9283 C21.1262,10.6213 20.6892,9.3873 22.5732,7.7713 C24.3982,6.2173 24.0092,5.4703 24.7042,4.5153 C25.1822,3.8743 25.7212,3.6253 26.0752,3.6243 C26.2252,3.6243 26.3732,3.6703 26.4302,3.8193 L26.4432,3.8933 C26.4382,4.0153 26.3482,4.0763 26.2792,4.1173 L26.0192,4.2523 C25.8252,4.3563 25.6042,4.5083 25.4442,4.8223 C25.0952,5.4923 25.0622,7.1133 23.5022,8.4123 C22.0202,9.6353 22.1162,11.4613 20.4582,13.0163 L20.3002,12.8453 Z" id="Fill-124" fill="#B1B398"></path>
                <path d="M20.3412,12.3609 C21.7692,10.7809 21.5842,9.2619 23.1222,8.0579 C21.6682,8.7749 21.7162,10.5029 20.0642,12.0519" id="Fill-126" fill="#B1B398"></path>
                <path d="M17.307,16.3912 L2.278,10.8182 C2.278,10.8182 1.999,10.7042 1.922,10.8872 C1.845,11.0742 2.123,11.1892 2.123,11.1892 L16.693,17.8762" id="Fill-128" fill="#F6E700"></path>
                <path d="M2.0785,11.2964 C2.0765,11.2844 1.8175,11.2184 1.7915,10.9524 L1.8145,10.8434 C1.8695,10.7044 2.0115,10.6624 2.1025,10.6654 C2.2215,10.6674 2.3145,10.7084 2.3185,10.7084 L17.3485,16.2804 L17.2665,16.5004 L2.2325,10.9254 L2.1885,10.9114 L2.1025,10.9004 L2.0305,10.9324 L2.0245,10.9524 L2.0875,11.0324 L2.1725,11.0824 L16.7415,17.7704 L16.6435,17.9824 L2.0785,11.2964 Z" id="Fill-130" fill="#B1B398"></path>
                <polyline id="Fill-132" fill="#B1B398" points="17.1551 16.7632 6.8401 12.9262 16.8461 17.5042"></polyline>
                <path d="M12.7982,13.7544 C11.2892,12.1304 9.4642,12.2324 8.1912,10.7064 C6.9182,9.1824 5.3582,9.1594 4.6352,8.7924 C3.9132,8.4274 3.9592,7.7334 3.7222,7.8144 C3.4842,7.8964 3.5642,8.6764 4.4522,9.3364 C5.3402,9.9964 6.1552,9.6394 7.7282,11.4854 C9.2972,13.3314 10.5332,12.8924 11.8892,14.6554" id="Fill-134" fill="#F6E700"></path>
                <path d="M7.6371,11.5621 C6.0831,9.7371 5.3361,10.1251 4.3811,9.4291 C3.7411,8.9511 3.4921,8.4131 3.4911,8.0581 C3.4911,7.9091 3.5371,7.7601 3.6791,7.7061 L3.7581,7.6901 C3.8821,7.6961 3.9421,7.7851 3.9831,7.8531 L4.1171,8.1171 C4.2221,8.3091 4.3741,8.5301 4.6871,8.6891 C5.3581,9.0381 6.9781,9.0711 8.2801,10.6321 C9.5011,12.1141 11.3271,12.0151 12.8841,13.6751 L12.7131,13.8331 C11.2501,12.2451 9.4271,12.3511 8.1011,10.7831 C6.8561,9.2941 5.3581,9.2821 4.5821,8.8971 C4.2611,8.7361 4.0761,8.5051 3.9591,8.3091 C3.8561,8.1291 3.7881,7.9681 3.7541,7.9291 L3.7231,8.0581 C3.7201,8.3031 3.9241,8.8011 4.5211,9.2421 C5.3421,9.8671 6.2281,9.5391 7.8161,11.4101 C9.3421,13.2191 10.5771,12.7781 11.9811,14.5831 L11.7961,14.7261 C10.4881,13.0071 9.2541,13.4431 7.6371,11.5621" id="Fill-136" fill="#B1B398"></path>
                <path d="M12.2269,13.7925 C10.6469,12.3645 9.1289,12.5515 7.9259,11.0125 C8.6409,12.4645 10.3689,12.4175 11.9189,14.0695" id="Fill-138" fill="#B1B398"></path>
                <path d="M16.6932,17.8765 L31.7222,23.4485 C31.7222,23.4485 32.0022,23.5635 32.0782,23.3795 C32.1552,23.1935 31.8772,23.0775 31.8772,23.0775 L17.3072,16.3915" id="Fill-140" fill="#F6E700"></path>
                <path d="M31.8973,23.6011 C31.7773,23.6001 31.6853,23.5591 31.6813,23.5591 L16.6523,17.9861 L16.7323,17.7661 L31.7673,23.3421 L31.8113,23.3551 L31.8973,23.3681 L31.9703,23.3341 L31.9743,23.3141 L31.9143,23.2351 L31.8273,23.1841 L17.2583,16.4971 L17.3553,16.2851 L31.9213,22.9701 C31.9223,22.9831 32.1833,23.0491 32.2073,23.3141 L32.1853,23.4251 C32.1323,23.5561 32.0013,23.6011 31.9103,23.6011 L31.8973,23.6011 Z" id="Fill-142" fill="#B1B398"></path>
                <polyline id="Fill-144" fill="#B1B398" points="16.8461 17.5044 27.1601 21.3434 17.1551 16.7634"></polyline>
                <path d="M21.2015,20.5123 C22.7125,22.1363 24.5355,22.0343 25.8095,23.5603 C27.0825,25.0853 28.6435,25.1073 29.3645,25.4743 C30.0875,25.8393 30.0405,26.5363 30.2785,26.4533 C30.5155,26.3713 30.4355,25.5903 29.5485,24.9313 C28.6605,24.2733 27.8445,24.6303 26.2735,22.7833 C24.7025,20.9363 23.4675,21.3743 22.1115,19.6133" id="Fill-146" fill="#F6E700"></path>
                <path d="M30.0155,26.4136 L29.8825,26.1516 C29.7765,25.9576 29.6275,25.7366 29.3115,25.5786 C28.6425,25.2296 27.0215,25.1956 25.7205,23.6356 C24.4985,22.1526 22.6725,22.2526 21.1165,20.5926 L21.2875,20.4346 C22.7495,22.0226 24.5725,21.9156 25.8985,23.4866 C27.1435,24.9756 28.6435,24.9856 29.4175,25.3696 C29.7395,25.5306 29.9235,25.7616 30.0395,25.9576 C30.1445,26.1376 30.2115,26.3016 30.2445,26.3376 L30.2755,26.2086 C30.2785,25.9636 30.0755,25.4646 29.4785,25.0246 C28.6585,24.3996 27.7715,24.7276 26.1845,22.8566 C24.6585,21.0486 23.4235,21.4886 22.0185,19.6836 L22.2045,19.5406 C23.5115,21.2606 24.7475,20.8236 26.3615,22.7076 C27.9165,24.5306 28.6625,24.1426 29.6185,24.8386 C30.2575,25.3166 30.5055,25.8536 30.5095,26.2086 C30.5095,26.3576 30.4625,26.5066 30.3115,26.5656 L30.2405,26.5776 C30.1165,26.5716 30.0565,26.4816 30.0155,26.4136" id="Fill-148" fill="#B1B398"></path>
                <path d="M21.7733,20.4742 C23.3533,21.9032 24.8723,21.7182 26.0753,23.2552 C25.3593,21.8022 23.6323,21.8492 22.0823,20.1972" id="Fill-150" fill="#B1B398"></path>
                <path d="M16.6932,16.3912 L2.1232,23.0782 C2.1232,23.0782 1.8452,23.1942 1.9222,23.3792 C1.9992,23.5642 2.2772,23.4492 2.2772,23.4492 L17.3072,17.8762" id="Fill-152" fill="#F6E700"></path>
                <path d="M1.8148,23.4253 L1.7928,23.3143 C1.8168,23.0463 2.0778,22.9833 2.0738,22.9733 L16.6438,16.2843 L16.7408,16.4963 L2.1678,23.1863 L2.0858,23.2353 L2.0258,23.3143 L2.0308,23.3343 L2.1028,23.3673 L2.2368,23.3393 L17.2668,17.7663 L17.3478,17.9863 L2.3218,23.5563 C2.3148,23.5603 2.2208,23.6003 2.1028,23.6013 L2.0898,23.6013 C1.9978,23.6013 1.8678,23.5563 1.8148,23.4253" id="Fill-154" fill="#B1B398"></path>
                <polyline id="Fill-156" fill="#B1B398" points="16.8461 16.7632 6.8401 21.3432 17.1551 17.5042"></polyline>
                <path d="M11.6395,17.7144 C9.4235,17.6354 8.2045,18.9954 6.2265,18.8184 C4.2485,18.6404 3.1295,19.7284 2.3595,19.9814 C1.5905,20.2304 1.1305,19.7074 1.0205,19.9334 C0.9105,20.1574 1.5195,20.6544 2.6125,20.4914 C3.7075,20.3304 4.0325,19.5024 6.4485,19.6964 C8.8655,19.8924 9.4285,18.7094 11.6335,18.9954" id="Fill-158" fill="#F6E700"></path>
                <path d="M1.264,20.4371 C1.044,20.3161 0.9,20.1751 0.891,19.9901 L0.915,19.8821 L1.118,19.7581 C1.336,19.7711 1.565,19.9341 1.931,19.9331 C2.05,19.9331 2.179,19.9161 2.324,19.8691 C2.989,19.6581 4.04,18.6831 5.795,18.6831 C5.939,18.6831 6.085,18.6891 6.237,18.7031 C6.355,18.7121 6.47,18.7171 6.582,18.7171 C8.246,18.7271 9.435,17.6011 11.448,17.5941 L11.644,17.6001 L11.635,17.8321 L11.448,17.8281 C9.534,17.8211 8.361,18.9421 6.582,18.9521 C6.463,18.9521 6.34,18.9451 6.216,18.9341 C6.072,18.9211 5.931,18.9141 5.795,18.9141 C4.123,18.9161 3.154,19.8331 2.396,20.0891 C2.228,20.1451 2.073,20.1661 1.931,20.1661 C1.522,20.1651 1.208,19.9901 1.124,19.9901 C1.118,20.0131 1.19,20.1371 1.373,20.2301 C1.556,20.3301 1.835,20.4091 2.195,20.4071 C2.32,20.4071 2.452,20.3991 2.596,20.3771 C3.513,20.2531 3.921,19.5501 5.758,19.5501 C5.97,19.5501 6.202,19.5591 6.457,19.5801 C6.64,19.5951 6.811,19.6021 6.974,19.6021 C8.682,19.6071 9.377,18.8401 10.963,18.8331 C11.176,18.8331 11.401,18.8471 11.648,18.8791 L11.617,19.1111 C11.381,19.0801 11.163,19.0661 10.963,19.0661 C9.478,19.0591 8.768,19.8311 6.974,19.8331 C6.806,19.8331 6.628,19.8281 6.439,19.8121 C6.189,19.7911 5.963,19.7851 5.758,19.7851 C3.99,19.7821 3.674,20.4441 2.63,20.6071 C2.476,20.6301 2.33,20.6401 2.195,20.6401 C1.802,20.6401 1.486,20.5551 1.264,20.4371" id="Fill-160" fill="#B1B398"></path>
                <path d="M11.2635,18.147 C9.1355,18.252 8.1935,19.459 6.2535,19.222 C7.7875,19.744 8.9765,18.488 11.2405,18.559" id="Fill-162" fill="#B1B398"></path>
                <path d="M17.307,17.8765 L31.877,11.1895 C31.877,11.1895 32.155,11.0735 32.078,10.8875 C32.002,10.7035 31.723,10.8175 31.723,10.8175 L16.693,16.3915" id="Fill-164" fill="#F6E700"></path>
                <path d="M17.2587,17.7701 L31.8317,11.0811 L31.9137,11.0331 L31.9747,10.9531 L31.9707,10.9321 L31.8977,10.9001 L31.7637,10.9271 L16.7327,16.5001 L16.6527,16.2811 L31.6767,10.7101 C31.6847,10.7081 31.7777,10.6671 31.8977,10.6661 C31.9887,10.6631 32.1297,10.7051 32.1867,10.8451 L32.2067,10.9531 C32.1827,11.2201 31.9227,11.2851 31.9257,11.2941 L17.3567,17.9821 L17.2587,17.7701 Z" id="Fill-166" fill="#B1B398"></path>
                <polyline id="Fill-168" fill="#B1B398" points="17.1551 17.5044 27.1601 12.9264 16.8461 16.7634"></polyline>
                <path d="M22.3602,16.5523 C24.5762,16.6343 25.7952,15.2713 27.7732,15.4493 C29.7512,15.6263 30.8712,14.5403 31.6402,14.2883 C32.4092,14.0363 32.8702,14.5613 32.9802,14.3343 C33.0892,14.1093 32.4802,13.6143 31.3872,13.7753 C30.2932,13.9363 29.9682,14.7673 27.5512,14.5713 C25.1352,14.3753 24.5722,15.5603 22.3672,15.2713" id="Fill-170" fill="#F6E700"></path>
                <path d="M22.3553,16.6695 L22.3653,16.4355 L22.5493,16.4395 C24.4633,16.4455 25.6383,15.3245 27.4163,15.3155 C27.5353,15.3155 27.6573,15.3215 27.7843,15.3325 C27.9293,15.3455 28.0683,15.3535 28.2033,15.3535 C29.8753,15.3535 30.8443,14.4335 31.6043,14.1775 C31.7723,14.1215 31.9273,14.1015 32.0693,14.1015 C32.4783,14.1035 32.7933,14.2785 32.8763,14.2745 C32.8803,14.2515 32.8083,14.1265 32.6263,14.0365 C32.4433,13.9385 32.1633,13.8575 31.8043,13.8575 C31.6813,13.8575 31.5463,13.8675 31.4043,13.8895 C30.4863,14.0135 30.0783,14.7155 28.2423,14.7165 C28.0283,14.7165 27.7973,14.7075 27.5423,14.6875 C27.3583,14.6715 27.1873,14.6645 27.0243,14.6645 C25.3163,14.6605 24.6223,15.4265 23.0363,15.4325 C22.8243,15.4345 22.5963,15.4195 22.3533,15.3885 L22.3833,15.1565 C22.6193,15.1855 22.8353,15.2005 23.0363,15.2005 C24.5223,15.2085 25.2293,14.4395 27.0243,14.4335 C27.1933,14.4335 27.3713,14.4405 27.5613,14.4545 C27.8093,14.4745 28.0363,14.4825 28.2423,14.4825 C30.0103,14.4845 30.3263,13.8225 31.3703,13.6605 C31.5233,13.6365 31.6693,13.6265 31.8043,13.6245 C32.1983,13.6265 32.5133,13.7125 32.7363,13.8295 C32.9533,13.9505 33.0993,14.0925 33.1073,14.2775 L33.0833,14.3865 L32.8803,14.5095 C32.6643,14.4955 32.4363,14.3335 32.0693,14.3345 C31.9503,14.3345 31.8213,14.3515 31.6763,14.3985 C31.0113,14.6085 29.9593,15.5845 28.2033,15.5845 C28.0613,15.5845 27.9153,15.5785 27.7633,15.5645 C27.6443,15.5545 27.5283,15.5495 27.4163,15.5495 C25.7523,15.5395 24.5633,16.6655 22.5493,16.6705 L22.5243,16.6705 L22.3553,16.6695 Z" id="Fill-172" fill="#B1B398"></path>
                <path d="M22.7362,16.1197 C24.8652,16.0157 25.8072,14.8077 27.7462,15.0447 C26.2122,14.5237 25.0242,15.7797 22.7592,15.7077" id="Fill-174" fill="#B1B398"></path>
                <path d="M17.7421,16.8257 L11.0551,2.2577 C11.0551,2.2577 10.9401,1.9787 10.7541,2.0547 C10.5701,2.1337 10.6851,2.4117 10.6851,2.4117 L16.2581,17.4417" id="Fill-176" fill="#F6E700"></path>
                <path d="M10.5765,2.4566 C10.5745,2.4486 10.5335,2.3556 10.5315,2.2366 C10.5275,2.1446 10.5715,2.0036 10.7065,1.9496 L10.8185,1.9266 C11.0865,1.9496 11.1515,2.2116 11.1605,2.2096 L17.8485,16.7776 L17.6365,16.8746 L10.9465,2.3026 L10.8995,2.2206 L10.8185,2.1596 L10.7985,2.1636 L10.7645,2.2366 L10.7945,2.3706 L16.3675,17.4006 L16.1485,17.4806 L10.5765,2.4566 Z" id="Fill-178" fill="#B1B398"></path>
                <polyline id="Fill-180" fill="#B1B398" points="17.3719 16.98 12.7919 6.975 16.6289 17.288"></polyline>
                <path d="M16.4193,11.773 C16.5003,9.557 15.1363,8.339 15.3153,6.361 C15.4933,4.382 14.4063,3.263 14.1543,2.493 C13.9023,1.723 14.4263,1.264 14.2013,1.155 C13.9763,1.044 13.4793,1.654 13.6413,2.747 C13.8023,3.841 14.6323,4.166 14.4373,6.583 C14.2423,8.999 15.4263,9.563 15.1383,11.766" id="Fill-182" fill="#F6E700"></path>
                <path d="M15.0223,11.7505 C15.0523,11.5145 15.0663,11.2975 15.0663,11.0975 C15.0733,9.6105 14.3033,8.9015 14.2973,7.1065 C14.2973,6.9385 14.3053,6.7615 14.3223,6.5725 C14.3413,6.3235 14.3493,6.0975 14.3493,5.8925 C14.3513,4.1225 13.6893,3.8085 13.5263,2.7645 C13.5023,2.6095 13.4913,2.4635 13.4913,2.3285 C13.4913,1.9345 13.5773,1.6195 13.6953,1.3965 C13.8163,1.1785 13.9593,1.0335 14.1433,1.0235 L14.2513,1.0485 L14.3743,1.2505 C14.3633,1.4695 14.1993,1.6975 14.2003,2.0645 C14.2003,2.1845 14.2173,2.3125 14.2653,2.4575 C14.4743,3.1235 15.4513,4.1745 15.4503,5.9285 C15.4513,6.0715 15.4453,6.2175 15.4313,6.3715 C15.4203,6.4885 15.4153,6.6035 15.4153,6.7165 C15.4053,8.3795 16.5303,9.5695 16.5373,11.5835 L16.5353,11.7785 L16.3023,11.7695 L16.3033,11.5835 C16.3113,9.6675 15.1913,8.4945 15.1813,6.7165 C15.1813,6.5975 15.1873,6.4735 15.1993,6.3495 C15.2113,6.2045 15.2173,6.0645 15.2173,5.9285 C15.2173,4.2565 14.2973,3.2885 14.0433,2.5295 C13.9893,2.3605 13.9673,2.2055 13.9673,2.0645 C13.9683,1.6565 14.1433,1.3435 14.1423,1.2585 C14.1173,1.2535 13.9943,1.3245 13.9013,1.5065 C13.8033,1.6895 13.7243,1.9685 13.7243,2.3285 C13.7243,2.4525 13.7333,2.5855 13.7553,2.7295 C13.8803,3.6465 14.5823,4.0565 14.5823,5.8925 C14.5823,6.1045 14.5743,6.3375 14.5533,6.5925 C14.5393,6.7745 14.5313,6.9465 14.5313,7.1065 C14.5263,8.8165 15.2933,9.5115 15.2993,11.0975 C15.2993,11.3085 15.2853,11.5345 15.2523,11.7815 L15.0223,11.7505 Z" id="Fill-184" fill="#B1B398"></path>
                <path d="M15.9867,11.396 C15.8807,9.27 14.6737,8.326 14.9117,6.389 C14.3907,7.922 15.6457,9.11 15.5727,11.374" id="Fill-186" fill="#B1B398"></path>
                <path d="M16.2577,17.4419 L22.9447,32.0089 C22.9447,32.0089 23.0607,32.2899 23.2467,32.2129 C23.4307,32.1359 23.3167,31.8579 23.3167,31.8579 L17.7417,16.8259" id="Fill-188" fill="#F6E700"></path>
                <path d="M23.181,32.3414 C22.913,32.3174 22.849,32.0584 22.839,32.0594 L16.152,17.4904 L16.364,17.3934 L23.052,31.9654 L23.1,32.0464 L23.181,32.1074 L23.201,32.1044 L23.234,32.0304 L23.206,31.8964 L17.632,16.8664 L17.853,16.7864 L23.424,31.8134 C23.426,31.8184 23.467,31.9124 23.467,32.0304 C23.472,32.1224 23.428,32.2644 23.288,32.3194 L23.183,32.3414 L23.181,32.3414 Z" id="Fill-190" fill="#B1B398"></path>
                <polyline id="Fill-192" fill="#B1B398" points="16.6293 17.2876 21.2083 27.2946 17.3723 16.9796"></polyline>
                <path d="M17.5814,22.4947 C17.5004,24.7107 18.8634,25.9277 18.6854,27.9057 C18.5074,29.8867 19.5954,31.0047 19.8454,31.7747 C20.0974,32.5437 19.5744,33.0027 19.7994,33.1127 C20.0254,33.2227 20.5204,32.6137 20.3594,31.5197 C20.1974,30.4257 19.3674,30.1007 19.5624,27.6847 C19.7574,25.2677 18.5754,24.7067 18.8614,22.5017" id="Fill-194" fill="#F6E700"></path>
                <path d="M19.7479,33.2183 L19.6239,33.0163 C19.6359,32.7983 19.8009,32.5693 19.7999,32.2023 C19.7999,32.0833 19.7819,31.9533 19.7349,31.8113 C19.5239,31.1443 18.5469,30.0923 18.5469,28.3383 C18.5469,28.1953 18.5559,28.0493 18.5679,27.8983 C18.5799,27.7783 18.5829,27.6633 18.5829,27.5503 C18.5929,25.8883 17.4679,24.6973 17.4609,22.6843 L17.4649,22.4893 L17.4659,22.4893 L17.6979,22.4983 L17.6949,22.6843 C17.6869,24.5993 18.8079,25.7723 18.8159,27.5503 C18.8159,27.6693 18.8109,27.7913 18.8009,27.9183 C18.7869,28.0633 18.7809,28.2023 18.7809,28.3383 C18.7809,30.0113 19.6999,30.9803 19.9559,31.7373 C20.0119,31.9063 20.0309,32.0613 20.0309,32.2023 C20.0299,32.6103 19.8549,32.9253 19.8549,33.0093 C19.8769,33.0183 20.0029,32.9463 20.0979,32.7603 C20.1949,32.5773 20.2739,32.2993 20.2739,31.9383 C20.2739,31.8143 20.2649,31.6813 20.2449,31.5383 C20.1199,30.6203 19.4179,30.2103 19.4159,28.3743 C19.4159,28.1623 19.4249,27.9303 19.4449,27.6773 C19.4609,27.4923 19.4669,27.3223 19.4669,27.1593 C19.4729,25.4503 18.7059,24.7563 18.7009,23.1693 C18.6989,22.9583 18.7139,22.7323 18.7469,22.4853 L18.9769,22.5163 C18.9449,22.7523 18.9319,22.9693 18.9319,23.1693 C18.9259,24.6553 19.6949,25.3643 19.6999,27.1593 C19.7009,27.3283 19.6939,27.5053 19.6789,27.6953 C19.6589,27.9433 19.6499,28.1703 19.6499,28.3743 C19.6479,30.1453 20.3099,30.4593 20.4739,31.5033 C20.4969,31.6573 20.5069,31.8023 20.5069,31.9383 C20.5069,32.3323 20.4219,32.6473 20.3039,32.8703 C20.1809,33.0883 20.0409,33.2333 19.8549,33.2423 L19.8529,33.2423 L19.7479,33.2183 Z" id="Fill-196" fill="#B1B398"></path>
                <path d="M18.013,22.8707 C18.119,24.9997 19.326,25.9407 19.089,27.8807 C19.609,26.3477 18.354,25.1577 18.427,22.8927" id="Fill-198" fill="#B1B398"></path>
                <path d="M17.0004,10.607 C20.6044,10.607 23.5284,13.528 23.5284,17.134 C23.5284,20.739 20.6044,23.663 17.0004,23.663 C13.3954,23.663 10.4724,20.739 10.4724,17.134 C10.4724,13.528 13.3954,10.607 17.0004,10.607" id="Fill-200" fill="#F6E700"></path>
                <path d="M10.3544,17.1343 C10.3554,13.4633 13.3314,10.4893 16.9994,10.4893 L16.9994,10.6073 L16.9994,10.7213 C13.4584,10.7293 10.5954,13.5933 10.5894,17.1343 C10.5954,20.6743 13.4584,23.5383 16.9994,23.5453 C20.5414,23.5383 23.4054,20.6743 23.4114,17.1343 C23.4054,13.5933 20.5414,10.7293 16.9994,10.7213 L16.9994,10.6073 L16.9994,10.4893 C20.6704,10.4893 23.6444,13.4633 23.6454,17.1343 C23.6444,20.8033 20.6704,23.7773 16.9994,23.7773 C13.3314,23.7773 10.3554,20.8033 10.3544,17.1343" id="Fill-202" fill="#B1B398"></path>
                <path d="M21.1185,15.7261 C19.9625,14.7241 18.5075,14.5721 17.7035,15.3271 C17.1195,16.1051 17.1715,17.0241 17.8525,17.9871 L17.6525,18.0871 C17.1465,17.1231 17.0595,16.1291 17.4025,15.2251 C18.5075,14.3221 20.0135,14.2221 21.1185,15.7261" id="Fill-204" fill="#B1B398"></path>
                <path d="M19.3104,15.4263 C18.6574,15.4263 18.5074,15.5773 18.2064,15.8273 C17.9044,16.0793 17.7524,16.0293 17.7034,16.0793 L17.8044,16.2293 C17.9044,16.1803 18.1044,16.0793 18.4064,15.8273 C18.7074,15.5773 19.0094,15.5773 19.3104,15.5773 C20.2134,15.5773 20.7174,16.3293 20.8174,16.2803 C20.9174,16.2293 20.3144,15.4263 19.3104,15.4263" id="Fill-206" fill="#B1B398"></path>
                <path d="M20.4652,16.2798 C19.8122,15.5778 18.6082,15.5268 18.1052,16.3298 L18.3062,16.3298 C18.8072,15.5268 20.0132,15.8798 20.1132,16.2288 L20.1132,16.3298" id="Fill-208" fill="#B1B398"></path>
                <path d="M19.2093,15.7769 C19.4583,15.7769 19.6623,15.9809 19.6623,16.2289 C19.6623,16.4799 19.4583,16.6809 19.2093,16.6809 C18.9603,16.6809 18.7583,16.4799 18.7583,16.2289 C18.7583,15.9809 18.9603,15.7769 19.2093,15.7769" id="Fill-210" fill="#B1B398"></path>
                <path d="M18.1048,16.3296 C18.6078,16.7826 19.7118,16.8326 20.4648,16.2796 L20.1128,16.2286 C19.6118,16.7826 18.8078,16.7316 18.3058,16.3296 L18.3058,16.2286" id="Fill-212" fill="#B1B398"></path>
                <path d="M20.5145,16.5318 C19.6625,17.1838 18.8075,17.1348 18.3065,16.8328 C17.8045,16.5318 17.8045,16.4288 17.9045,16.4288 C18.0045,16.4288 18.1045,16.5318 18.5075,16.7318 C18.9075,16.9318 19.5105,16.9318 20.5145,16.5318" id="Fill-214" fill="#B1B398"></path>
                <path d="M18.0541,18.0376 C18.2111,18.0936 18.2941,18.2656 18.2381,18.4236 C18.1821,18.5786 18.0101,18.6606 17.8531,18.6036 C17.7391,18.5656 17.6601,18.4596 17.6531,18.3396 C17.6031,18.4386 17.4021,18.7406 17.0001,18.7406 L16.8991,18.7406 L17.0001,18.8916 C17.1011,18.8916 17.4021,18.8916 17.6031,18.7406 C17.7451,18.9446 18.0281,18.9956 18.2331,18.8526 C18.4361,18.7106 18.4871,18.4286 18.3441,18.2246 C18.2761,18.1266 18.1721,18.0586 18.0541,18.0376" id="Fill-216" fill="#B1B398"></path>
                <path d="M18.6571,20.147 C18.2061,19.845 18.0051,19.395 17.5021,19.395 C17.4021,19.395 17.2021,19.445 17.0001,19.544 L16.8991,19.544 L17.0001,19.695 C17.2021,19.695 17.5021,19.445 17.8531,19.645 C18.2061,19.845 18.4061,20.047 18.6571,20.147" id="Fill-218" fill="#B1B398"></path>
                <path d="M18.5072,20.147 C17.5022,19.845 17.3022,20.047 17.0002,20.047 L16.8992,20.047 L17.0002,20.248 C17.4022,20.248 17.6032,19.945 18.5072,20.147" id="Fill-220" fill="#B1B398"></path>
                <path d="M18.6571,20.147 C17.5531,20.047 17.9051,20.7 17.0001,20.7 L16.8991,20.7 L17.0001,20.85 C18.1051,20.85 17.6031,20.248 18.6571,20.147" id="Fill-222" fill="#B1B398"></path>
                <path d="M17.9046,21.7535 C17.9046,21.2545 17.4996,20.8505 17.0006,20.8505 C16.5006,20.8505 16.0966,21.2545 16.0966,21.7535 C16.2156,21.2545 16.7146,20.9465 17.2156,21.0655 C17.5566,21.1445 17.8226,21.4115 17.9046,21.7535" id="Fill-224" fill="#B1B398"></path>
                <path d="M12.8827,15.7261 C14.0377,14.7241 15.4937,14.5721 16.2967,15.3271 C16.8797,16.1051 16.8277,17.0241 16.1477,17.9871 L16.3467,18.0871 C16.8537,17.1231 16.9417,16.1291 16.5977,15.2251 C15.4937,14.3221 13.9877,14.2221 12.8827,15.7261" id="Fill-226" fill="#B1B398"></path>
                <path d="M14.6908,15.4263 C15.3428,15.4263 15.4938,15.5773 15.7948,15.8273 C16.0968,16.0793 16.2478,16.0293 16.2968,16.0793 L16.1968,16.2293 C16.0968,16.1803 15.8948,16.0793 15.5938,15.8273 C15.2938,15.5773 14.9918,15.5773 14.6908,15.5773 C13.7868,15.5773 13.2838,16.3293 13.1838,16.2803 C13.0828,16.2293 13.6868,15.4263 14.6908,15.4263" id="Fill-228" fill="#B1B398"></path>
                <path d="M13.536,16.2798 C14.188,15.5778 15.392,15.5268 15.895,16.3298 L15.694,16.3298 C15.192,15.5268 13.988,15.8798 13.887,16.2288 L13.887,16.3298" id="Fill-230" fill="#B1B398"></path>
                <path d="M14.7909,15.7769 C14.5409,15.7769 14.3379,15.9809 14.3379,16.2289 C14.3379,16.4799 14.5409,16.6809 14.7909,16.6809 C15.0409,16.6809 15.2429,16.4799 15.2429,16.2289 C15.2429,15.9809 15.0409,15.7769 14.7909,15.7769" id="Fill-232" fill="#B1B398"></path>
                <path d="M15.8949,16.3296 C15.3929,16.7826 14.2899,16.8326 13.5359,16.2796 L13.8869,16.2286 C14.3899,16.7826 15.1919,16.7316 15.6939,16.3296 L15.6939,16.2286" id="Fill-234" fill="#B1B398"></path>
                <path d="M13.4852,16.5318 C14.3382,17.1838 15.1922,17.1348 15.6932,16.8328 C16.1962,16.5318 16.1962,16.4288 16.0962,16.4288 C15.9952,16.4288 15.8952,16.5318 15.4932,16.7318 C15.0922,16.9318 14.4892,16.9318 13.4852,16.5318" id="Fill-236" fill="#B1B398"></path>
                <path d="M15.9457,18.0376 C15.7887,18.0936 15.7067,18.2656 15.7627,18.4236 C15.8197,18.5786 15.9897,18.6606 16.1477,18.6036 C16.2617,18.5656 16.3397,18.4596 16.3467,18.3396 C16.3967,18.4386 16.5977,18.7406 17.0007,18.7406 L17.1007,18.7406 L17.0007,18.8916 C16.8997,18.8916 16.5977,18.8916 16.3967,18.7406 C16.2557,18.9446 15.9737,18.9956 15.7687,18.8526 C15.5637,18.7106 15.5127,18.4286 15.6547,18.2246 C15.7237,18.1266 15.8287,18.0586 15.9457,18.0376" id="Fill-238" fill="#B1B398"></path>
                <path d="M15.3431,20.147 C15.7951,19.845 15.9951,19.395 16.4981,19.395 C16.5981,19.395 16.7991,19.445 17.0001,19.544 L17.1011,19.544 L17.0001,19.695 C16.7991,19.695 16.4981,19.445 16.1471,19.645 C15.7951,19.845 15.5931,20.047 15.3431,20.147" id="Fill-240" fill="#B1B398"></path>
                <path d="M15.4935,20.147 C16.4975,19.845 16.6995,20.047 17.0005,20.047 L17.1005,20.047 L17.0005,20.248 C16.5975,20.248 16.3965,19.945 15.4935,20.147" id="Fill-242" fill="#B1B398"></path>
                <path d="M15.3431,20.147 C16.4481,20.047 16.0961,20.7 17.0001,20.7 L17.1011,20.7 L17.0001,20.85 C15.8951,20.85 16.3961,20.248 15.3431,20.147" id="Fill-244" fill="#B1B398"></path>
                <path d="M16.0965,21.7535 C16.0965,21.2545 16.5005,20.8505 17.0005,20.8505 C17.4995,20.8505 17.9045,21.2545 17.9045,21.7535 C17.7855,21.2545 17.2845,20.9465 16.7855,21.0655 C16.4435,21.1445 16.1775,21.4115 16.0965,21.7535" id="Fill-246" fill="#B1B398"></path>
            </g>
        </g>
    </g>
</svg>