<?xml version="1.0" encoding="UTF-8"?>
<svg width="118px" height="136px" viewBox="0 0 118 136" version="1.1" xmlns="http://www.w3.org/2000/svg" xmlns:xlink="http://www.w3.org/1999/xlink">
    <!-- Generator: Sketch 55.2 (78181) - https://sketchapp.com -->
    <title>australia</title>
    <desc>Created with Sketch.</desc>
    <g id="Page-1" stroke="none" stroke-width="1" fill="none" fill-rule="evenodd">
        <g id="australia">
            <polygon id="Fill-1" fill="#155EAC" points="58.9995 -0.0001 0.0005 33.9569 0.0005 101.8699 58.9995 135.8269 117.9995 101.8699 117.9995 33.9569"></polygon>
            <polygon id="Fill-2" fill="#004FA4" points="58.9995 -0.0001 58.9995 135.8269 117.9995 101.8699 117.9995 33.9569"></polygon>
            <polygon id="Fill-3" fill="#FFFFFF" points="29.9998 94.2701 24.4348 99.4141 24.9858 91.8561 17.4958 90.7111 23.7478 86.4301 19.9718 79.8611 27.2178 82.0801 29.9998 75.0321 32.7828 82.0801 40.0278 79.8611 36.2518 86.4301 42.5038 90.7111 35.0138 91.8561 35.5648 99.4141"></polygon>
            <polygon id="Fill-4" fill="#FFFFFF" points="86.9998 40.5572 84.6298 42.7462 84.8648 39.5292 81.6758 39.0412 84.3378 37.2182 82.7298 34.4212 85.8148 35.3662 86.9998 32.3652 88.1848 35.3662 91.2698 34.4212 89.6618 37.2182 92.3248 39.0412 89.1348 39.5292 89.3698 42.7462"></polygon>
            <polygon id="Fill-5" fill="#FFFFFF" points="102.9998 52.5572 100.6298 54.7462 100.8648 51.5292 97.6758 51.0412 100.3378 49.2182 98.7298 46.4212 101.8148 47.3662 102.9998 44.3652 104.1848 47.3662 107.2698 46.4212 105.6618 49.2182 108.3248 51.0412 105.1348 51.5292 105.3698 54.7462"></polygon>
            <polygon id="Fill-6" fill="#FFFFFF" points="72.9998 61.5572 70.6298 63.7462 70.8648 60.5292 67.6758 60.0412 70.3378 58.2182 68.7298 55.4212 71.8148 56.3662 72.9998 53.3652 74.1848 56.3662 77.2698 55.4212 75.6618 58.2182 78.3248 60.0412 75.1348 60.5292 75.3698 63.7462"></polygon>
            <polygon id="Fill-7" fill="#FFFFFF" points="86.9998 105.5572 84.6298 107.7462 84.8648 104.5292 81.6758 104.0412 84.3378 102.2182 82.7298 99.4212 85.8148 100.3662 86.9998 97.3652 88.1848 100.3662 91.2698 99.4212 89.6618 102.2182 92.3248 104.0412 89.1348 104.5292 89.3698 107.7462"></polygon>
            <polygon id="Fill-8" fill="#FFFFFF" points="93.9998 69.3296 92.3548 70.1936 92.6688 68.3626 91.3388 67.0656 93.1778 66.7986 93.9998 65.1326 94.8218 66.7986 96.6608 67.0656 95.3308 68.3626 95.6448 70.1936"></polygon>
            <polygon id="Fill-9" fill="#D73F45" points="10.5003 27.9134 0.0003 33.9574 0.0003 37.4134 58.9993 37.4134 58.9993 27.4144"></polygon>
            <polygon id="Fill-10" fill="#D73F45" points="24.9998 19.5679 24.9998 60.4139 32.9998 60.4139 33.0278 14.9739"></polygon>
            <polygon id="Fill-11" fill="#D73F45" points="0 60.4133 4.999 60.4133 23.083 39.8293 19.499 39.1223"></polygon>
            <polygon id="Fill-12" fill="#D73F45" points="56.0833 60.4136 59.0003 60.4136 59.0003 55.9136 41.5833 39.1216 38.0003 39.8296"></polygon>
            <polygon id="Fill-13" fill="#D73F45" points="12.5433 26.7398 20.0003 26.4138 19.5103 22.7268"></polygon>
            <polygon id="Fill-14" fill="#D73F45" points="33.9998 27.4136 39.9998 27.4136 58.9998 7.7266 58.9998 2.4136"></polygon>
            <polygon id="Fill-15" fill="#FFFFFF" points="23.9998 25.6997 20.5738 22.1157 17.0258 24.1567 18.2588 25.4137 14.8508 25.4137 7.8938 29.4137 25.9998 29.4137 25.9998 18.9927 23.9998 20.1427"></polygon>
            <polygon id="Fill-16" fill="#FFFFFF" points="0 36.4139 0 39.4139 15.112 39.4139 6.34 48.2629 0 54.7179 0 60.4129 0.443 60.4129 9.932 50.3839 19.363 40.4139 22.225 40.4139 12.003 51.3659 3.558 60.4129 4.997 60.4129 12.956 51.7729 23.999 39.8219 23.999 56.0139 23.999 60.4129 26 60.4129 26 56.5799 26 36.4139"></polygon>
            <polygon id="Fill-17" fill="#FFFFFF" points="31.9998 58.2242 31.9998 60.4132 33.9998 60.4132 33.9998 58.5832 33.9998 39.8222 52.2798 60.4132 58.9998 60.4132 39.4578 40.4132 42.1958 40.4132 58.9998 57.2952 58.9998 55.1792 43.8858 39.4132 58.9998 39.4132 58.9998 36.4132 31.9998 36.4132"></polygon>
            <polygon id="Fill-18" fill="#FFFFFF" points="58.9998 1.7329 33.9998 25.6999 33.9888 14.3939 31.9998 15.5399 31.9998 29.4139 58.9998 29.4139 58.9998 26.4139 43.4568 26.4139 58.9998 11.5499 58.9998 6.0869 38.6358 26.4139 35.4918 26.4139 58.9998 3.3779"></polygon>
        </g>
    </g>
</svg>