<?xml version="1.0" encoding="UTF-8"?>
<svg width="118px" height="136px" viewBox="0 0 118 136" version="1.1" xmlns="http://www.w3.org/2000/svg" xmlns:xlink="http://www.w3.org/1999/xlink">
    <!-- Generator: Sketch 55.2 (78181) - https://sketchapp.com -->
    <title>bulgaria</title>
    <desc>Created with Sketch.</desc>
    <g id="Page-1" stroke="none" stroke-width="1" fill="none" fill-rule="evenodd">
        <g id="bulgaria">
            <polygon id="Fill-1" fill="#F7F300" points="58.9995 -0.0001 0.0005 33.9559 0.0005 101.8699 58.9995 135.8269 117.9995 101.8699 117.9995 33.9559"></polygon>
            <polygon id="Fill-2" fill="#009416" points="0 90.16 118 90.16 118 45.16 0 45.16"></polygon>
            <polygon id="Fill-3" fill="#E9E9E9" points="58.9995 -0.0001 0.0005 33.9559 0.0005 45.1599 117.9995 45.1599 117.9995 33.9559"></polygon>
            <polygon id="Fill-4" fill="#D02228" points="0 90.1601 0 101.8701 58.999 135.8271 118 101.8701 118 90.1601"></polygon>
            <polygon id="Fill-5" fill="#19A82D" points="0 90.16 58.999 90.16 58.999 45.16 0 45.16"></polygon>
            <polygon id="Fill-6" fill="#FFFFFF" points="58.9995 -0.0001 0.0005 33.9559 0.0005 45.1599 58.9995 45.1599"></polygon>
            <polygon id="Fill-7" fill="#D73F45" points="0 90.1601 0 101.8701 58.999 135.8271 58.999 90.1601"></polygon>
        </g>
    </g>
</svg>