<?xml version="1.0" encoding="UTF-8"?>
<svg width="118px" height="136px" viewBox="0 0 118 136" version="1.1" xmlns="http://www.w3.org/2000/svg" xmlns:xlink="http://www.w3.org/1999/xlink">
    <!-- Generator: Sketch 55.2 (78181) - https://sketchapp.com -->
    <title>brazil</title>
    <desc>Created with Sketch.</desc>
    <g id="Page-1" stroke="none" stroke-width="1" fill="none" fill-rule="evenodd">
        <g id="brazil">
            <polygon id="Fill-1" fill="#26AD39" points="59.0004 -0.0001 0.0004 33.9559 0.0004 101.8699 59.0004 135.8269 118.0004 101.8699 118.0004 33.9559"></polygon>
            <polygon id="Fill-2" fill="#009416" points="59.0004 -0.0001 59.0004 135.8269 118.0004 101.8699 118.0004 33.9559"></polygon>
            <polygon id="Fill-3" fill="#F7F300" points="93.1945 58.9404 59.1125 34.4334 24.4295 59.0714 12.0475 67.8674 59.1125 100.9764 105.6095 67.8674"></polygon>
            <polygon id="Fill-4" fill="#F7D500" points="105.6096 67.8671 93.1946 58.9401 59.1986 34.4331 59.0006 34.6361 59.0006 100.7771 59.1986 100.9761"></polygon>
            <g id="Group-137" transform="translate(36.000000, 43.827000)">
                <path d="M46.4948,23.8175 C46.4948,36.5205 36.1978,46.8175 23.4948,46.8175 C10.7918,46.8175 0.4948,36.5205 0.4948,23.8175 C0.4948,11.1155 10.7918,0.8175 23.4948,0.8175 C36.1978,0.8175 46.4948,11.1155 46.4948,23.8175" id="Fill-5" fill="#155EAC"></path>
                <path d="M46.4948,23.8175 C46.4948,11.1155 36.2798,0.8175 22.9998,0.8175 L22.9998,46.8175 C36.2798,46.8175 46.4948,36.5205 46.4948,23.8175" id="Fill-7" fill="#004FA4"></path>
                <polygon id="Fill-9" fill="#FFFFFF" points="3.3976 30.0743 4.9336 30.0743 5.3876 28.6113 5.8956 30.0743 7.3796 30.0743 6.1306 31.1083 6.6376 32.5923 5.3876 31.5943 4.1406 32.5923 4.6476 31.1083"></polygon>
                <polygon id="Fill-11" fill="#FFFFFF" points="3.3976 30.0743 3.3976 30.0873 4.9426 30.0873 5.3886 28.6513 5.8866 30.0873 7.3436 30.0873 6.1156 31.1033 6.6116 32.5543 5.3876 31.5783 4.1666 32.5543 4.6626 31.1033 3.4056 30.0643 3.3976 30.0743 3.3976 30.0873 3.3976 30.0743 3.3896 30.0843 4.6326 31.1123 4.1146 32.6293 5.3876 31.6103 6.6646 32.6303 6.1456 31.1123 7.4146 30.0613 5.9046 30.0613 5.3866 28.5703 4.9236 30.0613 3.3616 30.0613 3.3896 30.0843"></polygon>
                <polygon id="Fill-13" fill="#FFFFFF" points="10.6154 25.7696 12.1344 25.7696 12.5694 24.2866 13.0764 25.7696 14.5954 25.7696 13.3674 26.7626 13.8544 28.2666 12.5694 27.2536 11.3564 28.2666 11.8284 26.7626"></polygon>
                <polygon id="Fill-15" fill="#FFFFFF" points="10.6154 25.7696 10.6154 25.7836 12.1444 25.7836 12.5704 24.3286 13.0684 25.7836 14.5594 25.7836 13.3534 26.7586 13.8294 28.2316 12.5694 27.2376 11.3814 28.2296 11.8434 26.7586 10.6234 25.7596 10.6154 25.7696 10.6154 25.7836 10.6154 25.7696 10.6074 25.7806 11.8134 26.7676 11.3314 28.3046 12.5694 27.2706 13.8794 28.3026 13.3834 26.7676 14.6314 25.7566 13.0854 25.7566 12.5684 24.2446 12.1244 25.7566 10.5794 25.7566 10.6074 25.7806"></polygon>
                <polygon id="Fill-17" fill="#FFFFFF" points="26.863 14.9317 28.418 14.9317 28.836 13.4317 29.343 14.9317 30.843 14.9317 29.631 15.9097 30.123 17.4107 28.836 16.4147 27.604 17.4107 28.111 15.9097"></polygon>
                <polygon id="Fill-19" fill="#FFFFFF" points="26.863 14.9317 26.863 14.9457 28.428 14.9457 28.837 13.4747 29.334 14.9457 30.807 14.9457 29.616 15.9047 30.098 17.3747 28.836 16.3987 27.63 17.3727 28.126 15.9047 26.871 14.9217 26.863 14.9317 26.863 14.9457 26.863 14.9317 26.855 14.9417 28.096 15.9127 27.578 17.4477 28.836 16.4307 30.148 17.4467 29.646 15.9127 30.879 14.9187 29.352 14.9187 28.835 13.3887 28.408 14.9187 26.826 14.9187 26.855 14.9417"></polygon>
                <polygon id="Fill-21" fill="#FFFFFF" points="18.9753 29.2608 20.3683 29.2608 20.7473 27.9048 21.2173 29.2608 22.5943 29.2608 21.4523 30.1818 21.8873 31.5228 20.7473 30.6358 19.6453 31.5228 20.1123 30.1818"></polygon>
                <polygon id="Fill-23" fill="#FFFFFF" points="18.9753 29.2608 18.9753 29.2748 20.3783 29.2748 20.7483 27.9478 21.2083 29.2748 22.5583 29.2748 21.4373 30.1768 21.8623 31.4868 20.7473 30.6188 19.6723 31.4848 20.1273 30.1768 18.9833 29.2508 18.9753 29.2608 18.9753 29.2748 18.9753 29.2608 18.9673 29.2708 20.0983 30.1858 19.6193 31.5608 20.7473 30.6518 21.9123 31.5588 21.4673 30.1858 22.6293 29.2478 21.2253 29.2478 20.7463 27.8618 20.3583 29.2478 18.9393 29.2478 18.9673 29.2708"></polygon>
                <polygon id="Fill-25" fill="#FFFFFF" points="15.6642 31.8507 16.7672 31.8507 17.1122 30.7807 17.4712 31.8507 18.5772 31.8507 17.6552 32.5917 18.0142 33.6577 17.1122 32.9517 16.1882 33.6577 16.5502 32.5917"></polygon>
                <polygon id="Fill-27" fill="#FFFFFF" points="15.6642 31.8507 15.6642 31.8637 16.7672 31.8637 16.7752 31.8637 17.1122 30.8207 17.4622 31.8637 18.5412 31.8637 17.6402 32.5877 17.9882 33.6217 17.1122 32.9347 16.2142 33.6217 16.5652 32.5877 15.6722 31.8407 15.6642 31.8507 15.6642 31.8637 15.6642 31.8507 15.6562 31.8607 16.5352 32.5957 16.1622 33.6937 17.1122 32.9667 18.0402 33.6947 17.6702 32.5967 18.6122 31.8377 17.4802 31.8377 17.1122 30.7397 16.7572 31.8377 15.6642 31.8377 15.6292 31.8377 15.6562 31.8607"></polygon>
                <polygon id="Fill-29" fill="#FFFFFF" points="22.901 32.5558 24.006 32.5558 24.329 31.4868 24.692 32.5558 25.777 32.5558 24.907 33.3138 25.255 34.3628 24.329 33.6578 23.443 34.3628 23.806 33.3138"></polygon>
                <polygon id="Fill-31" fill="#FFFFFF" points="22.901 32.5558 22.901 32.5688 24.006 32.5688 24.015 32.5688 24.33 31.5288 24.683 32.5688 25.744 32.5688 24.892 33.3098 25.23 34.3268 24.329 33.6418 23.468 34.3258 23.818 33.3178 23.821 33.3098 22.909 32.5448 22.901 32.5558 22.901 32.5688 22.901 32.5558 22.893 32.5658 23.792 33.3178 23.416 34.3998 24.329 33.6738 25.28 34.3988 24.922 33.3178 25.812 32.5418 24.701 32.5418 24.328 31.4468 23.997 32.5418 22.901 32.5418 22.866 32.5418 22.893 32.5658"></polygon>
                <polygon id="Fill-33" fill="#FFFFFF" points="9.9089 37.2589 11.0139 37.2589 11.3559 36.1889 11.7199 37.2589 12.7879 37.2589 11.8989 38.0009 12.2459 39.0669 11.3559 38.3599 10.4349 39.0669 10.7989 38.0009"></polygon>
                <polygon id="Fill-35" fill="#FFFFFF" points="9.9089 37.2589 9.9089 37.2729 11.0139 37.2729 11.0229 37.2729 11.3559 36.2299 11.7109 37.2729 12.7539 37.2729 11.8839 37.9959 12.2209 39.0299 11.3559 38.3429 10.4609 39.0299 10.8129 37.9969 9.9169 37.2489 9.9089 37.2589 9.9089 37.2729 9.9089 37.2589 9.9009 37.2699 10.7839 38.0049 10.4089 39.1029 11.3559 38.3749 12.2719 39.1039 11.9139 38.0049 12.8239 37.2459 11.7289 37.2459 11.3559 36.1489 11.0049 37.2459 9.9089 37.2459 9.8739 37.2459 9.9009 37.2699"></polygon>
                <polygon id="Fill-37" fill="#FFFFFF" points="20.384 42.6847 21.09 42.6847 21.325 41.9777 21.581 42.6847 22.338 42.6847 21.725 43.1377 21.904 43.8447 21.325 43.4257 20.748 43.8447 20.966 43.1377"></polygon>
                <polygon id="Fill-39" fill="#FFFFFF" points="20.384 42.6847 20.384 42.6977 21.09 42.6977 21.099 42.6977 21.325 42.0167 21.569 42.6897 21.572 42.6977 22.3 42.6977 21.717 43.1277 21.711 43.1327 21.883 43.8137 21.332 43.4157 21.325 43.4107 20.771 43.8117 20.977 43.1417 20.981 43.1327 20.392 42.6747 20.384 42.6847 20.384 42.6977 20.384 42.6847 20.376 42.6947 20.95 43.1427 20.736 43.8407 20.724 43.8777 21.325 43.4427 21.896 43.8557 21.925 43.8747 21.739 43.1427 22.346 42.6947 22.377 42.6717 21.59 42.6717 21.337 41.9737 21.324 41.9397 21.081 42.6717 20.384 42.6717 20.347 42.6717 20.376 42.6947"></polygon>
                <polygon id="Fill-41" fill="#FFFFFF" points="2.693 18.5499 4.212 18.5499 4.647 17.0859 5.133 18.5499 6.674 18.5499 5.424 19.5469 5.912 21.0469 4.647 20.0899 3.435 21.0469 3.941 19.5469"></polygon>
                <polygon id="Fill-43" fill="#FFFFFF" points="2.693 18.5499 2.693 18.5639 4.222 18.5639 4.648 17.1279 5.124 18.5639 6.637 18.5639 5.41 19.5429 5.887 21.0129 4.647 20.0739 3.46 21.0109 3.955 19.5429 2.701 18.5399 2.693 18.5499 2.693 18.5639 2.693 18.5499 2.685 18.5609 3.925 19.5519 3.409 21.0839 4.647 20.1059 5.937 21.0819 5.44 19.5519 6.711 18.5369 5.142 18.5369 4.646 17.0439 4.202 18.5369 2.657 18.5369 2.685 18.5609"></polygon>
                <polygon id="Fill-45" fill="#FFFFFF" points="18.9406 35.4679 19.6456 35.4679 19.8966 34.7609 20.1536 35.4679 20.8896 35.4679 20.2956 35.9399 20.4966 36.6049 19.8966 36.1889 19.2996 36.6049 19.5346 35.9399"></polygon>
                <polygon id="Fill-47" fill="#FFFFFF" points="18.9406 35.4679 18.9406 35.4809 19.6456 35.4809 19.6546 35.4809 19.8966 34.7989 20.1416 35.4729 20.1446 35.4809 20.8536 35.4809 20.2876 35.9289 20.2806 35.9349 20.4736 36.5719 19.9036 36.1779 19.8966 36.1729 19.3246 36.5709 19.5466 35.9439 19.5496 35.9349 18.9486 35.4579 18.9406 35.4679 18.9406 35.4809 18.9406 35.4679 18.9326 35.4779 19.5206 35.9439 19.2876 36.5999 19.2736 36.6369 19.8966 36.2039 20.4896 36.6139 20.5196 36.6359 20.3106 35.9439 20.8976 35.4779 20.9266 35.4549 20.1626 35.4549 19.9086 34.7569 19.8966 34.7239 19.6366 35.4549 18.9406 35.4549 18.9046 35.4549 18.9326 35.4779"></polygon>
                <polygon id="Fill-49" fill="#FFFFFF" points="19.2995 38.3595 20.0055 38.3595 20.2245 37.6375 20.4965 38.3595 21.2365 38.3595 20.6395 38.7785 20.8555 39.4845 20.2245 39.0665 19.6455 39.4845 19.8965 38.7785"></polygon>
                <polygon id="Fill-51" fill="#FFFFFF" points="19.2995 38.3595 19.2995 38.3725 20.0055 38.3725 20.0145 38.3725 20.2255 37.6765 20.4845 38.3645 20.4875 38.3725 21.1955 38.3725 20.6325 38.7675 20.6245 38.7735 20.8325 39.4545 20.2315 39.0555 20.2245 39.0505 19.6715 39.4505 19.9085 38.7825 19.9115 38.7735 19.3065 38.3485 19.2995 38.3595 19.2995 38.3725 19.2995 38.3595 19.2925 38.3705 19.8825 38.7835 19.6335 39.4805 19.6195 39.5185 20.2245 39.0825 20.8485 39.4955 20.8785 39.5145 20.6545 38.7835 21.2435 38.3705 21.2775 38.3465 20.5055 38.3465 20.2365 37.6335 20.2235 37.5985 19.9955 38.3465 19.2995 38.3465 19.2595 38.3465 19.2925 38.3705"></polygon>
                <polygon id="Fill-53" fill="#FFFFFF" points="25.7775 38.0011 26.4995 38.0011 26.7545 37.2941 26.9905 38.0011 27.7335 38.0011 27.1345 38.4521 27.3525 39.1561 26.7545 38.7431 26.1405 39.1561 26.3905 38.4521"></polygon>
                <polygon id="Fill-55" fill="#FFFFFF" points="25.7775 38.0011 25.7775 38.0141 26.4995 38.0141 26.5075 38.0141 26.7535 37.3331 26.9785 38.0051 26.9815 38.0141 27.6945 38.0141 27.1265 38.4421 27.1195 38.4471 27.3295 39.1251 26.7615 38.7321 26.7545 38.7281 26.1655 39.1241 26.4025 38.4561 26.4055 38.4471 25.7855 37.9901 25.7775 38.0011 25.7775 38.0141 25.7775 38.0011 25.7695 38.0111 26.3765 38.4561 26.1285 39.1521 26.1155 39.1891 26.7545 38.7591 27.3455 39.1671 27.3755 39.1881 27.1495 38.4571 27.7405 38.0111 27.7705 37.9871 26.9995 37.9871 26.7665 37.2901 26.7545 37.2551 26.4905 37.9871 25.7775 37.9871 25.7385 37.9871 25.7695 38.0111"></polygon>
                <polygon id="Fill-57" fill="#FFFFFF" points="29.0529 38.0011 29.7579 38.0011 29.9729 37.2941 30.2289 38.0011 31.0069 38.0011 30.4089 38.4521 30.5879 39.1561 29.9729 38.7431 29.4149 39.1561 29.6309 38.4521"></polygon>
                <polygon id="Fill-59" fill="#FFFFFF" points="29.0529 38.0011 29.0529 38.0141 29.7579 38.0141 29.7669 38.0141 29.9739 37.3341 30.2169 38.0051 30.2199 38.0141 30.9699 38.0141 30.4009 38.4421 30.3939 38.4471 30.5669 39.1271 29.9809 38.7321 29.9729 38.7281 29.4389 39.1231 29.6419 38.4551 29.6459 38.4471 29.0609 37.9901 29.0529 38.0011 29.0529 38.0141 29.0529 38.0011 29.0449 38.0111 29.6159 38.4561 29.4029 39.1521 29.3909 39.1891 29.9729 38.7591 30.5809 39.1671 30.6079 39.1861 30.4229 38.4571 31.0149 38.0111 31.0449 37.9871 30.2379 37.9871 29.9859 37.2891 29.9719 37.2541 29.7489 37.9871 29.0529 37.9871 29.0159 37.9871 29.0449 38.0111"></polygon>
                <polygon id="Fill-61" fill="#FFFFFF" points="26.5402 40.8771 27.2412 40.8771 27.4962 40.1491 27.7332 40.8771 28.4902 40.8771 27.8762 41.3281 28.1102 41.9991 27.4962 41.5831 26.8822 41.9991 27.1342 41.3281"></polygon>
                <polygon id="Fill-63" fill="#FFFFFF" points="26.5402 40.8771 26.5402 40.8901 27.2412 40.8901 27.2492 40.8901 27.4962 40.1901 27.7212 40.8811 27.7242 40.8901 28.4522 40.8901 27.8682 41.3171 27.8612 41.3221 28.0852 41.9671 27.5032 41.5721 27.4962 41.5671 26.9082 41.9661 27.1462 41.3321 27.1492 41.3231 26.5482 40.8661 26.5402 40.8771 26.5402 40.8901 26.5402 40.8771 26.5322 40.8871 27.1202 41.3321 26.8702 41.9941 26.8562 42.0311 27.4962 41.5991 28.1032 42.0091 28.1352 42.0311 27.8912 41.3321 28.4982 40.8871 28.5292 40.8631 27.7422 40.8631 27.5082 40.1461 27.4962 40.1101 27.2322 40.8631 26.5402 40.8631 26.5022 40.8631 26.5322 40.8871"></polygon>
                <polygon id="Fill-65" fill="#FFFFFF" points="41.0114 31.1417 41.7174 31.1417 41.9314 30.4377 42.1884 31.1417 42.9664 31.1417 42.3474 31.5577 42.5314 32.2817 41.9314 31.8507 41.3544 32.2817 41.5694 31.5577"></polygon>
                <polygon id="Fill-67" fill="#FFFFFF" points="41.0114 31.1417 41.0114 31.1547 41.7174 31.1547 41.7254 31.1547 41.9324 30.4777 42.1764 31.1467 42.1794 31.1547 42.9254 31.1547 42.3404 31.5467 42.3324 31.5517 42.5104 32.2497 41.9384 31.8397 41.9314 31.8347 41.3774 32.2477 41.5804 31.5607 41.5834 31.5527 41.0194 31.1307 41.0114 31.1417 41.0114 31.1547 41.0114 31.1417 41.0034 31.1517 41.5534 31.5627 41.3424 32.2777 41.3314 32.3137 41.9314 31.8667 42.5244 32.2907 42.5524 32.3117 42.3624 31.5627 42.9734 31.1527 43.0084 31.1287 42.1974 31.1287 41.9444 30.4337 41.9304 30.3987 41.7074 31.1287 41.0114 31.1287 40.9724 31.1287 41.0034 31.1517"></polygon>
                <polygon id="Fill-69" fill="#FFFFFF" points="37.0143 31.4864 37.7373 31.4864 37.9873 30.7804 38.2223 31.4864 38.9853 31.4864 38.3713 31.9214 38.5863 32.6284 37.9873 32.2084 37.3743 32.6284 37.6283 31.9214"></polygon>
                <polygon id="Fill-71" fill="#FFFFFF" points="37.0143 31.4864 37.0143 31.5004 37.7373 31.5004 37.7453 31.5004 37.9873 30.8194 38.2113 31.4904 38.2143 31.5004 38.9453 31.5004 38.3643 31.9114 38.3563 31.9164 38.5643 32.5954 37.9943 32.1984 37.9873 32.1934 37.3993 32.5944 37.6403 31.9254 37.6433 31.9164 37.0213 31.4764 37.0143 31.4864 37.0143 31.5004 37.0143 31.4864 37.0073 31.4974 37.6143 31.9254 37.3623 32.6234 37.3483 32.6614 37.9873 32.2234 38.5793 32.6384 38.6093 32.6604 38.3863 31.9254 38.9923 31.4974 39.0253 31.4734 38.2323 31.4734 37.9993 30.7764 37.9873 30.7414 37.7283 31.4734 37.0143 31.4734 36.9743 31.4734 37.0073 31.4974"></polygon>
                <polygon id="Fill-73" fill="#FFFFFF" points="37.737 36.5333 38.443 36.5333 38.694 35.8273 38.93 36.5333 39.691 36.5333 39.093 36.9663 39.292 37.6743 38.694 37.2593 38.079 37.6743 38.336 36.9663"></polygon>
                <polygon id="Fill-75" fill="#FFFFFF" points="37.737 36.5333 37.737 36.5463 38.443 36.5463 38.452 36.5463 38.693 35.8653 38.918 36.5373 38.921 36.5463 39.652 36.5463 39.085 36.9553 39.078 36.9613 39.27 37.6423 38.701 37.2493 38.694 37.2443 38.104 37.6413 38.347 36.9703 38.35 36.9613 37.744 36.5233 37.737 36.5333 37.737 36.5463 37.737 36.5333 37.729 36.5443 38.32 36.9703 38.067 37.6693 38.054 37.7063 38.694 37.2743 39.285 37.6833 39.314 37.7043 39.108 36.9703 39.698 36.5443 39.731 36.5203 38.939 36.5203 38.706 35.8223 38.694 35.7883 38.434 36.5203 37.737 36.5203 37.698 36.5203 37.729 36.5443"></polygon>
                <polygon id="Fill-77" fill="#FFFFFF" points="37.9875 33.9483 38.5145 33.9483 38.6945 33.3853 38.9135 33.9483 39.4725 33.9483 39.0415 34.3053 39.1645 34.8343 38.6945 34.5073 38.2225 34.8343 38.4425 34.3053"></polygon>
                <polygon id="Fill-79" fill="#FFFFFF" points="37.9875 33.9483 37.9875 33.9613 38.5145 33.9613 38.5235 33.9613 38.6955 33.4233 38.9025 33.9523 38.9045 33.9613 39.4365 33.9613 39.0335 34.2963 39.0275 34.3013 39.1445 34.8043 38.7005 34.4963 38.6945 34.4913 38.2505 34.7993 38.4545 34.3103 38.4575 34.3023 37.9955 33.9373 37.9875 33.9483 37.9875 33.9613 37.9875 33.9483 37.9795 33.9583 38.4265 34.3093 38.2115 34.8283 38.1945 34.8693 38.6945 34.5223 39.1575 34.8443 39.1845 34.8633 39.0545 34.3103 39.4805 33.9583 39.5075 33.9343 38.9235 33.9343 38.7065 33.3803 38.6935 33.3463 38.5055 33.9343 37.9875 33.9343 37.9505 33.9343 37.9795 33.9583"></polygon>
                <polygon id="Fill-81" fill="#FFFFFF" points="35.3117 36.7511 35.8537 36.7511 36.0377 36.2101 36.2357 36.7511 36.8147 36.7511 36.3447 37.1101 36.4887 37.6741 36.0377 37.3111 35.5667 37.6741 35.7817 37.1101"></polygon>
                <polygon id="Fill-83" fill="#FFFFFF" points="35.3117 36.7511 35.3117 36.7641 35.8537 36.7641 35.8627 36.7641 36.0377 36.2491 36.2237 36.7561 36.2277 36.7641 36.7767 36.7641 36.3357 37.1001 36.3297 37.1051 36.4667 37.6401 36.0447 37.3011 36.0377 37.2941 35.5947 37.6361 35.7937 37.1141 35.7967 37.1051 35.3197 36.7411 35.3117 36.7511 35.3117 36.7641 35.3117 36.7511 35.3037 36.7611 35.7667 37.1141 35.5547 37.6691 35.5397 37.7111 36.0377 37.3271 36.4807 37.6841 36.5107 37.7081 36.3577 37.1151 36.8227 36.7611 36.8527 36.7381 36.2447 36.7381 36.0487 36.2061 36.0377 36.1731 35.8457 36.7381 35.3117 36.7381 35.2737 36.7381 35.3037 36.7611"></polygon>
                <polygon id="Fill-85" fill="#FFFFFF" points="32.363 37.1105 32.905 37.1105 33.085 36.5895 33.286 37.1105 33.863 37.1105 33.432 37.4585 33.576 38.0365 33.085 37.6735 32.655 38.0365 32.833 37.4585"></polygon>
                <polygon id="Fill-87" fill="#FFFFFF" points="32.363 37.1105 32.363 37.1235 32.905 37.1235 32.914 37.1235 33.086 36.6265 33.274 37.1145 33.277 37.1235 33.827 37.1235 33.424 37.4485 33.418 37.4535 33.555 38.0055 33.093 37.6635 33.084 37.6575 32.679 37.9995 32.845 37.4625 32.848 37.4535 32.371 37.0995 32.363 37.1105 32.363 37.1235 32.363 37.1105 32.355 37.1205 32.819 37.4635 32.642 38.0325 32.63 38.0745 33.085 37.6895 33.568 38.0465 33.597 38.0685 33.446 37.4635 33.871 37.1205 33.899 37.0965 33.295 37.0965 33.097 36.5855 33.084 36.5515 32.896 37.0965 32.363 37.0965 32.324 37.0965 32.355 37.1205"></polygon>
                <polygon id="Fill-89" fill="#FFFFFF" points="31.9846 39.1222 32.5066 39.1222 32.6916 38.5602 32.8706 39.1222 33.4686 39.1222 33.0146 39.4842 33.1416 40.0072 32.6916 39.7002 32.2196 40.0072 32.4346 39.4842"></polygon>
                <polygon id="Fill-91" fill="#FFFFFF" points="31.9846 39.1222 31.9846 39.1352 32.5066 39.1352 32.5156 39.1352 32.6916 38.6012 32.8586 39.1262 32.8596 39.1352 33.4316 39.1352 33.0066 39.4752 33.0006 39.4792 33.1216 39.9772 32.6986 39.6902 32.6916 39.6842 32.2466 39.9742 32.4466 39.4902 32.4496 39.4802 31.9926 39.1122 31.9846 39.1222 31.9846 39.1352 31.9846 39.1222 31.9766 39.1322 32.4186 39.4892 32.2086 40.0022 32.1926 40.0392 32.6916 39.7162 33.1346 40.0172 33.1626 40.0362 33.0276 39.4902 33.4766 39.1322 33.5046 39.1092 32.8796 39.1092 32.7036 38.5572 32.6916 38.5192 32.4976 39.1092 31.9846 39.1092 31.9486 39.1092 31.9766 39.1322"></polygon>
                <polygon id="Fill-93" fill="#FFFFFF" points="32.363 41.1837 32.905 41.1837 33.085 40.6577 33.249 41.1837 33.863 41.1837 33.393 41.5477 33.54 42.1057 33.085 41.7457 32.614 42.1057 32.833 41.5477"></polygon>
                <polygon id="Fill-95" fill="#FFFFFF" points="32.363 41.1837 32.363 41.1967 32.905 41.1967 32.914 41.1967 33.084 40.6987 33.237 41.1877 33.24 41.1967 33.826 41.1967 33.385 41.5377 33.378 41.5427 33.518 42.0717 33.093 41.7367 33.085 41.7307 32.642 42.0677 32.845 41.5517 32.848 41.5427 32.371 41.1737 32.363 41.1837 32.363 41.1967 32.363 41.1837 32.355 41.1937 32.819 41.5517 32.602 42.0997 32.585 42.1427 33.085 41.7617 33.532 42.1157 33.562 42.1387 33.407 41.5527 33.871 41.1937 33.9 41.1707 33.258 41.1707 33.097 40.6537 33.085 40.6177 32.896 41.1707 32.363 41.1707 32.326 41.1707 32.355 41.1937"></polygon>
                <polygon id="Fill-97" fill="#FFFFFF" points="6.0387 12.3985 12.0457 13.5765 18.0507 15.0395 23.9307 16.8135 29.7377 18.8575 35.4547 21.2615 41.0117 23.8865 46.3307 26.6555 46.0577 28.5385 45.3357 31.1415 39.5467 28.1205 33.6117 25.3865 27.5687 22.9305 21.4177 20.7555 15.1387 18.9495 8.8077 17.3365 2.3657 16.1085 1.7867 15.9645 2.5087 14.0265 3.6137 12.0915"></polygon>
                <polygon id="Fill-99" fill="#FFFFFF" points="6.0387 12.3985 6.0367 12.4105 12.0427 13.5885 18.0477 15.0515 23.9267 16.8255 29.7337 18.8695 35.4497 21.2735 41.0057 23.8985 46.3167 26.6625 46.0437 28.5365 45.3277 31.1235 39.5527 28.1085 33.6167 25.3755 27.5737 22.9195 21.4217 20.7445 15.1427 18.9365 8.8097 17.3245 2.3677 16.0965 1.8037 15.9565 2.5207 14.0315 3.6207 12.1055 6.0367 12.4105 6.0387 12.3985 6.0407 12.3845 3.6067 12.0785 2.4977 14.0195 1.7697 15.9735 2.3627 16.1215 8.8057 17.3485 15.1357 18.9605 21.4137 20.7675 27.5647 22.9435 33.6067 25.3985 39.5417 28.1315 45.3437 31.1605 46.0687 28.5425 46.3447 26.6485 41.0177 23.8765 35.4597 21.2515 29.7427 18.8455 23.9347 16.8015 18.0547 15.0275 12.0487 13.5635 6.0407 12.3855"></polygon>
                <path d="M6.3092,14.5323 L6.3092,13.9553 L6.2832,13.8443 L6.0492,13.3573 L5.9542,13.2533 L5.4872,12.9623 L5.3532,12.9233 L4.8252,12.9233 L4.7412,12.9373 L4.2342,13.1153 L4.1232,13.1933 L3.7612,13.6283 L3.7102,13.7273 L3.5662,14.2903 L3.5602,14.3863 L3.6312,14.9283 L3.6962,15.0683 L4.0752,15.4823 L4.1592,15.5433 L4.6502,15.7623 L4.8082,15.7783 L5.3312,15.6673 L5.4102,15.6353 L5.8802,15.3483 L5.9672,15.2603 L6.2742,14.7323 L6.3092,14.6033 L6.3092,14.5323 C6.3092,14.3913 6.1952,14.2773 6.0552,14.2773 C5.9142,14.2773 5.8002,14.3913 5.8002,14.5323 L5.8002,14.5353 L5.5592,14.9483 L5.1822,15.1783 L4.7822,15.2633 L4.4152,15.0993 L4.1252,14.7833 L4.0712,14.3693 L4.1902,13.9093 L4.4702,13.5723 L4.8692,13.4313 L5.2802,13.4313 L5.6232,13.6453 L5.8002,14.0123 L5.8002,14.5323 C5.8002,14.6733 5.9142,14.7873 6.0552,14.7873 C6.1952,14.7873 6.3092,14.6733 6.3092,14.5323" id="Fill-101" fill="#126D2F"></path>
                <path d="M6.8859,15.962 L7.3559,13.735 L8.0669,13.893 L8.3609,13.995 L8.4449,13.755 L8.1899,13.755 L8.1899,13.862 L8.2099,13.961 L8.2979,14.17 L8.2979,14.19 L8.5519,14.19 L8.3089,14.113 L8.2289,14.37 L8.1959,14.392 L8.1839,14.4 L8.0519,14.497 L8.0089,14.497 L7.8339,14.497 L7.0629,14.354 C6.9539,14.333 6.8449,14.386 6.7919,14.483 C6.7399,14.579 6.7559,14.699 6.8309,14.778 L8.2599,16.284 C8.3569,16.386 8.5179,16.391 8.6189,16.293 C8.7219,16.197 8.7259,16.036 8.6299,15.934 L7.7409,14.997 L7.7629,15.002 L7.8099,15.007 L8.0089,15.007 L8.1359,15.007 L8.2869,14.956 L8.4819,14.813 L8.5849,14.744 L8.6869,14.608 L8.7949,14.266 L8.8059,14.19 L8.8059,14.119 L8.7859,14.021 L8.6989,13.812 L8.6989,13.755 C8.6989,13.647 8.6309,13.55 8.5279,13.515 L8.2199,13.407 L8.1909,13.399 L7.2149,13.184 L7.0219,13.218 L6.9119,13.379 L6.3889,15.857 C6.3589,15.994 6.4479,16.129 6.5849,16.158 C6.7219,16.187 6.8569,16.099 6.8859,15.962" id="Fill-103" fill="#126D2F"></path>
                <path d="M9.7892,14.2667 L10.5332,14.5217 L10.5602,14.5297 L10.8412,14.5917 L11.0482,14.7287 L11.1102,14.9617 L11.1962,15.2777 L11.0462,15.5517 L11.0342,15.5767 L10.9332,15.8177 L10.6012,16.0647 L10.3992,16.1467 L10.0352,16.0427 L9.9652,16.0337 L9.8172,16.0337 L9.6482,15.9627 L9.5502,16.1977 L9.8012,16.2347 L10.1232,14.0637 C10.1442,13.9247 10.0482,13.7947 9.9102,13.7747 C9.7702,13.7537 9.6412,13.8497 9.6202,13.9897 L9.2982,16.1607 C9.2812,16.2747 9.3442,16.3867 9.4512,16.4317 L9.6672,16.5227 L9.7662,16.5417 L9.9292,16.5417 L10.3452,16.6607 L10.5112,16.6507 L10.8232,16.5237 L10.8792,16.4927 L11.2932,16.1837 L11.3752,16.0777 L11.4982,15.7857 L11.6912,15.4327 L11.7142,15.2447 L11.6012,14.8287 L11.5142,14.5037 L11.4092,14.3567 L11.0822,14.1407 L10.9972,14.1047 L10.6852,14.0367 L9.9542,13.7867 C9.8212,13.7407 9.6772,13.8117 9.6312,13.9447 C9.5852,14.0777 9.6562,14.2217 9.7892,14.2667" id="Fill-105" fill="#126D2F"></path>
                <path d="M14.2048,14.8126 L12.9198,14.5046 L12.7218,14.5386 L12.6108,14.7036 L12.1748,16.9466 C12.1478,17.0806 12.2328,17.2096 12.3658,17.2426 L13.6518,17.5476 C13.7878,17.5816 13.9258,17.4966 13.9578,17.3596 C13.9918,17.2236 13.9068,17.0856 13.7698,17.0536 L12.7208,16.8036 L13.0588,15.0616 L14.0858,15.3076 C14.2228,15.3406 14.3598,15.2556 14.3928,15.1196 C14.4258,14.9826 14.3408,14.8456 14.2048,14.8126" id="Fill-107" fill="#126D2F"></path>
                <path d="M12.696,16.0665 L13.654,16.2845 C13.792,16.3155 13.927,16.2295 13.959,16.0925 C13.99,15.9565 13.905,15.8195 13.768,15.7885 L12.809,15.5705 C12.672,15.5395 12.536,15.6255 12.504,15.7615 C12.473,15.8995 12.559,16.0365 12.696,16.0665" id="Fill-109" fill="#126D2F"></path>
                <path d="M15.0641,17.7911 L15.4131,16.2171 L15.7521,17.0201 L15.9201,17.1681 L16.1391,17.1261 L16.8581,16.5911 L16.4821,18.1271 C16.4491,18.2641 16.5331,18.4011 16.6691,18.4351 C16.8061,18.4681 16.9431,18.3841 16.9771,18.2481 L17.5201,16.0241 C17.5451,15.9211 17.5031,15.8121 17.4131,15.7531 L17.1201,15.7611 L16.0951,16.5231 L15.5721,15.2841 C15.5281,15.1831 15.4241,15.1201 15.3141,15.1301 C15.2041,15.1401 15.1121,15.2201 15.0881,15.3281 L14.5661,17.6811 C14.5361,17.8181 14.6231,17.9541 14.7601,17.9841 C14.8971,18.0151 15.0331,17.9291 15.0641,17.7911" id="Fill-111" fill="#126D2F"></path>
                <path d="M21.2072,16.7482 L19.5972,16.3482 C19.4672,16.3162 19.3352,16.3902 19.2932,16.5162 L18.6262,18.5432 L18.6432,18.7422 L18.7982,18.8672 L20.3142,19.3012 C20.4482,19.3402 20.5892,19.2612 20.6282,19.1262 C20.6672,18.9912 20.5882,18.8502 20.4532,18.8112 L19.1922,18.4512 L19.7032,16.8982 L21.0832,17.2412 C21.2202,17.2752 21.3582,17.1922 21.3922,17.0562 C21.4262,16.9202 21.3432,16.7812 21.2072,16.7482" id="Fill-113" fill="#126D2F"></path>
                <path d="M19.2448,17.6876 L20.3088,18.0146 C20.4438,18.0566 20.5858,17.9816 20.6278,17.8466 C20.6678,17.7116 20.5928,17.5706 20.4588,17.5286 L19.3938,17.2016 C19.2598,17.1606 19.1178,17.2356 19.0758,17.3706 C19.0348,17.5046 19.1108,17.6466 19.2448,17.6876" id="Fill-115" fill="#126D2F"></path>
                <path d="M22.4377,19.9103 L23.1047,17.8003 L23.9007,18.0433 L24.1487,18.1953 L24.1847,18.2483 L24.0967,18.4483 L24.0777,18.5093 L24.0257,18.8213 L23.8297,18.9313 L23.5157,18.9313 L23.2237,18.8483 L23.2037,18.8433 L22.6817,18.7353 C22.5437,18.7073 22.4097,18.7963 22.3807,18.9333 C22.3537,19.0713 22.4417,19.2063 22.5797,19.2343 L23.0927,19.3403 L23.4087,19.4303 L23.4797,19.4393 L23.8947,19.4393 L24.0187,19.4083 L24.3797,19.2073 L24.5077,19.0263 L24.5747,18.6233 L24.7067,18.3243 L24.6857,18.0803 L24.5407,17.8663 L24.4627,17.7913 L24.1397,17.5923 L24.0807,17.5653 L23.0117,17.2403 C22.8777,17.1993 22.7367,17.2733 22.6947,17.4073 L21.9527,19.7573 C21.9097,19.8903 21.9847,20.0343 22.1187,20.0763 C22.2527,20.1193 22.3947,20.0443 22.4377,19.9103" id="Fill-117" fill="#126D2F"></path>
                <path d="M24.9377,20.6427 L25.5007,18.5507 L26.1847,18.7857 L26.4647,18.9267 L26.4647,18.9847 L26.4647,19.2487 L26.3227,19.5167 L26.1347,19.5797 L26.0057,19.5797 L25.1987,19.2697 C25.0947,19.2307 24.9767,19.2627 24.9077,19.3497 C24.8377,19.4377 24.8347,19.5607 24.8977,19.6527 L26.0727,21.3547 C26.1527,21.4707 26.3117,21.4987 26.4267,21.4197 C26.5427,21.3397 26.5717,21.1817 26.4927,21.0657 L25.7837,20.0387 L25.8657,20.0717 L25.9577,20.0877 L26.1767,20.0877 L26.2567,20.0757 L26.5797,19.9677 L26.7237,19.8457 L26.9437,19.4317 L26.9737,19.3127 L26.9737,18.9847 L26.9737,18.7697 C26.9737,18.6737 26.9187,18.5857 26.8337,18.5427 L26.3967,18.3237 L26.3647,18.3097 L25.4087,17.9817 L25.2077,17.9977 L25.0807,18.1567 L24.4467,20.5097 C24.4097,20.6457 24.4907,20.7857 24.6257,20.8217 C24.7617,20.8587 24.9007,20.7787 24.9377,20.6427" id="Fill-119" fill="#126D2F"></path>
                <path d="M29.883,21.1144 L29.955,20.5374 L29.947,20.4384 L29.804,19.9124 L29.723,19.7844 L29.252,19.3884 L29.142,19.3354 L28.635,19.2234 L28.516,19.2254 L27.954,19.3734 L27.844,19.4344 L27.429,19.8294 L27.366,19.9234 L27.151,20.4854 L27.133,20.5614 L27.098,21.1764 L27.136,21.3254 L27.444,21.8164 L27.527,21.8984 L27.998,22.1854 L28.146,22.2224 L28.725,22.1864 L28.825,22.1594 L29.312,21.9074 L29.394,21.8424 L29.792,21.3504 L29.834,21.2734 L29.871,21.1664 C29.917,21.0324 29.846,20.8874 29.713,20.8434 C29.58,20.7974 29.436,20.8684 29.39,21.0014 L29.368,21.0654 L29.032,21.4794 L28.639,21.6824 L28.194,21.7104 L27.843,21.4954 L27.611,21.1244 L27.639,20.6304 L27.82,20.1584 L28.146,19.8484 L28.586,19.7334 L28.972,19.8184 L29.334,20.1224 L29.444,20.5234 L29.378,21.0524 C29.361,21.1914 29.46,21.3184 29.6,21.3364 C29.739,21.3524 29.866,21.2544 29.883,21.1144" id="Fill-121" fill="#126D2F"></path>
                <path d="M32.6462,21.5157 L32.5392,21.0617 L32.4702,20.9387 L32.2512,20.7227 L32.1912,20.6777 L31.7752,20.4587 L31.6572,20.4297 L31.1142,20.4297 L30.9292,20.5097 L30.6212,20.8367 L30.5972,20.8697 L30.3772,21.1957 L30.3522,21.2417 L30.1372,21.7637 L30.1192,21.8607 L30.1192,22.3887 L30.1192,22.6027 L30.1242,22.6527 L30.1952,23.0147 L30.3622,23.2057 L30.5942,23.2867 L30.9892,23.5097 L31.1142,23.5427 L31.3292,23.5427 L31.4782,23.4947 L31.7972,23.2657 L32.1142,23.0777 L32.2192,22.9577 L32.4182,22.4877 C32.4722,22.3607 32.4152,22.2127 32.2892,22.1567 L31.4342,21.7727 C31.3052,21.7147 31.1542,21.7717 31.0972,21.9007 C31.0392,22.0287 31.0972,22.1787 31.2252,22.2367 L31.8522,22.5187 L31.7832,22.6827 L31.5272,22.8347 L31.5092,22.8467 L31.2482,23.0347 L31.1822,23.0347 L30.8242,22.8317 L30.7822,22.8127 L30.6662,22.7727 L30.6272,22.5777 L30.6272,22.3887 L30.6272,21.9107 L30.8132,21.4577 L31.0072,21.1707 L31.2252,20.9387 L31.5952,20.9387 L31.9202,21.1107 L32.0612,21.2487 L32.1512,21.6327 C32.1832,21.7697 32.3202,21.8537 32.4582,21.8217 C32.5942,21.7887 32.6792,21.6527 32.6462,21.5157" id="Fill-123" fill="#126D2F"></path>
                <path d="M32.8532,23.9015 L33.6122,21.7795 L34.0982,22.0175 L34.1682,22.0405 L34.5182,22.0975 L34.6422,22.2205 L34.6422,22.3885 L34.6422,22.6825 L34.5402,22.8755 L34.4582,22.9265 L34.2632,22.9265 L33.5702,22.6255 L33.5322,22.6125 L33.0972,22.4995 C32.9962,22.4735 32.8902,22.5115 32.8282,22.5945 L32.8162,22.8795 L33.7932,24.4705 C33.8672,24.5905 34.0232,24.6285 34.1442,24.5545 C34.2632,24.4805 34.3002,24.3245 34.2272,24.2045 L33.2492,22.6135 L33.0332,22.7465 L32.9692,22.9925 L33.3852,23.0995 L34.1082,23.4155 L34.2102,23.4355 L34.5332,23.4355 L34.6702,23.3955 L34.8702,23.2675 L34.9572,23.1725 L35.1222,22.8665 L35.1512,22.7465 L35.1512,22.3885 L35.1512,22.1155 L35.0762,21.9335 L34.8192,21.6795 L34.6822,21.6095 L34.2892,21.5445 L33.5802,21.1975 L33.3732,21.1905 L33.2292,21.3405 L32.3742,23.7305 C32.3262,23.8625 32.3952,24.0075 32.5282,24.0555 C32.6602,24.1025 32.8052,24.0345 32.8532,23.9015" id="Fill-125" fill="#126D2F"></path>
                <path d="M37.9767,23.253 L36.4407,22.623 L36.2427,22.625 L36.1067,22.768 L35.2937,24.902 C35.2447,25.029 35.3057,25.173 35.4317,25.227 L36.9147,25.858 C37.0437,25.913 37.1927,25.853 37.2477,25.724 C37.3037,25.594 37.2427,25.445 37.1137,25.39 L35.8557,24.855 L36.4897,23.193 L37.7837,23.725 C37.9137,23.777 38.0617,23.715 38.1157,23.585 C38.1687,23.455 38.1067,23.307 37.9767,23.253" id="Fill-127" fill="#126D2F"></path>
                <path d="M35.8483,24.0441 L36.9013,24.5651 C37.0273,24.6281 37.1803,24.5771 37.2423,24.4501 C37.3043,24.3241 37.2533,24.1721 37.1273,24.1091 L36.0753,23.5881 C35.9483,23.5251 35.7953,23.5771 35.7343,23.7021 C35.6713,23.8281 35.7233,23.9821 35.8483,24.0441" id="Fill-129" fill="#126D2F"></path>
                <path d="M37.7458,25.3282 L37.6388,25.6532 L37.6388,25.8122 L37.7458,26.1382 L37.7908,26.2202 L37.8818,26.3312 L37.9048,26.3542 L38.2318,26.6622 L38.3258,26.7192 L38.6488,26.8252 L38.7898,26.8312 L39.2248,26.7242 L39.3778,26.6152 L39.5768,26.3072 L39.6178,26.1702 L39.6178,25.7332 L39.5918,25.6222 L39.4858,25.4022 L39.4308,25.3282 L39.1098,25.0282 L39.0108,24.9212 L39.0838,24.6372 L39.1218,24.5422 L39.2568,24.4982 L39.4918,24.5752 L39.6138,24.6302 L39.6588,24.8282 C39.6888,24.9662 39.8258,25.0532 39.9628,25.0212 C40.0998,24.9902 40.1858,24.8542 40.1558,24.7172 L40.0828,24.3942 L39.9388,24.2182 L39.6878,24.1052 L39.6628,24.0962 L39.3368,23.9882 L39.1778,23.9882 L38.8498,24.0962 L38.6928,24.2422 L38.6058,24.4622 L38.5948,24.4932 L38.4828,24.9292 L38.5428,25.1662 L38.7438,25.3822 L38.7558,25.3942 L39.0478,25.6672 L39.1088,25.7912 L39.1088,26.0952 L39.0058,26.2542 L38.7398,26.3192 L38.5388,26.2532 L38.2658,25.9952 L38.2138,25.9322 L38.1488,25.7332 L38.2288,25.4862 C38.2728,25.3532 38.2008,25.2092 38.0668,25.1662 C37.9338,25.1212 37.7898,25.1942 37.7458,25.3282" id="Fill-131" fill="#126D2F"></path>
                <path d="M39.7004,26.3966 L39.5934,26.7196 L39.5944,26.8836 L39.7014,27.1906 L39.7364,27.2566 L39.8284,27.3836 L39.8494,27.4096 L40.1404,27.7166 L40.2534,27.7866 L40.6114,27.8936 L40.7444,27.8966 L41.1804,27.7896 L41.3334,27.6806 L41.5324,27.3726 L41.5734,27.2346 L41.5734,26.7996 L41.5464,26.6866 L41.4384,26.4706 L41.3904,26.4036 L41.0634,26.0766 L40.9634,25.9776 L41.0334,25.6736 L41.0604,25.6216 L41.2104,25.5796 L41.4424,25.6456 L41.5454,25.6956 L41.6194,25.9206 C41.6634,26.0546 41.8074,26.1266 41.9404,26.0836 C42.0754,26.0396 42.1464,25.8956 42.1024,25.7616 L41.9944,25.4336 L41.8644,25.2856 L41.6454,25.1786 L41.6034,25.1636 L41.2814,25.0706 L41.1424,25.0696 L40.8144,25.1626 L40.6554,25.2926 L40.5654,25.4726 L40.5444,25.5306 L40.4364,26.0006 L40.5044,26.2386 L40.7034,26.4366 L41.0014,26.7346 L41.0644,26.8596 L41.0644,27.1596 L40.9604,27.3196 L40.6914,27.3856 L40.4634,27.3176 L40.2304,27.0716 L40.1694,26.9876 L40.1024,26.7976 L40.1834,26.5566 C40.2274,26.4236 40.1554,26.2796 40.0224,26.2356 C39.8874,26.1906 39.7444,26.2626 39.7004,26.3966" id="Fill-133" fill="#126D2F"></path>
                <path d="M44.3932,27.9806 L44.4802,27.4566 L44.4732,27.3406 L44.3102,26.7966 L44.2382,26.6816 L43.8422,26.3236 L43.7252,26.2626 L43.2182,26.1526 L43.1082,26.1526 L42.6202,26.2626 L42.4872,26.3396 L42.0892,26.7746 L42.0322,26.8756 L41.8722,27.4186 L41.8632,27.4636 L41.8072,28.0236 L41.8452,28.1836 L42.1312,28.6386 L42.2212,28.7246 L42.6562,28.9736 L42.7832,29.0076 L43.2892,29.0076 L43.4122,28.9766 L43.8662,28.7266 L43.9482,28.6566 L44.2892,28.2016 L44.3112,28.1666 L44.3682,28.0566 C44.4332,27.9306 44.3842,27.7786 44.2602,27.7126 C44.1342,27.6486 43.9812,27.6976 43.9162,27.8216 L43.8702,27.9126 L43.5732,28.3066 L43.2242,28.4996 L42.8502,28.4996 L42.5292,28.3146 L42.3222,27.9866 L42.3672,27.5396 L42.5042,27.0756 L42.8102,26.7426 L43.1652,26.6616 L43.5512,26.7456 L43.8432,27.0106 L43.9692,27.4306 L43.8912,27.8976 C43.8682,28.0366 43.9612,28.1676 44.1012,28.1906 C44.2392,28.2126 44.3702,28.1196 44.3942,27.9806 L44.3932,27.9806 Z" id="Fill-135" fill="#126D2F"></path>
            </g>
        </g>
    </g>
</svg>