<?xml version="1.0" encoding="UTF-8"?>
<svg width="118px" height="136px" viewBox="0 0 118 136" version="1.1" xmlns="http://www.w3.org/2000/svg" xmlns:xlink="http://www.w3.org/1999/xlink">
    <!-- Generator: Sketch 55.2 (78181) - https://sketchapp.com -->
    <title>canada</title>
    <desc>Created with Sketch.</desc>
    <g id="Page-1" stroke="none" stroke-width="1" fill="none" fill-rule="evenodd">
        <g id="canada">
            <polygon id="Fill-1" fill="#FFFFFF" points="59.0004 -0.0001 0.0004 33.9569 0.0004 101.8699 59.0004 135.8269 118.0004 101.8699 118.0004 33.9569"></polygon>
            <polygon id="Fill-2" fill="#E9E9E9" points="59.0004 -0.0001 59.0004 135.8269 118.0004 101.8699 118.0004 33.9569"></polygon>
            <polygon id="Fill-3" fill="#D73F45" points="0 33.9569 0 101.8699 28 117.9849 28 17.8419"></polygon>
            <polygon id="Fill-4" fill="#D02228" points="90 117.9845 118 101.8695 118 33.9565 90 17.8415"></polygon>
            <g id="Group-9" transform="translate(36.000000, 43.827000)">
                <path d="M23,0.7194 L19.155,8.4394 C18.706,9.2774 17.958,9.1984 17.152,8.7314 L14.315,7.1804 L16.465,19.0354 C16.913,21.2004 15.479,21.2004 14.769,20.2654 L9.771,14.4114 L8.961,17.3834 C8.866,17.7754 8.457,18.1844 7.838,18.0874 L1.514,16.6974 L3.175,23.0104 C3.532,24.4154 3.809,24.9964 2.817,25.3674 L0.562,26.4754 L11.449,35.7204 C11.88,36.0714 12.099,36.6994 11.944,37.2704 L10.992,40.5394 C14.74,40.0864 18.101,39.6834 21.849,39.2324 C22.182,39.2274 22.735,39.7594 22.732,40.1584 L22.236,52.3714 L23,52.3714 L23,0.7224 L23,0.7194 Z" id="Fill-5" fill="#D73F45"></path>
                <path d="M23.7715,40.1852 C23.7695,39.7852 24.2695,39.3452 24.6035,39.3492 C28.3525,39.8002 31.7125,40.1452 35.4605,40.5982 L34.5085,37.2992 C34.3555,36.7292 34.5725,36.0852 35.0025,35.7352 L45.8895,26.4832 L43.6365,25.3712 C42.6435,25.0002 42.9215,24.4172 43.2755,23.0122 L44.9385,16.6982 L38.6135,18.0872 C37.9965,18.1852 37.5845,17.7752 37.4915,17.3832 L36.6795,14.4122 L31.6775,20.2662 C30.9665,21.2012 29.5245,21.2012 29.9745,19.0362 L32.1095,7.1802 L29.2435,8.7312 C28.4395,9.1992 27.5215,9.2772 27.0725,8.4392 L23.0005,0.7222 L23.0005,52.3722 L24.0585,52.3722 L23.7715,40.1852 Z" id="Fill-7" fill="#D02228"></path>
            </g>
        </g>
    </g>
</svg>