<?xml version="1.0" encoding="UTF-8"?>
<svg width="118px" height="136px" viewBox="0 0 118 136" version="1.1" xmlns="http://www.w3.org/2000/svg" xmlns:xlink="http://www.w3.org/1999/xlink">
    <!-- Generator: Sketch 55.2 (78181) - https://sketchapp.com -->
    <title>switzerland</title>
    <desc>Created with Sketch.</desc>
    <g id="Page-1" stroke="none" stroke-width="1" fill="none" fill-rule="evenodd">
        <g id="switzerland">
            <polygon id="Fill-1" fill="#D73F45" points="58.9979 -0.0001 -0.0001 33.9559 -0.0001 101.8699 58.9999 135.8269 117.9999 101.8699 117.9999 33.9559 59.0009 -0.0001"></polygon>
            <polygon id="Fill-2" fill="#D02228" points="58.9995 -0.0001 58.9995 135.8269 117.9995 101.8699 117.9995 33.9559 59.0015 -0.0001"></polygon>
            <polygon id="Fill-3" fill="#FFFFFF" points="93.9998 57.4143 69.4998 57.4143 69.4998 32.9133 48.4998 32.9133 48.4998 57.4143 23.9998 57.4143 23.9998 78.4123 48.4998 78.4123 48.4998 102.9133 69.4998 102.9133 69.4998 78.4123 93.9998 78.4123"></polygon>
            <polygon id="Fill-4" fill="#E9E9E9" points="93.9998 57.4143 69.4998 57.4143 69.4998 32.9133 58.9998 32.9133 58.9998 102.9133 69.4998 102.9133 69.4998 78.4123 93.9998 78.4123"></polygon>
        </g>
    </g>
</svg>