<?xml version="1.0" encoding="UTF-8"?>
<svg width="118px" height="136px" viewBox="0 0 118 136" version="1.1" xmlns="http://www.w3.org/2000/svg" xmlns:xlink="http://www.w3.org/1999/xlink">
    <!-- Generator: Sketch 55.2 (78181) - https://sketchapp.com -->
    <title>china</title>
    <desc>Created with Sketch.</desc>
    <g id="Page-1" stroke="none" stroke-width="1" fill="none" fill-rule="evenodd">
        <g id="china">
            <polygon id="Fill-1" fill="#D73F45" points="59.0004 -0.0001 0.0004 33.9569 0.0004 101.8699 59.0004 135.8269 118.0004 101.8699 118.0004 33.9569"></polygon>
            <polygon id="Fill-2" fill="#D02228" points="59.0004 -0.0001 59.0004 135.8269 118.0004 101.8699 118.0004 33.9569"></polygon>
            <polygon id="Fill-3" fill="#F7F300" points="12.1411 54.5819 14.8361 46.2329 7.7541 41.0589 16.5271 41.0419 19.2581 32.7069 21.9851 41.0439 30.7561 41.0679 23.6691 46.2369 26.3581 54.5879 19.2511 49.4449"></polygon>
            <polygon id="Fill-4" fill="#F7F300" points="36.5972 59.0936 39.5572 60.2816 41.6142 57.8446 41.3982 61.0266 44.3512 62.2296 41.2582 63.0066 41.0272 66.1886 39.3312 63.4866 36.2352 64.2496 38.2812 61.8016"></polygon>
            <polygon id="Fill-5" fill="#F7F300" points="52.6177 43.0555 49.4757 42.5065 47.9707 45.3195 47.5207 42.1615 44.3807 41.5995 47.2457 40.1965 46.8097 37.0355 49.0297 39.3265 51.8997 37.9355 50.4077 40.7545"></polygon>
            <polygon id="Fill-6" fill="#F7F300" points="45.9458 57.3455 46.9248 54.3105 44.3498 52.4275 47.5398 52.4215 48.5338 49.3915 49.5248 52.4235 52.7148 52.4315 50.1378 54.3115 51.1148 57.3475 48.5308 55.4765"></polygon>
            <polygon id="Fill-7" fill="#F7F300" points="36.7524 29.6229 39.6474 30.9669 41.8274 28.6389 41.4454 31.8059 44.3314 33.1609 41.2024 33.7749 40.8054 36.9399 39.2524 34.1539 36.1194 34.7539 38.2904 32.4169"></polygon>
        </g>
    </g>
</svg>