<?xml version="1.0" encoding="UTF-8"?>
<svg width="118px" height="136px" viewBox="0 0 118 136" version="1.1" xmlns="http://www.w3.org/2000/svg" xmlns:xlink="http://www.w3.org/1999/xlink">
    <!-- Generator: Sketch 55.2 (78181) - https://sketchapp.com -->
    <title>germany</title>
    <desc>Created with Sketch.</desc>
    <g id="Page-1" stroke="none" stroke-width="1" fill="none" fill-rule="evenodd">
        <g id="germany">
            <polygon id="Fill-1" fill="#F7F300" points="58.9995 -0.0001 0.0005 33.9569 0.0005 101.8699 58.9995 135.8269 117.9995 101.8699 117.9995 33.9569"></polygon>
            <polygon id="Fill-2" fill="#D02228" points="0 89.972 118 89.972 118 44.972 0 44.972"></polygon>
            <polygon id="Fill-3" fill="#F7D500" points="58.9995 -0.0001 0.0005 33.9569 0.0005 44.9719 117.9995 44.9719 117.9995 33.9569"></polygon>
            <polygon id="Fill-4" fill="#000000" points="0 89.972 0 101.87 58.999 135.827 118 101.87 118 89.972"></polygon>
            <polygon id="Fill-5" fill="#D73F45" points="0 89.972 58.999 89.972 58.999 44.972 0 44.972"></polygon>
            <polygon id="Fill-6" fill="#F7F300" points="58.9995 -0.0001 0.0005 33.9569 0.0005 44.9719 58.9995 44.9719"></polygon>
            <polygon id="Fill-7" fill="#282828" points="0 89.972 0 101.87 58.999 135.827 58.999 89.972"></polygon>
        </g>
    </g>
</svg>