<?xml version="1.0" encoding="UTF-8"?>
<svg width="118px" height="136px" viewBox="0 0 118 136" version="1.1" xmlns="http://www.w3.org/2000/svg" xmlns:xlink="http://www.w3.org/1999/xlink">
    <!-- Generator: Sketch 55.2 (78181) - https://sketchapp.com -->
    <title>united-kingdom</title>
    <desc>Created with Sketch.</desc>
    <g id="Page-1" stroke="none" stroke-width="1" fill="none" fill-rule="evenodd">
        <g id="united-kingdom">
            <polygon id="Fill-1" fill="#155EAC" points="58.9995 -0.0001 0.0005 33.9569 0.0005 101.8699 58.9995 135.8269 117.9995 101.8699 117.9995 33.9569"></polygon>
            <polygon id="Fill-2" fill="#004FA4" points="58.9995 -0.0001 58.9995 135.8269 117.9995 101.8699 117.9995 33.9569"></polygon>
            <polygon id="Fill-3" fill="#FFFFFF" points="58.9995 -0.0001 46.9995 6.9069 46.9995 128.9209 58.9995 135.8269 71.0005 128.9209 71.0005 6.9069"></polygon>
            <polygon id="Fill-4" fill="#E9E9E9" points="58.9995 -0.0001 58.9995 135.8269 71.0005 128.9209 71.0005 6.9069"></polygon>
            <polygon id="Fill-5" fill="#FFFFFF" points="0 79.305 118 79.305 118 55.305 0 55.305"></polygon>
            <polygon id="Fill-6" fill="#E9E9E9" points="58.999 79.305 117.999 79.305 117.999 55.305 58.999 55.305"></polygon>
            <polygon id="Fill-7" fill="#FFFFFF" points="0 33.9569 0 40.3279 109.967 106.4929 118 101.8699 118 94.2819 9.066 28.7389"></polygon>
            <polygon id="Fill-8" fill="#E9E9E9" points="54.4347 73.0808 109.9677 106.4938 117.9997 101.8698 117.9997 94.2818 64.2217 61.9248"></polygon>
            <polygon id="Fill-9" fill="#FFFFFF" points="54.4347 61.5302 -0.0003 94.2822 -0.0003 101.8702 8.0337 106.4932 117.9997 40.3282 117.9997 33.9572 108.9337 28.7382"></polygon>
            <polygon id="Fill-10" fill="#E9E9E9" points="54.4347 61.5302 62.7687 73.5592 117.9997 40.3282 117.9997 33.9572 108.9337 28.7382"></polygon>
            <polygon id="Fill-11" fill="#D73F45" points="0 75.306 118 75.306 118 59.306 0 59.306"></polygon>
            <polygon id="Fill-12" fill="#D02228" points="58.999 75.306 117.999 75.306 117.999 59.306 58.999 59.306"></polygon>
            <polygon id="Fill-13" fill="#D73F45" points="58.9995 -0.0001 51.0005 4.6039 51.0005 131.2229 58.9995 135.8269 66.9995 131.2229 66.9995 4.6039"></polygon>
            <polygon id="Fill-14" fill="#D02228" points="58.9995 -0.0001 58.9995 135.8269 66.9995 131.2229 66.9995 4.6039"></polygon>
            <polygon id="Fill-15" fill="#D02228" points="111.7846 30.379 70.9996 54.972 80.3746 54.972 116.3436 33.003"></polygon>
            <polygon id="Fill-16" fill="#D73F45" points="37.4166 78.9713 -0.0004 100.9723 -0.0004 101.8703 4.7316 104.5923 46.8166 78.9713"></polygon>
            <polygon id="Fill-17" fill="#D73F45" points="0 33.9569 0 36.6069 30.357 54.9719 40 54.9719 2.734 32.3829"></polygon>
            <polygon id="Fill-18" fill="#D02228" points="77.2497 78.9713 116.5047 102.7303 117.9997 101.8703 117.9997 98.0483 86.5417 78.9713"></polygon>
        </g>
    </g>
</svg>