<?xml version="1.0" encoding="UTF-8"?>
<svg width="118px" height="137px" viewBox="0 0 118 137" version="1.1" xmlns="http://www.w3.org/2000/svg" xmlns:xlink="http://www.w3.org/1999/xlink">
    <!-- Generator: Sketch 55.2 (78181) - https://sketchapp.com -->
    <title>georgia</title>
    <desc>Created with Sketch.</desc>
    <g id="Page-1" stroke="none" stroke-width="1" fill="none" fill-rule="evenodd">
        <g id="georgia" transform="translate(0.000000, -1.000000)">
            <polygon id="Fill-1" fill="#FFFFFF" points="58.9995 0.9995 0.0005 34.9565 0.0005 102.8705 58.9995 136.8275 117.9995 102.8705 117.9995 34.9565"></polygon>
            <polygon id="Fill-2" fill="#E9E9E9" points="58.9995 0.9995 58.9995 136.8275 117.9995 102.8705 117.9995 34.9565"></polygon>
            <polygon id="Fill-3" fill="#FFFFFF" points="58.9995 0.9995 0.0005 34.9565 0.0005 69.4125 58.9995 69.4125"></polygon>
            <polygon id="Fill-4" fill="#E9E9E9" points="58.9995 68.9135 58.9995 137.3265 117.9995 103.3695 117.9995 68.9135"></polygon>
            <polygon id="Fill-5" fill="#D73F45" points="58.9995 0.9995 46.9995 7.9065 46.9995 129.9205 58.9995 137.3265 71.0005 130.4205 71.0005 7.9065"></polygon>
            <polygon id="Fill-6" fill="#D02228" points="58.9995 0.9995 58.9995 137.3265 71.0005 130.4205 71.0005 7.9065"></polygon>
            <polygon id="Fill-7" fill="#D73F45" points="0 81.163 118 81.163 118 57.163 0 57.163"></polygon>
            <polygon id="Fill-8" fill="#D02228" points="58.999 81.163 117.999 81.163 117.999 57.163 58.999 57.163"></polygon>
            <g id="Group-17" transform="translate(17.000000, 29.327000)">
                <path d="M76.1629,67.0931 C76.2759,64.7531 76.5539,62.4581 76.9759,60.2141 C75.9019,60.3481 74.8079,60.4161 73.6959,60.4161 C72.5849,60.4161 71.4909,60.3481 70.4149,60.2141 C70.8389,62.4581 71.1159,64.7531 71.2289,67.0931 C68.8899,66.9791 66.5939,66.7021 64.3499,66.2791 C64.4839,67.3541 64.5529,68.4481 64.5529,69.5601 C64.5529,70.6701 64.4839,71.7651 64.3499,72.8411 C66.5939,72.4161 68.8899,72.1411 71.2289,72.0271 C71.1159,74.3651 70.8389,76.6621 70.4149,78.9051 C71.4909,78.7731 72.5849,78.7021 73.6959,78.7021 C74.8079,78.7021 75.9019,78.7731 76.9759,78.9051 C76.5539,76.6621 76.2759,74.3651 76.1629,72.0271 C78.5009,72.1411 80.7979,72.4161 83.0409,72.8411 C82.9089,71.7651 82.8389,70.6701 82.8389,69.5601 C82.8389,68.4481 82.9089,67.3541 83.0409,66.2791 C80.7979,66.7021 78.5009,66.9791 76.1629,67.0931" id="Fill-9" fill="#D02228"></path>
                <path d="M76.1629,7.6293 C76.2759,5.2883 76.5539,2.9933 76.9759,0.7493 C75.9019,0.8833 74.8079,0.9513 73.6959,0.9513 C72.5849,0.9513 71.4909,0.8833 70.4149,0.7493 C70.8389,2.9933 71.1159,5.2883 71.2289,7.6293 C68.8899,7.5143 66.5939,7.2383 64.3499,6.8143 C64.4839,7.8903 64.5529,8.9843 64.5529,10.0963 C64.5529,11.2053 64.4839,12.3013 64.3499,13.3763 C66.5939,12.9513 68.8899,12.6763 71.2289,12.5633 C71.1159,14.9013 70.8389,17.1973 70.4149,19.4413 C71.4909,19.3083 72.5849,19.2383 73.6959,19.2383 C74.8079,19.2383 75.9019,19.3083 76.9759,19.4413 C76.5539,17.1973 76.2759,14.9013 76.1629,12.5633 C78.5009,12.6763 80.7979,12.9513 83.0409,13.3763 C82.9089,12.3013 82.8389,11.2053 82.8389,10.0963 C82.8389,8.9843 82.9089,7.8903 83.0409,6.8143 C80.7979,7.2383 78.5009,7.5143 76.1629,7.6293" id="Fill-11" fill="#D02228"></path>
                <path d="M11.9129,67.0931 C12.0259,64.7531 12.3039,62.4581 12.7259,60.2141 C11.6519,60.3481 10.5579,60.4161 9.4459,60.4161 C8.3349,60.4161 7.2409,60.3481 6.1649,60.2141 C6.5889,62.4581 6.8659,64.7531 6.9789,67.0931 C4.6399,66.9791 2.3439,66.7021 0.0999,66.2791 C0.2339,67.3541 0.3029,68.4481 0.3029,69.5601 C0.3029,70.6701 0.2339,71.7651 0.0999,72.8411 C2.3439,72.4161 4.6399,72.1411 6.9789,72.0271 C6.8659,74.3651 6.5889,76.6621 6.1649,78.9051 C7.2409,78.7731 8.3349,78.7021 9.4459,78.7021 C10.5579,78.7021 11.6519,78.7731 12.7259,78.9051 C12.3039,76.6621 12.0259,74.3651 11.9129,72.0271 C14.2509,72.1411 16.5479,72.4161 18.7909,72.8411 C18.6589,71.7651 18.5889,70.6701 18.5889,69.5601 C18.5889,68.4481 18.6589,67.3541 18.7909,66.2791 C16.5479,66.7021 14.2509,66.9791 11.9129,67.0931" id="Fill-13" fill="#D73F45"></path>
                <path d="M11.9129,7.6293 C12.0259,5.2883 12.3039,2.9933 12.7259,0.7493 C11.6519,0.8833 10.5579,0.9513 9.4459,0.9513 C8.3349,0.9513 7.2409,0.8833 6.1649,0.7493 C6.5889,2.9933 6.8659,5.2883 6.9789,7.6293 C4.6399,7.5143 2.3439,7.2383 0.0999,6.8143 C0.2339,7.8903 0.3029,8.9843 0.3029,10.0963 C0.3029,11.2053 0.2339,12.3013 0.0999,13.3763 C2.3439,12.9513 4.6399,12.6763 6.9789,12.5633 C6.8659,14.9013 6.5889,17.1973 6.1649,19.4413 C7.2409,19.3083 8.3349,19.2383 9.4459,19.2383 C10.5579,19.2383 11.6519,19.3083 12.7259,19.4413 C12.3039,17.1973 12.0259,14.9013 11.9129,12.5633 C14.2509,12.6763 16.5479,12.9513 18.7909,13.3763 C18.6589,12.3013 18.5889,11.2053 18.5889,10.0963 C18.5889,8.9843 18.6589,7.8903 18.7909,6.8143 C16.5479,7.2383 14.2509,7.5143 11.9129,7.6293" id="Fill-15" fill="#D73F45"></path>
            </g>
        </g>
    </g>
</svg>