<?xml version="1.0" encoding="UTF-8"?>
<svg width="118px" height="122px" viewBox="0 0 118 122" version="1.1" xmlns="http://www.w3.org/2000/svg" xmlns:xlink="http://www.w3.org/1999/xlink">
    <!-- Generator: Sketch 55.2 (78181) - https://sketchapp.com -->
    <title>greece</title>
    <desc>Created with Sketch.</desc>
    <g id="Page-1" stroke="none" stroke-width="1" fill="none" fill-rule="evenodd">
        <g id="greece">
            <polygon id="Fill-1" fill="#FFFFFF" points="6.489 105.2708 32.745 121.2708 59 121.2708 59 105.2708"></polygon>
            <polygon id="Fill-2" fill="#4096DA" points="0 90.2705 0 101.6485 6.489 105.2705 59 105.2705 59 90.2705"></polygon>
            <polygon id="Fill-3" fill="#FFFFFF" points="0 90.27 59 90.27 59 75.27 0 75.27"></polygon>
            <polygon id="Fill-4" fill="#83C2E8" points="0 75.27 59 75.27 59 60.271 0 60.271"></polygon>
            <polygon id="Fill-5" fill="#FFFFFF" points="0 60.271 59 60.271 59 45.271 0 45.271"></polygon>
            <polygon id="Fill-6" fill="#83C2E8" points="6.7887 30.2702 -0.0003 33.7342 -0.0003 45.2702 59.0007 45.2702 59.0007 30.2702"></polygon>
            <polygon id="Fill-7" fill="#4096DA" points="33.0444 14.9387 6.7884 29.9377 0.0004 33.7347 0.0004 44.9387 0.0004 59.9387 0.0004 75.2697 59.0004 75.2697 59.0004 59.9387 59.0004 44.9387 59.0004 29.9377 59.0004 14.9387 59.0004 0.0007"></polygon>
            <polygon id="Fill-8" fill="#E9E9E9" points="59.0004 105.2708 59.0004 121.2708 85.2554 121.2708 111.5114 105.2708"></polygon>
            <polygon id="Fill-9" fill="#328ED8" points="59.0004 90.2705 59.0004 105.2705 111.5114 105.2705 118.0004 101.6485 118.0004 90.2705"></polygon>
            <polygon id="Fill-10" fill="#E9E9E9" points="59 90.27 117.999 90.27 117.999 75.27 59 75.27"></polygon>
            <polygon id="Fill-11" fill="#328ED8" points="59 75.27 117.999 75.27 117.999 60.271 59 60.271"></polygon>
            <polygon id="Fill-12" fill="#FFFFFF" points="6.7896 30.2702 -0.0004 33.7342 -0.0004 45.2702 59.0006 45.2702 59.0006 30.2702"></polygon>
            <polygon id="Fill-13" fill="#FFFFFF" points="37.0002 75.2706 37.0002 12.6616 22.0002 21.2486 22.0002 75.2706"></polygon>
            <polygon id="Fill-14" fill="#E9E9E9" points="59 60.271 117.999 60.271 117.999 45.271 59 45.271"></polygon>
            <polygon id="Fill-15" fill="#328ED8" points="59.0004 30.2702 59.0004 45.2702 118.0004 45.2702 118.0004 33.7342 111.2114 30.2702"></polygon>
        </g>
    </g>
</svg>