<?xml version="1.0" encoding="UTF-8"?>
<svg width="118px" height="136px" viewBox="0 0 118 136" version="1.1" xmlns="http://www.w3.org/2000/svg" xmlns:xlink="http://www.w3.org/1999/xlink">
    <!-- Generator: Sketch 55.2 (78181) - https://sketchapp.com -->
    <title>india</title>
    <desc>Created with Sketch.</desc>
    <g id="Page-1" stroke="none" stroke-width="1" fill="none" fill-rule="evenodd">
        <g id="india">
            <polygon id="Fill-1" fill="#F7F300" points="58.9979 -0.0001 -0.0001 33.9559 -0.0001 101.8709 58.9979 135.8269 59.0009 135.8269 117.9999 101.8709 117.9999 33.9559 59.0009 -0.0001"></polygon>
            <polygon id="Fill-2" fill="#E9E9E9" points="0 90.16 118 90.16 118 45.16 0 45.16"></polygon>
            <polygon id="Fill-3" fill="#F78E14" points="58.9979 -0.0001 -0.0001 33.9559 -0.0001 45.1599 117.9999 45.1599 117.9999 33.9559 59.0009 -0.0001"></polygon>
            <polygon id="Fill-4" fill="#009416" points="0 90.1601 0 101.8711 58.998 135.8271 59.001 135.8271 118 101.8711 118 90.1601"></polygon>
            <polygon id="Fill-5" fill="#FFFFFF" points="0 90.16 58.999 90.16 58.999 45.16 0 45.16"></polygon>
            <polygon id="Fill-6" fill="#F7A33F" points="58.9979 -0.0001 -0.0001 33.9559 -0.0001 45.1599 58.9999 45.1599 58.9999 -0.0001"></polygon>
            <polygon id="Fill-7" fill="#19A82D" points="0 90.1601 0 101.8711 58.998 135.8271 58.999 135.8271 58.999 90.1601"></polygon>
            <g id="Group-14" transform="translate(41.000000, 49.827000)">
                <path d="M35.7498,18.1333 C35.7498,27.9373 27.8028,35.8833 17.9998,35.8833 C8.1968,35.8833 0.2498,27.9373 0.2498,18.1333 C0.2498,8.3313 8.1968,0.3833 17.9998,0.3833 C27.8028,0.3833 35.7498,8.3313 35.7498,18.1333" id="Fill-8" fill="#004364"></path>
                <path d="M17.9998,18.1333 L19.0908,24.2913 L21.9798,33.2533 C21.6628,33.3393 21.3408,33.4113 21.0178,33.4743 C20.9438,32.9363 20.4488,32.5543 19.9078,32.6243 C19.3658,32.6953 18.9868,33.1933 19.0568,33.7353 C18.7268,33.7563 18.3978,33.7693 18.0668,33.7693 L18.5418,24.3643 L17.9998,18.1333 Z M17.9998,18.1333 L20.6478,23.8013 L25.7578,31.7093 C25.4728,31.8723 25.1808,32.0263 24.8848,32.1733 C24.6778,31.6683 24.0978,31.4283 23.5928,31.6363 C23.0888,31.8453 22.8488,32.4253 23.0568,32.9293 C22.7458,33.0353 22.4318,33.1313 22.1128,33.2193 L20.1368,24.0133 L17.9998,18.1333 Z M17.9998,18.1333 L22.0218,22.9223 L29.0088,29.2383 C28.7738,29.4703 28.5308,29.6953 28.2838,29.9113 C27.9508,29.4783 27.3318,29.3963 26.8968,29.7303 C26.4638,30.0633 26.3818,30.6833 26.7148,31.1153 C26.4408,31.2993 26.1628,31.4763 25.8768,31.6403 L21.5838,23.2593 L17.9998,18.1333 Z M17.9998,18.1333 L23.1248,21.7183 L31.5078,26.0113 C31.3408,26.2973 31.1648,26.5743 30.9808,26.8493 C30.5478,26.5153 29.9288,26.5983 29.5958,27.0303 C29.2628,27.4653 29.3448,28.0843 29.7768,28.4173 C29.5618,28.6643 29.3368,28.9073 29.1048,29.1413 L22.7898,22.1553 L17.9998,18.1333 Z M17.9998,18.1333 L23.8788,20.2693 L33.0858,22.2453 C32.9978,22.5663 32.9008,22.8793 32.7948,23.1913 C32.2908,22.9833 31.7128,23.2223 31.5028,23.7283 C31.2948,24.2313 31.5348,24.8103 32.0388,25.0183 C31.8928,25.3153 31.7388,25.6053 31.5748,25.8913 L23.6668,20.7803 L17.9998,18.1333 Z M17.9998,18.1333 L24.2298,18.6733 L33.6348,18.2023 C33.6338,18.5303 33.6228,18.8623 33.5998,19.1913 C33.0588,19.1213 32.5618,19.4993 32.4908,20.0403 C32.4188,20.5823 32.8008,21.0793 33.3408,21.1513 C33.2778,21.4743 33.2058,21.7963 33.1198,22.1143 L24.1578,19.2253 L17.9998,18.1333 Z M17.9998,18.1333 L24.1578,17.0413 L33.1198,14.1533 C33.2058,14.4713 33.2778,14.7923 33.3408,15.1173 C32.8008,15.1883 32.4188,15.6853 32.4908,16.2263 C32.5618,16.7673 33.0588,17.1493 33.5998,17.0763 C33.6228,17.4063 33.6338,17.7363 33.6348,18.0653 L24.2298,17.5933 L17.9998,18.1333 Z M17.9998,18.1333 L23.6668,15.4873 L31.5748,10.3753 C31.7388,10.6613 31.8928,10.9523 32.0388,11.2483 C31.5348,11.4593 31.2948,12.0353 31.5028,12.5403 C31.7128,13.0443 32.2908,13.2843 32.7948,13.0763 C32.9008,13.3873 32.9978,13.7043 33.0858,14.0213 L23.8788,15.9973 L17.9998,18.1333 Z M17.9998,18.1333 L22.7898,14.1113 L29.1048,7.1273 C29.3368,7.3613 29.5618,7.6023 29.7768,7.8493 C29.3448,8.1823 29.2628,8.8023 29.5958,9.2363 C29.9288,9.6693 30.5478,9.7513 30.9808,9.4183 C31.1648,9.6923 31.3408,9.9713 31.5078,10.2563 L23.1248,14.5493 L17.9998,18.1333 Z M17.9998,18.1333 L21.5838,13.0083 L25.8768,4.6273 C26.1628,4.7943 26.4408,4.9693 26.7148,5.1513 C26.3818,5.5853 26.4638,6.2063 26.8968,6.5373 C27.3318,6.8713 27.9508,6.7883 28.2838,6.3563 C28.5308,6.5713 28.7738,6.7963 29.0088,7.0293 L22.0218,13.3453 L17.9998,18.1333 Z M17.9998,18.1333 L20.1368,12.2573 L22.1128,3.0473 C22.4318,3.1353 22.7458,3.2313 23.0568,3.3393 C22.8488,3.8433 23.0888,4.4213 23.5928,4.6303 C24.0978,4.8393 24.6778,4.5983 24.8848,4.0963 C25.1808,4.2403 25.4728,4.3943 25.7578,4.5613 L20.6478,12.4653 L17.9998,18.1333 Z M17.9998,18.1333 L18.5418,11.9043 L18.0668,2.4983 C18.3978,2.4993 18.7268,2.5113 19.0568,2.5333 C18.9868,3.0743 19.3658,3.5713 19.9078,3.6423 C20.4488,3.7143 20.9438,3.3323 21.0178,2.7923 C21.3408,2.8553 21.6628,2.9313 21.9798,3.0133 L19.0908,11.9763 L17.9998,18.1333 Z M17.9998,18.1333 L16.9078,11.9763 L14.0188,3.0133 C14.3378,2.9313 14.6588,2.8553 14.9828,2.7923 C15.0548,3.3323 15.5508,3.7143 16.0898,3.6423 C16.6338,3.5713 17.0148,3.0743 16.9418,2.5333 C17.2718,2.5113 17.6028,2.4993 17.9318,2.4983 L17.4598,11.9043 L17.9998,18.1333 Z M17.9998,18.1333 L15.3528,12.4653 L10.2428,4.5613 C10.5268,4.3943 10.8188,4.2403 11.1148,4.0963 C11.3248,4.5983 11.9028,4.8393 12.4048,4.6303 C12.9108,4.4213 13.1498,3.8433 12.9428,3.3393 C13.2538,3.2313 13.5698,3.1353 13.8878,3.0473 L15.8648,12.2573 L17.9998,18.1333 Z M17.9998,18.1333 L13.9768,13.3453 L6.9928,7.0293 C7.2278,6.7963 7.4688,6.5713 7.7168,6.3563 C8.0478,6.7883 8.6698,6.8713 9.1028,6.5373 C9.5358,6.2063 9.6178,5.5853 9.2838,5.1513 C9.5588,4.9693 9.8388,4.7943 10.1228,4.6273 L14.4148,13.0083 L17.9998,18.1333 Z M17.9998,18.1333 L12.8748,14.5493 L4.4938,10.2563 C4.6608,9.9713 4.8348,9.6923 5.0188,9.4183 C5.4518,9.7513 6.0718,9.6693 6.4028,9.2363 C6.7368,8.8023 6.6548,8.1823 6.2218,7.8493 C6.4388,7.6023 6.6648,7.3613 6.8958,7.1273 L13.2108,14.1113 L17.9998,18.1333 Z M17.9998,18.1333 L12.1228,15.9973 L2.9138,14.0213 C3.0018,13.7043 3.0978,13.3873 3.2058,13.0763 C3.7088,13.2843 4.2868,13.0443 4.4968,12.5403 C4.7058,12.0353 4.4668,11.4593 3.9608,11.2483 C4.1068,10.9523 4.2608,10.6613 4.4248,10.3753 L12.3318,15.4873 L17.9998,18.1333 Z M17.9998,18.1333 L11.7698,17.5933 L2.3648,18.0653 C2.3658,17.7363 2.3768,17.4063 2.3988,17.0763 C2.9408,17.1493 3.4368,16.7673 3.5088,16.2263 C3.5798,15.6853 3.1978,15.1883 2.6578,15.1173 C2.7218,14.7923 2.7938,14.4713 2.8798,14.1533 L11.8418,17.0413 L17.9998,18.1333 Z M17.9998,18.1333 L11.8418,19.2253 L2.8798,22.1143 C2.7938,21.7963 2.7218,21.4743 2.6578,21.1513 C3.1978,21.0793 3.5798,20.5823 3.5088,20.0403 C3.4368,19.4993 2.9408,19.1213 2.3988,19.1913 C2.3768,18.8623 2.3658,18.5303 2.3648,18.2023 L11.7698,18.6733 L17.9998,18.1333 Z M17.9998,18.1333 L12.3318,20.7803 L4.4248,25.8913 C4.2608,25.6053 4.1068,25.3153 3.9608,25.0183 C4.4668,24.8103 4.7058,24.2313 4.4968,23.7283 C4.2868,23.2223 3.7088,22.9833 3.2058,23.1913 C3.0978,22.8793 3.0018,22.5663 2.9138,22.2453 L12.1228,20.2693 L17.9998,18.1333 Z M17.9998,18.1333 L13.2108,22.1553 L6.8958,29.1413 C6.6648,28.9073 6.4388,28.6643 6.2218,28.4173 C6.6548,28.0843 6.7368,27.4653 6.4028,27.0303 C6.0718,26.5983 5.4518,26.5153 5.0188,26.8493 C4.8348,26.5743 4.6608,26.2973 4.4938,26.0113 L12.8748,21.7183 L17.9998,18.1333 Z M17.9998,18.1333 L14.4148,23.2593 L10.1228,31.6403 C9.8388,31.4763 9.5588,31.2993 9.2838,31.1153 C9.6178,30.6833 9.5358,30.0633 9.1028,29.7303 C8.6698,29.3963 8.0478,29.4783 7.7168,29.9113 C7.4688,29.6953 7.2278,29.4703 6.9928,29.2383 L13.9768,22.9223 L17.9998,18.1333 Z M17.9998,18.1333 L15.8648,24.0133 L13.8878,33.2193 C13.5698,33.1313 13.2538,33.0353 12.9428,32.9293 C13.1498,32.4253 12.9108,31.8453 12.4048,31.6363 C11.9028,31.4283 11.3248,31.6683 11.1148,32.1733 C10.8188,32.0263 10.5268,31.8723 10.2428,31.7093 L15.3528,23.8013 L17.9998,18.1333 Z M17.9998,18.1333 L17.4598,24.3643 L17.9318,33.7693 C17.6028,33.7693 17.2718,33.7563 16.9418,33.7353 C17.0148,33.1933 16.6338,32.6953 16.0898,32.6243 C15.5508,32.5543 15.0548,32.9363 14.9828,33.4743 C14.6588,33.4113 14.3378,33.3393 14.0188,33.2533 L16.9078,24.2913 L17.9998,18.1333 Z" id="Fill-10" fill="#FFFFFF"></path>
                <path d="M21.1908,18.1333 C21.1908,19.8963 19.7618,21.3233 17.9998,21.3233 C16.2368,21.3233 14.8078,19.8963 14.8078,18.1333 C14.8078,16.3713 16.2368,14.9433 17.9998,14.9433 C19.7618,14.9433 21.1908,16.3713 21.1908,18.1333" id="Fill-12" fill="#004364"></path>
            </g>
        </g>
    </g>
</svg>