<?xml version="1.0" encoding="UTF-8"?>
<svg width="118px" height="136px" viewBox="0 0 118 136" version="1.1" xmlns="http://www.w3.org/2000/svg" xmlns:xlink="http://www.w3.org/1999/xlink">
    <!-- Generator: Sketch 55.2 (78181) - https://sketchapp.com -->
    <title>israel</title>
    <desc>Created with Sketch.</desc>
    <g id="Page-1" stroke="none" stroke-width="1" fill="none" fill-rule="evenodd">
        <g id="israel">
            <polygon id="Fill-1" fill="#F7F300" points="58.9979 -0.0001 -0.0001 33.9559 -0.0001 101.8699 58.9999 135.8269 117.9999 101.8699 117.9999 33.9559 59.0009 -0.0001"></polygon>
            <polygon id="Fill-2" fill="#E9E9E9" points="0 90.16 118 90.16 118 45.16 0 45.16"></polygon>
            <polygon id="Fill-3" fill="#E9E9E9" points="58.9979 -0.0001 -0.0001 33.9559 -0.0001 45.1599 117.9999 45.1599 117.9999 33.9559 59.0009 -0.0001"></polygon>
            <polygon id="Fill-4" fill="#E9E9E9" points="0 90.1601 0 101.8701 58.999 135.8271 118 101.8701 118 90.1601"></polygon>
            <polygon id="Fill-5" fill="#FFFFFF" points="0 90.16 58.999 90.16 58.999 45.16 0 45.16"></polygon>
            <polygon id="Fill-6" fill="#FFFFFF" points="58.9979 -0.0001 -0.0001 33.9559 -0.0001 45.1599 58.9999 45.1599 58.9999 -0.0001"></polygon>
            <polygon id="Fill-7" fill="#FFFFFF" points="0 90.1601 0 101.8701 58.999 135.8271 58.999 90.1601"></polygon>
            <polygon id="Fill-8" fill="#83C2E8" points="0 43.956 118 43.956 118 33.956 0 33.956"></polygon>
            <polygon id="Fill-9" fill="#83C2E8" points="0 101.364 118 101.364 118 91.364 0 91.364"></polygon>
            <polygon id="Fill-10" fill="#65B3E2" points="58.999 43.956 117.999 43.956 117.999 33.956 58.999 33.956"></polygon>
            <polygon id="Fill-11" fill="#65B3E2" points="58.999 101.364 117.999 101.364 117.999 91.364 58.999 91.364"></polygon>
            <path d="M47.2503,69.3526 L51.9153,77.4086 L42.5853,77.4086 L47.2503,69.3526 Z M42.5853,58.5146 L51.9153,58.5146 L47.2503,66.5696 L42.5853,58.5146 Z M53.5293,58.5146 L64.4693,58.5146 L69.9423,67.9606 L64.4693,77.4086 L53.5293,77.4086 L48.0573,67.9596 L53.5293,58.5146 Z M59.0003,49.0656 L63.6643,57.1216 L54.3353,57.1216 L59.0003,49.0656 Z M75.4133,58.5146 L70.7503,66.5666 L66.0823,58.5146 L75.4133,58.5146 Z M75.4133,77.4086 L66.0823,77.4086 L70.7503,69.3546 L75.4133,77.4086 Z M59.0003,86.8546 L54.3353,78.8006 L63.6643,78.8006 L59.0003,86.8546 Z M52.7223,78.8006 L59.0003,89.6396 L59.6043,88.5936 L65.2773,78.8006 L77.8333,78.8006 L71.5543,67.9596 L77.8333,57.1216 L65.2773,57.1216 L59.0003,46.2816 L58.3963,47.3266 L52.7223,57.1216 L40.1673,57.1216 L46.4433,67.9606 L40.1673,78.8006 L52.7223,78.8006 Z" id="Fill-12" fill="#65B3E2"></path>
        </g>
    </g>
</svg>