<?xml version="1.0" encoding="UTF-8"?>
<svg width="118px" height="136px" viewBox="0 0 118 136" version="1.1" xmlns="http://www.w3.org/2000/svg" xmlns:xlink="http://www.w3.org/1999/xlink">
    <!-- Generator: Sketch 55.2 (78181) - https://sketchapp.com -->
    <title>japan</title>
    <desc>Created with Sketch.</desc>
    <g id="Page-1" stroke="none" stroke-width="1" fill="none" fill-rule="evenodd">
        <g id="japan">
            <polygon id="Fill-1" fill="#FFFFFF" points="58.9995 -0.0001 0.0005 33.9559 0.0005 101.8699 58.9995 135.8269 117.9995 101.8699 117.9995 33.9559"></polygon>
            <polygon id="Fill-2" fill="#E9E9E9" points="58.9995 -0.0001 58.9995 135.8269 117.9995 101.8699 117.9995 33.9559"></polygon>
            <g id="Group-9" transform="translate(32.000000, 43.827000)">
                <path d="M26.9998,0.7462 C11.9998,0.7462 0.9908,12.4112 0.9908,26.8032 C0.9908,41.1932 11.9998,52.8582 26.9998,52.8582 C41.9998,52.8582 53.0088,41.1932 53.0088,26.8032 C53.0088,12.4112 41.9998,0.7462 26.9998,0.7462" id="Fill-3" fill="#D02228"></path>
                <path d="M0.991,26.8029 C0.991,41.1939 12,52.8589 27,52.8589 L27,0.7459 C12,0.7459 0.991,12.4109 0.991,26.8029" id="Fill-5" fill="#D73F45"></path>
                <path d="M53.0091,26.8029 C53.0091,12.4109 42.0001,0.7459 27.0001,0.7459 L27.0001,52.8589 C42.0001,52.8589 53.0091,41.1939 53.0091,26.8029" id="Fill-7" fill="#D02228"></path>
            </g>
        </g>
    </g>
</svg>