<?xml version="1.0" encoding="UTF-8"?>
<svg width="118px" height="136px" viewBox="0 0 118 136" version="1.1" xmlns="http://www.w3.org/2000/svg" xmlns:xlink="http://www.w3.org/1999/xlink">
    <!-- Generator: Sketch 55.2 (78181) - https://sketchapp.com -->
    <title>netherlands</title>
    <desc>Created with Sketch.</desc>
    <g id="Page-1" stroke="none" stroke-width="1" fill="none" fill-rule="evenodd">
        <g id="netherlands">
            <polygon id="Fill-1" fill="#F7F300" points="58.9995 -0.0001 0.0005 33.9569 0.0005 101.8699 58.9995 135.8269 117.9995 101.8699 117.9995 33.9569"></polygon>
            <polygon id="Fill-2" fill="#E9E9E9" points="0 90.077 118 90.077 118 45.077 0 45.077"></polygon>
            <polygon id="Fill-3" fill="#D02228" points="58.9995 -0.0001 0.0005 33.9569 0.0005 45.0769 117.9995 45.0769 117.9995 33.9569"></polygon>
            <polygon id="Fill-4" fill="#004FA4" points="0 90.0773 0 101.8703 58.999 135.8273 118 101.8703 118 90.0773"></polygon>
            <polygon id="Fill-5" fill="#FFFFFF" points="0 90.077 58.999 90.077 58.999 45.077 0 45.077"></polygon>
            <polygon id="Fill-6" fill="#D73F45" points="58.9995 -0.0001 0.0005 33.9569 0.0005 45.0769 58.9995 45.0769"></polygon>
            <polygon id="Fill-7" fill="#155EAC" points="0 90.0773 0 101.8703 58.999 135.8273 58.999 90.0773"></polygon>
        </g>
    </g>
</svg>