<?xml version="1.0" encoding="UTF-8"?>
<svg width="118px" height="136px" viewBox="0 0 118 136" version="1.1" xmlns="http://www.w3.org/2000/svg" xmlns:xlink="http://www.w3.org/1999/xlink">
    <!-- Generator: Sketch 55.2 (78181) - https://sketchapp.com -->
    <title>norway</title>
    <desc>Created with Sketch.</desc>
    <g id="Page-1" stroke="none" stroke-width="1" fill="none" fill-rule="evenodd">
        <g id="norway">
            <polygon id="Fill-1" fill="#D73F45" points="58.9979 -0.0001 -0.0001 33.9559 -0.0001 101.8699 58.9999 135.8269 117.9999 101.8699 117.9999 33.9559 59.0009 -0.0001"></polygon>
            <polygon id="Fill-2" fill="#D02228" points="58.9995 -0.0001 58.9995 135.8269 117.9995 101.8699 117.9995 33.9559 59.0015 -0.0001"></polygon>
            <polygon id="Fill-3" fill="#FFFFFF" points="0 81.972 118 81.972 118 53.972 0 53.972"></polygon>
            <polygon id="Fill-4" fill="#FFFFFF" points="23.9998 115.6828 23.9998 20.1438 51.9998 4.0288 51.9998 131.7978"></polygon>
            <polygon id="Fill-5" fill="#155EAC" points="45.9998 128.3449 29.9998 119.1359 29.9998 16.6909 45.9998 7.4819"></polygon>
            <polygon id="Fill-6" fill="#155EAC" points="0 75.913 118 75.913 118 59.913 0 59.913"></polygon>
            <polygon id="Fill-7" fill="#004FA4" points="58.999 75.913 117.999 75.913 117.999 59.913 58.999 59.913"></polygon>
        </g>
    </g>
</svg>