<?xml version="1.0" encoding="UTF-8"?>
<svg width="118px" height="136px" viewBox="0 0 118 136" version="1.1" xmlns="http://www.w3.org/2000/svg" xmlns:xlink="http://www.w3.org/1999/xlink">
    <!-- Generator: Sketch 55.2 (78181) - https://sketchapp.com -->
    <title>pakistan</title>
    <desc>Created with Sketch.</desc>
    <g id="Page-1" stroke="none" stroke-width="1" fill="none" fill-rule="evenodd">
        <g id="pakistan">
            <polygon id="Fill-1" fill="#19A82D" points="58.9988 -0.0001 -0.0002 33.9559 -0.0002 101.8699 59.0008 135.8269 117.9998 101.8699 117.9998 33.9559 59.0018 -0.0001"></polygon>
            <polygon id="Fill-2" fill="#009416" points="59.0004 -0.0001 59.0004 135.8269 118.0004 101.8699 118.0004 33.9559 59.0024 -0.0001"></polygon>
            <polygon id="Fill-3" fill="#FFFFFF" points="0 33.956 0 101.87 30.001 119.136 30.001 16.69"></polygon>
            <g id="Group-8" transform="translate(48.000000, 46.827000)" fill="#FFFFFF">
                <path d="M12.5266,28.8607 C5.5036,20.9607 6.2146,8.8607 14.1166,1.8377 C14.4496,1.5427 14.7936,1.2647 15.1406,0.9957 C6.7156,3.6847 0.6146,11.5727 0.6146,20.8887 C0.6146,32.4217 9.9636,41.7697 21.4956,41.7697 C29.9416,41.7697 37.2116,36.7527 40.5006,29.5387 C40.1946,29.8497 39.8806,30.1567 39.5496,30.4507 C31.6486,37.4737 19.5496,36.7617 12.5266,28.8607" id="Fill-4"></path>
                <polygon id="Fill-6" points="32.966 14.0756 37.905 15.1586 34.546 11.3796 37.103 7.0156 32.47 9.0436 29.11 5.2626 29.607 10.2966 24.974 12.3236 29.913 13.4066 30.409 18.4386"></polygon>
            </g>
        </g>
    </g>
</svg>