<?xml version="1.0" encoding="UTF-8"?>
<svg width="118px" height="136px" viewBox="0 0 118 136" version="1.1" xmlns="http://www.w3.org/2000/svg" xmlns:xlink="http://www.w3.org/1999/xlink">
    <!-- Generator: Sketch 55.2 (78181) - https://sketchapp.com -->
    <title>russian-federation</title>
    <desc>Created with Sketch.</desc>
    <g id="Page-1" stroke="none" stroke-width="1" fill="none" fill-rule="evenodd">
        <g id="russian-federation">
            <polygon id="Fill-1" fill="#F7F300" points="58.9979 -0.0001 -0.0001 33.9559 -0.0001 101.8699 58.9979 135.8269 59.0009 135.8269 117.9999 101.8699 117.9999 33.9559 59.0009 -0.0001"></polygon>
            <polygon id="Fill-2" fill="#004FA4" points="0 90.778 118 90.778 118 45.778 0 45.778"></polygon>
            <polygon id="Fill-3" fill="#D02228" points="0 90.7775 0 101.8695 58.998 135.8265 59.001 135.8265 118 101.8695 118 90.7775"></polygon>
            <polygon id="Fill-4" fill="#E9E9E9" points="58.9979 -0.0001 -0.0001 33.9559 -0.0001 45.7779 117.9999 45.7779 117.9999 33.9559 59.0009 -0.0001"></polygon>
            <polygon id="Fill-5" fill="#155EAC" points="58.999 90.778 117.999 90.778 117.999 45.778 58.999 45.778"></polygon>
            <polygon id="Fill-6" fill="#D73F45" points="58.9995 90.7775 58.9995 135.8265 59.0015 135.8265 117.9995 101.8695 117.9995 90.7775"></polygon>
            <polygon id="Fill-7" fill="#FFFFFF" points="58.9995 -0.0001 58.9995 45.7779 117.9995 45.7779 117.9995 33.9559 59.0015 -0.0001"></polygon>
        </g>
    </g>
</svg>