<?xml version="1.0" encoding="UTF-8"?>
<svg width="118px" height="136px" viewBox="0 0 118 136" version="1.1" xmlns="http://www.w3.org/2000/svg" xmlns:xlink="http://www.w3.org/1999/xlink">
    <!-- Generator: Sketch 55.2 (78181) - https://sketchapp.com -->
    <title>saudi-arabia</title>
    <desc>Created with Sketch.</desc>
    <g id="Page-1" stroke="none" stroke-width="1" fill="none" fill-rule="evenodd">
        <g id="saudi-arabia">
            <polygon id="Fill-1" fill="#19A82D" points="59.0004 -0.0001 0.0004 33.9569 0.0004 101.8709 59.0004 135.8269 118.0004 101.8709 118.0004 33.9569"></polygon>
            <polygon id="Fill-2" fill="#009416" points="59.0004 -0.0001 59.0004 135.8269 118.0004 101.8709 118.0004 33.9569"></polygon>
            <g id="Group-59" transform="translate(21.000000, 43.827000)" fill="#FFFFFF">
                <path d="M2.707,12.3932 C5.081,12.6212 3.713,8.3742 4.573,7.6042 C4.735,7.2232 5,7.2222 5,7.7022 L5,11.3042 C5,12.4752 5.808,12.8212 6.406,13.0632 C7.029,13.0152 7.474,13.0352 7.718,13.6402 C7.815,15.7182 7.928,17.7952 8.024,19.8722 C8.024,19.8722 9.476,20.2862 9.544,16.3672 C9.614,14.0672 9.089,12.1412 9.399,11.6942 C9.41,11.2532 9.974,11.2272 10.362,11.4422 C10.983,11.8792 11.261,12.4202 12.226,12.2042 C13.692,11.7992 14.576,11.0852 14.597,9.9582 C14.511,8.8872 14.392,7.8172 13.927,6.7452 C13.993,6.5512 13.645,6.0462 13.709,5.8512 C13.973,6.2642 14.374,6.2302 14.465,5.8512 C14.216,5.0292 13.827,4.2402 13.2,3.8992 C12.681,3.4412 11.921,3.5352 11.643,4.4882 C11.513,5.5872 12.039,6.8942 12.84,7.9592 C13.009,8.3742 13.248,9.0672 13.143,9.6892 C12.717,9.9322 12.291,9.8302 11.935,9.4542 C11.935,9.4542 10.766,8.5782 10.766,8.3832 C11.075,6.3982 10.835,6.1732 10.662,5.6222 C10.542,4.8622 10.182,4.6192 9.89,4.0982 C9.598,3.7892 9.202,3.7892 9.013,4.0982 C8.497,4.9942 8.737,6.9162 9.111,7.7772 C9.38,8.5682 9.792,9.0642 9.598,9.0642 C9.436,9.5122 9.106,9.4092 8.864,8.8922 C8.52,7.8262 8.452,6.2332 8.452,5.5162 C8.349,4.6272 8.235,2.7312 7.65,2.2482 C7.293,1.7632 6.765,2.0002 6.579,2.4442 C6.541,3.3272 6.537,4.2082 6.636,5.0212 C7.037,6.4482 7.163,7.7022 7.358,9.1622 C7.412,11.1192 6.227,10.0102 6.281,9.0412 C6.554,7.7812 6.483,5.7982 6.24,5.2952 C6.049,4.7932 5.821,4.6692 5.353,4.7512 C4.981,4.7292 4.024,5.7742 3.755,7.5072 C3.755,7.5072 3.526,8.3992 3.429,9.1902 C3.298,10.0852 2.708,10.7172 2.295,9.0642 C1.938,7.8642 1.719,4.9072 1.12,5.5992 C0.949,7.9102 0.744,11.9762 2.707,12.3932" id="Fill-3"></path>
                <path d="M6.2832,14.0807 C4.3292,14.1167 1.4652,16.6457 1.3892,18.0477 C3.4512,17.0587 5.4772,16.1017 7.5722,15.0777 C7.2352,14.5737 7.5542,14.1157 6.2832,14.0807" id="Fill-5"></path>
                <path d="M12.9981,15.9557 L12.9981,15.9617 L12.9921,15.9747 C12.9091,16.0797 12.6241,16.0367 12.4181,16.0367 C12.1711,16.0257 12.0501,15.9827 11.9011,15.7817 C11.8301,15.5577 12.0431,15.3387 12.1391,15.1707 L12.1441,15.1647 L12.1871,15.1147 C12.2631,15.0467 12.3941,14.9817 12.5311,14.9647 C12.7441,14.9387 12.9871,15.0197 13.1101,15.3267 C13.2061,15.5727 13.1131,15.8277 12.9981,15.9557 M17.0601,21.6617 C17.9061,18.8447 17.0451,16.7147 17.3271,16.4537 L17.3411,16.4477 L17.3521,16.4417 L17.3651,16.4347 L17.4031,16.4297 C18.4461,17.5537 19.9091,16.5767 20.2301,16.1857 C20.3681,15.9907 20.7131,15.8657 20.9531,16.1177 C21.7681,16.7027 23.1971,16.4277 23.4961,15.3947 C23.6671,14.3857 23.8101,13.3467 23.8451,12.2677 C23.3131,12.4327 22.8891,12.5527 22.7171,12.7347 L22.6361,12.8847 C22.5891,13.1837 22.5451,13.4827 22.4981,13.7807 L22.4731,13.8507 L22.3741,13.9427 C22.1861,14.0467 21.8621,13.9847 21.8451,13.7137 C21.5931,12.5657 20.5511,12.4137 19.9191,14.1927 C19.4951,14.5367 18.7231,14.6017 18.6431,14.0867 C18.7461,12.8927 18.2671,12.7327 17.3031,13.2957 C16.9931,10.9317 16.6851,8.6757 16.3741,6.3117 C16.7761,6.3007 17.1421,6.5967 17.5091,6.1377 C17.1111,4.9007 16.2751,2.3867 15.8021,2.1497 L15.7891,2.1437 L15.7211,2.0757 L15.6891,2.0507 L15.6581,2.0317 L15.5961,2.0067 L15.4651,1.9947 C15.3481,2.0097 15.2201,2.0777 15.0661,2.1127 C14.5611,2.2727 14.0891,2.7097 14.2371,3.5587 C14.8351,7.1847 15.2241,9.9497 15.8201,13.5757 C15.9121,14.0007 15.5561,14.5607 15.0981,14.5047 C14.3171,13.9767 14.1241,12.9077 12.7921,12.9527 C11.8291,12.9647 10.7251,14.0117 10.5871,15.0207 C10.4271,15.8237 10.3691,16.6937 10.5871,17.3947 C11.2651,18.2097 12.0811,18.1087 12.7921,17.9257 C13.3771,17.6847 13.8561,17.2217 14.0631,17.2217 L14.0001,17.2217 L14.0001,17.2637 C14.0001,17.4867 14.0201,19.3767 11.2751,20.8337 C9.5881,21.5907 8.2651,21.7687 7.5421,20.3917 C7.0951,19.5307 7.5871,16.2567 6.4851,17.0147 C3.2271,25.4147 14.1191,26.5827 15.3351,17.3577 C15.4151,17.0977 15.6611,16.8387 15.8311,16.9027 C15.9041,16.9347 15.9691,17.0317 15.9941,17.2207 C15.7411,25.5737 7.5711,26.1467 6.1821,23.5187 C5.8381,22.8987 5.7371,21.5227 5.7021,20.6967 C5.6391,20.1967 5.5121,19.9077 5.3661,19.7927 C5.0351,19.5447 4.5901,20.1927 4.4941,21.3197 C4.3561,22.2267 4.3941,22.4787 4.3941,23.3517 C4.8301,29.9487 15.3511,27.1127 17.0601,21.6617" id="Fill-7"></path>
                <path d="M22.6104,2.9088 L22.6474,2.9018 C22.8374,2.8838 23.0674,3.0568 23.1794,3.3048 C23.2984,3.5668 23.2394,3.8188 23.0444,3.8668 C22.8474,3.9148 22.5944,3.7408 22.4744,3.4768 C22.3544,3.2148 22.4154,2.9568 22.6104,2.9088 L22.6104,2.9088 Z M18.0064,8.2208 L18.0114,8.2208 L18.0184,8.2208 L18.0244,8.2208 L18.0314,8.3558 C18.1854,8.4588 20.0894,8.3888 20.2984,8.2938 L20.3054,8.2208 L20.0004,8.2208 L20.0004,8.4778 C21.0004,8.2358 23.9134,4.6878 23.9134,4.6878 C23.7534,4.5508 23.6824,4.4488 23.5224,4.3108 C23.3504,4.1628 23.4064,4.0158 23.5624,3.8668 C24.3294,3.4198 24.1044,2.4348 23.7044,1.9878 C23.3704,1.8388 23.0674,1.7878 22.7864,1.8028 C22.5054,1.8168 22.2614,1.8968 22.0494,2.0068 C21.5104,2.5218 21.3864,3.3498 21.8114,3.8668 C22.2244,4.0608 22.6374,4.4778 22.3624,4.7068 C21.1934,5.9558 18.1554,8.0418 18.0024,8.4218 L18.0004,8.4338 L18.0004,8.4468 L18.0004,8.4528 L18.0034,8.3398 L18.0064,8.2208 Z" id="Fill-9"></path>
                <path d="M2.4932,24.4498 C1.9792,25.4938 1.7662,24.7778 1.7212,24.1948 C1.6412,23.0908 1.7462,22.0718 1.8662,21.2648 C1.9942,20.4388 1.8642,20.6908 1.6022,21.0248 C0.4402,22.8768 0.3402,25.6418 0.9812,26.4668 C1.3212,26.8558 1.8822,27.0268 2.2952,26.9048 C3.0252,26.5888 3.3462,25.1088 3.1722,24.5678 C2.9292,24.1868 2.7362,24.1258 2.4932,24.4498" id="Fill-11"></path>
                <path d="M43.6514,4.7662 C43.6864,4.9192 43.7184,5.0742 43.7414,5.2312 C43.8184,5.5712 43.8794,5.8972 43.9494,6.2312 C43.6454,5.8122 43.4124,5.5032 43.3044,5.3842 C42.6264,4.5782 43.3204,4.8602 43.6514,4.7662 M40.7654,4.8742 C42.1284,6.7062 43.4344,8.5472 44.7004,10.4532 C44.9004,11.8682 45.0494,13.2572 45.1434,14.6362 C45.3484,17.6592 45.4124,21.4212 45.2244,24.6052 C45.7914,24.6262 46.7014,23.6882 47.0204,22.3162 C47.2274,20.4172 46.9434,16.5422 46.9244,15.4222 C46.9114,14.9572 46.8864,14.4142 46.8544,13.8342 C48.3274,16.2422 49.7554,18.7862 51.1594,21.5852 C51.6704,21.3432 51.5584,18.4652 51.2584,18.0602 C50.1354,15.6422 48.5804,13.2522 48.0854,12.3332 C47.9054,12.0012 47.3014,11.0782 46.5784,10.0082 C46.4454,8.4832 46.3044,7.2022 46.2104,6.8122 C45.9784,5.2032 46.8724,6.9892 46.7484,6.0522 C46.4594,4.4452 45.5674,3.3552 44.5194,1.8832 C44.1814,1.4042 44.1934,1.3072 43.6714,2.0002 C43.3594,2.7072 43.3634,3.2942 43.4554,3.8452 C43.3184,3.6462 43.1454,3.4142 42.9014,3.1202 C41.9964,2.3442 41.9434,2.2972 41.1924,1.6632 C40.8134,1.3952 39.8874,0.9042 39.7234,1.7182 C39.6424,2.4352 39.6864,2.8252 39.8064,3.4222 C39.8994,3.8222 40.4804,4.4882 40.7654,4.8742" id="Fill-13"></path>
                <path d="M51.5772,22.3297 C50.2682,23.6957 48.3802,25.3777 46.3272,26.1517 C46.1062,26.3997 46.8732,27.4617 47.8692,27.4597028 C49.5342,27.2667 51.0012,26.3307 52.3582,23.8677 C52.7212,23.2947 53.3592,22.0657 53.3782,21.1127 C53.5052,15.5247 53.0982,11.1787 52.2612,7.1407 C52.2082,6.7467 52.2402,6.2847 52.3062,6.1667 C52.4152,6.0387 52.7802,6.1677 52.9742,5.8487 C53.2592,5.5587 52.2192,3.1507 51.6252,2.2237 C51.4142,1.8097 51.3412,1.5327 50.9932,2.2717 C50.6262,2.8727 50.3802,3.9217 50.4082,4.9007 C51.2032,10.4017 51.4472,15.2147 51.9662,20.7157 C52.0092,21.2477 51.9312,22.0207 51.5772,22.3297" id="Fill-15"></path>
                <path d="M73.4922,7.0856 C73.4382,6.6926 73.2632,5.7876 73.3312,5.6696 C73.4382,5.3936 73.9812,5.6986 74.1762,5.3816 C74.4612,5.0906 72.7702,2.9196 72.1772,1.9916 C71.9662,1.5776 71.8922,1.3016 71.5442,2.0406 C71.1772,2.6416 71.0492,3.7196 71.1962,4.6696 C72.0792,10.6436 72.7362,16.4246 72.8722,21.7196 C72.7962,22.2226 72.7772,22.4926 72.5422,23.1266 C72.0202,23.7956 71.4432,24.6306 70.9012,25.0336 C70.3592,25.4386 69.2042,25.8236 68.8272,26.1226 C67.6332,26.8146 67.6312,27.6076 68.5972,27.6376 C70.2632,27.4436 72.2312,27.3056 73.5892,25.2556 C73.9522,24.6816 74.3832,23.1286 74.4012,22.1766 C74.5292,16.5886 74.3292,11.1246 73.4922,7.0856" id="Fill-17"></path>
                <path d="M60.8916,13.0309 C60.9066,12.2659 60.9816,11.2489 61.0226,10.6159 C61.0396,10.3769 61.0956,10.1129 61.3246,10.0529 C61.5536,9.9929 61.9556,10.2859 61.9596,10.0369 C61.9186,9.5499 61.8186,8.8289 61.5426,8.4889 C61.1666,7.9309 60.1686,8.0679 59.9956,8.9409 C59.9966,9.2629 60.1456,9.4369 60.1186,9.7289 C60.0766,9.8959 59.9026,10.0099 59.4926,9.8129 L59.2236,9.2889 C58.9036,9.0949 58.4756,9.2979 58.1976,9.4789 C58.0436,9.7569 57.9326,10.2319 58.1066,10.7179 C58.5666,11.5679 60.1406,13.0179 60.8916,13.0309" id="Fill-19"></path>
                <path d="M60.3633,5.4996 C61.4663,6.8536 62.5953,8.2986 63.7283,9.8026 C63.9663,12.8706 64.0293,15.6836 64.2713,18.7576 C64.2373,20.0726 63.8283,21.8166 63.4453,21.9816 C63.4453,21.9816 62.8623,22.3196 62.4703,21.9466 C62.1863,21.8326 61.0483,20.0496 61.0483,20.0496 C60.4663,19.5156 60.0813,19.6676 59.6673,20.0496 C58.5253,21.1516 58.0083,23.2156 57.2323,24.6386 C57.0313,24.9556 56.4663,25.2286 55.8393,24.6156 C54.5473,22.8506 54.9183,20.4786 54.9983,20.0746 L54.9823,20.1426 C53.5643,21.7396 54.1893,24.3826 54.5093,24.9526 C54.9773,25.8876 55.3543,26.4866 56.2623,26.9496 C57.0923,27.5606 57.7373,27.1786 58.0923,26.7516 C58.9263,25.8876 58.9373,23.6826 59.3283,23.2446 C59.6023,22.4406 60.2943,22.5786 60.6293,22.9356 C60.9543,23.4016 61.3383,23.7036 61.8143,23.9576 C62.5923,24.6446 63.5213,24.7696 64.4363,24.1446 C65.0613,23.7936 65.4673,23.3406 65.8343,22.4406 C66.2243,21.3966 66.0323,15.9086 65.9433,12.8356 C66.5273,13.6576 67.1073,14.4926 67.6793,15.3426 C67.9323,18.0326 68.0563,20.6856 67.9723,23.2266 C67.9133,23.7306 69.7353,21.7206 69.7233,20.7686 C69.7163,19.9376 69.7223,19.1846 69.7213,18.4836 C70.6033,19.8916 71.4583,21.3206 72.2643,22.7706 C72.7653,22.5046 72.5983,19.6666 72.2823,19.2756 C71.4483,17.8766 70.3483,16.3276 69.5133,15.1466 C69.3483,13.6526 69.1163,11.8626 69.0143,11.3236 C68.8543,10.4796 68.6963,9.2156 68.4543,8.2126 C68.3873,7.8216 68.1843,6.5676 68.2473,6.4476 C68.3453,6.1676 68.7213,6.4566 68.9063,6.1326 C69.1803,5.8326 67.9523,2.6536 67.3293,1.7456 C67.1043,1.3386 66.6983,1.4786 66.1963,2.1406 C65.7303,2.5756 65.9033,3.5676 66.0813,4.5136 C66.5423,6.9196 66.9553,9.3696 67.2813,11.8126 C66.6813,10.9206 65.9333,9.8246 65.2143,8.7866 C65.1593,8.5086 65.1243,8.3236 65.1243,8.3146 C65.1243,8.2726 65.0223,6.3456 64.9363,5.8866 C64.9213,5.6986 64.8753,5.6456 65.0703,5.6686 C65.2773,5.8436 65.3053,5.8536 65.4343,5.9126 C65.6443,5.9496 65.8323,5.5946 65.7053,5.2676 C65.0583,4.0736 64.4113,2.8806 63.7643,1.6866 C63.6083,1.5336 63.4073,1.3646 63.1613,1.7296 C62.9253,1.9366 62.6733,2.3116 62.6803,2.7936 C62.7383,3.6426 62.8873,4.5046 62.9443,5.3536 C62.9653,5.4676 62.9853,5.5826 63.0053,5.6966 C62.9153,5.5816 62.8373,5.4856 62.7923,5.4396 C61.1383,3.7026 63.5503,5.1576 62.4753,3.8156 C61.5663,2.8166 61.3013,2.5036 60.5223,1.9036 C60.1333,1.6516 59.8963,1.1706 59.7673,1.9906 C59.7173,2.7116 59.6633,3.5456 59.7123,4.1526 C59.7103,4.4906 60.0613,5.1256 60.3633,5.4996" id="Fill-21"></path>
                <path d="M62.3408,51.0016 L62.3108,51.0136 L62.2858,51.0136 L62.2608,51.0136 C61.6728,50.9996 61.3328,50.9846 60.7458,50.9706 L60.7348,50.8846 C60.5948,50.4716 59.5868,50.4986 59.3498,50.8216 L59.3368,50.8406 L59.3238,50.8646 L59.3128,50.8966 L59.3058,50.9396 L59.2998,50.9886 C58.5068,51.0846 57.7938,50.9636 57.0008,50.9336 C56.7678,50.6436 56.7948,50.1196 57.0688,49.9936 L57.0748,49.9936 C58.8818,50.0826 60.5768,50.0106 62.3838,50.0996 C62.6698,50.3426 62.5268,50.8996 62.3408,51.0016 M63.2258,47.6506 C62.7388,47.7246 61.3768,47.8616 61.3768,47.8616 C59.7998,47.6736 58.6438,47.6546 56.8698,47.5896 C57.0338,47.3826 57.3228,46.5856 56.9698,46.2806 C56.8768,46.2046 56.7398,46.2216 56.5498,46.2216 L56.5428,46.2216 L56.5308,46.2216 L56.5248,46.1696 L56.5068,46.1416 L56.4758,46.0986 L56.4628,46.0816 C56.3728,45.9506 56.3238,45.6276 56.2648,45.5466 L56.2598,45.5376 L56.2528,45.3806 L56.2398,45.2216 L56.2348,45.2216 L56.2288,45.2216 L56.2218,45.3806 C55.0498,45.6806 55.0858,46.9736 55.8388,47.5076 C43.4588,47.5076 24.4608,47.3356 20.3858,47.3356 C18.1068,47.3356 10.8948,47.0816 10.7558,47.0816 C12.3018,49.3446 14.5428,49.8146 17.4748,49.8596 C22.9728,49.8596 48.4508,49.7976 55.7028,49.7976 C55.1878,50.7126 55.7488,52.1876 56.1538,52.4576 L56.1848,52.4776 L56.2348,52.4956 L56.2528,52.4966 C56.7338,52.6096 56.9448,52.2626 57.1068,52.0096 C57.8848,52.0776 62.2678,52.1416 62.6688,52.0026 L62.6748,51.9966 C62.9458,52.3966 63.2148,52.7726 63.7318,52.7076 C64.6358,52.5136 65.3468,52.4156 65.3698,50.5816 C65.3698,50.5816 65.2778,47.4546 63.2258,47.6506" id="Fill-23"></path>
                <path d="M26.9053,10.5514 C27.8543,10.9454 28.4593,9.1384 28.8473,7.1594 C29.1133,6.6034 29.3153,6.5444 29.4513,6.8294 C29.4163,9.4614 29.6403,10.0454 30.3173,10.8434 C31.8263,12.0084 33.0753,10.9924 33.1733,10.8944 C33.2713,10.7964 34.3483,9.7194 34.3483,9.7194 C34.6093,9.4444 34.9573,9.4284 35.3273,9.6694 C35.6863,9.9954 35.6353,10.5604 36.4043,10.9504 C37.0513,11.2094 38.4343,11.0114 38.7553,10.4534 C39.1853,9.7144 39.2893,9.4604 39.4893,9.1804 C39.7973,8.7704 40.3213,8.9524 40.3213,9.0814 C40.2733,9.3114 39.9653,9.5394 40.1753,9.9504 C40.5413,10.2254 40.6263,10.0484 40.8423,9.9884 C41.6083,9.6214 42.1823,7.9564 42.1823,7.9564 C42.2173,7.3364 41.8693,7.3884 41.6443,7.5164 C41.3503,7.6964 41.3313,7.7514 41.0373,7.9314 C40.6633,7.9884 39.9363,8.2364 39.5783,7.6794 C39.2103,7.0114 39.2063,6.0784 38.9263,5.4054 C38.9263,5.3564 38.4393,4.3424 38.8913,4.2784 C39.1213,4.3204 39.6073,4.4484 39.6853,4.0384 C39.9253,3.6384 39.1723,2.5054 38.6573,1.9334 C38.2103,1.4434 37.5903,1.3834 36.9933,1.8844 C36.5733,2.2704 36.6343,2.7004 36.5513,3.1084 C36.4453,3.5764 36.4683,4.1544 36.9433,4.7744 C37.3613,5.5984 38.1243,6.6594 37.8733,8.1524 C37.8733,8.1524 37.4273,8.8574 36.6523,8.7644 C36.3283,8.6954 35.8033,8.5574 35.5233,6.4874 C35.3103,4.9194 35.5733,2.7284 34.9083,1.6994 C34.6683,1.0794 34.4923,0.4804 33.9073,1.5414 C33.7503,1.9584 33.0753,2.5904 33.5643,3.8914 C33.9653,4.7174 34.1283,6.0594 33.9463,7.5524 C33.6693,7.9774 33.6073,8.1214 33.2433,8.5454 C32.7323,9.0954 32.1773,8.9544 31.7533,8.7494 C31.3563,8.4824 31.0453,8.3434 30.8633,7.4934 C30.8963,6.1394 30.9713,3.9214 30.7243,3.4504 C30.3593,2.7224 29.7583,2.9864 29.5003,3.2064 C28.2643,4.3364 27.6543,6.2424 27.2813,7.7604 C26.9383,8.8654 26.5743,8.5494 26.3173,8.1024 C25.6933,7.5194 25.6513,2.9444 24.8983,3.6964 C23.6903,7.1454 25.5893,10.9184 26.9053,10.5514" id="Fill-25"></path>
                <path d="M36.2158,20.6715 C35.4578,20.9315 34.7318,21.1335 34.7278,22.2295 C34.8268,22.7715 34.8068,23.0585 34.7218,23.1885 L34.6958,23.2195 L34.6908,23.2265 L34.6848,23.2325 L34.6778,23.2385 L34.6718,23.2445 L34.6588,23.2505 L34.6208,23.2705 L34.5838,23.2755 C34.4038,23.3025 34.1438,23.1285 33.9488,23.0255 C33.4818,22.6915 32.1668,21.8805 31.9808,20.1365 C31.9538,19.7415 32.2478,19.3285 32.7218,19.2955 L32.7898,19.2215 L32.8028,19.2215 C33.5898,19.2215 34.7488,19.5275 35.7558,19.6315 C36.5758,19.6845 36.9858,20.4005 36.2158,20.6715 L36.2158,20.6715 Z M39.0388,13.5945 L39.0638,13.5315 L39.0758,13.5075 L39.0818,13.5015 L39.1128,13.4695 L39.2948,13.4015 C39.4478,13.3855 39.6478,13.4385 39.8418,13.5505 C40.1238,13.7135 40.2948,13.9575 40.2728,14.1365 L40.2728,14.1545 L40.2658,14.1735 L40.2598,14.1925 L40.2538,14.2045 L40.2468,14.2175 L40.2098,14.2605 C40.0738,14.3875 39.7628,14.3695 39.4688,14.1985 C39.1898,14.0375 39.0148,13.7915 39.0318,13.6125 L39.0388,13.5945 Z M44.8638,18.0245 L44.8698,18.0175 L44.9348,18.0115 L44.9998,18.0055 L44.9998,17.9925 L44.9348,17.9375 L44.5438,17.7255 L37.4648,17.6935 L37.2638,17.5945 L37.2488,17.5815 L37.2398,17.5745 L37.2328,17.5685 L37.1158,17.5565 L36.9998,17.5505 L36.9998,17.5445 L36.9998,17.5375 L36.9998,17.5315 L36.9998,17.5255 L36.9998,17.5195 L36.9998,17.5135 L36.9998,17.5075 L36.9998,17.5005 L36.9998,17.4935 L36.9998,17.4875 L37.1128,17.4825 L37.1718,17.4695 C37.2078,17.4235 37.3188,17.3785 37.4238,17.3395 C39.1118,17.1085 42.1218,16.6205 42.3208,13.7375 C42.2908,12.2365 41.6838,11.2505 39.8418,10.9785 C38.4878,11.0825 37.5278,12.3965 37.6828,13.8375 C37.6188,14.2265 37.8148,15.0465 37.4168,15.1325 C34.8208,15.3695 31.9868,17.2215 31.8938,18.2215 L31.8878,18.2215 L31.8808,18.2215 L31.8678,18.2215 L31.8558,18.2215 L31.8368,18.2215 L31.8308,18.2215 L31.8188,18.2215 L31.8138,18.2215 L31.7998,18.2215 L31.7748,18.1635 C31.6068,18.1175 31.3918,17.8135 31.4258,17.4215 C31.3268,15.4075 30.6698,13.3185 29.6438,11.5655 C29.2788,11.1975 29.1188,11.2215 29.0148,11.2215 L29.0018,11.2215 L28.9838,11.2215 L28.9778,11.2215 L28.9718,11.2215 L28.9648,11.2215 L28.9338,11.0405 L28.9148,10.9525 C28.8348,11.0125 28.7378,11.0975 28.5288,11.2455 C28.1748,11.6485 28.1138,11.9015 28.1368,12.7085 C28.1568,12.7945 28.8058,14.5955 29.3578,15.8685 C29.7298,17.1925 30.0768,18.7035 29.8248,20.1355 C28.9528,22.0275 27.1978,23.7215 25.5078,24.6435 C24.6458,24.9185 23.9058,24.8225 23.7068,24.6355 L23.5908,24.6285 C23.0958,24.2965 22.9998,23.7015 22.9998,23.6005 L22.9998,23.5935 L23.1168,23.5865 C24.5438,22.5935 26.2318,21.7905 27.5078,19.1085 C27.8848,18.0815 28.0278,17.4665 27.6538,15.8805 C27.5078,15.2905 27.3348,14.8045 26.9328,14.3855 L26.9458,14.3795 C27.1888,14.2635 27.8238,14.7285 27.9208,14.4365 C27.7718,13.6785 27.2628,12.6625 26.6828,12.1435 C26.1748,11.6805 25.6228,11.6265 25.1578,12.0505 C24.6338,12.3415 24.3458,13.3885 24.5978,14.3055 C24.8778,14.9945 25.9998,15.1145 25.9998,16.5035 L25.9998,16.5095 C25.9998,16.5975 26.3588,17.5525 26.0868,17.9375 C25.8668,18.6235 23.1228,20.8555 22.9218,20.9895 L22.9538,21.0015 L22.9678,21.0085 L22.9738,21.1145 L22.9778,21.2215 L22.9718,21.2215 L22.9658,21.2215 L22.9998,21.0145 L22.9998,21.0085 L22.9728,20.9955 C22.9648,20.9405 22.9248,20.7945 22.9178,20.5665 C22.8998,20.1485 22.9998,19.2015 22.9998,19.0395 L22.9998,19.0325 L22.9998,19.0265 L22.9998,19.2215 L23.0788,19.2215 C22.1428,19.2215 21.8338,21.5755 21.6628,22.1245 C19.2948,23.7605 16.6098,24.9325 15.0608,26.5905 C14.2538,27.8505 20.6188,25.1165 21.3588,24.7895 L21.3768,24.7965 C21.5178,24.9505 21.5278,25.4805 21.9498,25.9675 C22.6118,26.8625 24.0148,27.4145 25.3838,27.0715 C27.6778,26.2425 29.0018,24.6755 30.3478,22.9415 C30.5398,22.6615 30.8418,22.4435 31.1198,22.6595 C32.0458,24.7315 34.7128,26.2015 38.1598,26.3545 C38.9578,25.3835 38.5768,24.9045 38.2538,24.7025 C38.1538,24.6355 36.5418,24.0085 36.2918,23.3815 C36.1338,22.7985 36.5128,22.2815 37.2818,21.8935 C39.4958,21.6255 41.6738,21.3235 43.7788,20.6465 C43.8008,19.9395 44.2168,18.8815 44.4958,18.4225 C44.6908,18.1045 44.8178,18.0685 44.8638,18.0245 L44.8638,18.0245 Z" id="Fill-27"></path>
                <path d="M10.0254,3.734 C10.8384,4.122 12.3694,3.957 12.3034,2.644 C12.3034,2.528 12.2744,2.135 12.2624,2.03 C12.0964,1.643 11.6434,1.739 11.5414,2.138 C11.5084,2.269 11.5984,2.482 11.4814,2.547 C11.4134,2.616 11.1524,2.576 11.1634,2.213 C11.1634,2.098 11.0784,1.973 11.0264,1.9 C10.9754,1.866 10.9424,1.858 10.8494,1.858 C10.7364,1.862 10.7374,1.891 10.6754,1.987 C10.6494,2.084 10.6134,2.179 10.6134,2.29 C10.5984,2.419 10.5494,2.463 10.4554,2.483 C10.3494,2.483 10.3734,2.495 10.2874,2.44 C10.2364,2.383 10.1724,2.362 10.1724,2.267 C10.1724,2.169 10.1494,2.009 10.1204,1.944 L9.9214,1.836 C9.4774,1.838 9.4464,2.344 9.4714,2.537 C9.4384,2.573 9.4204,3.481 10.0254,3.734" id="Fill-29"></path>
                <path d="M33.874,13.8278 C34.687,14.2158 36.623,13.9928 36.151,12.7378 C36.151,12.6228 36.122,12.2298 36.11,12.1238 C35.945,11.7368 35.492,11.8328 35.389,12.2318 C35.357,12.3628 35.447,12.5758 35.328,12.6408 C35.26,12.7098 35.001,12.6708 35.011,12.3068 C35.011,12.1918 34.926,12.0668 34.875,11.9948 C34.823,11.9608 34.791,11.9518 34.697,11.9518 C34.584,11.9558 34.586,11.9858 34.523,12.0808 C34.497,12.1778 34.46,12.2728 34.46,12.3838 C34.446,12.5128 34.398,12.5578 34.303,12.5778 C34.196,12.5778 34.222,12.5888 34.135,12.5338 C34.084,12.4768 34.02,12.4568 34.02,12.3618 C34.02,12.2638 33.998,12.1028 33.968,12.0378 L33.77,11.9308 C33.325,11.9318 33.294,12.4378 33.319,12.6308 C33.286,12.6678 33.268,13.5758 33.874,13.8278" id="Fill-31"></path>
                <path d="M47.7803,9.65 C48.5923,10.038 50.1233,9.873 50.0573,8.56 C50.0573,8.444 50.0283,8.051 50.0173,7.946 C49.8513,7.559 49.3973,7.655 49.2953,8.054 C49.2623,8.185 49.3523,8.398 49.2343,8.463 C49.1673,8.532 48.9073,8.492 48.9173,8.129 C48.9173,8.014 48.8323,7.889 48.7803,7.817 C48.7293,7.783 48.6963,7.774 48.6033,7.774 C48.4903,7.778 48.4923,7.808 48.4293,7.903 C48.4033,8 48.3673,8.095 48.3673,8.206 C48.3523,8.335 48.3033,8.379 48.2093,8.399 C48.1033,8.399 48.1283,8.411 48.0413,8.356 C47.9903,8.299 47.9263,8.279 47.9263,8.183 C47.9263,8.086 47.9043,7.925 47.8753,7.86 L47.6763,7.752 C47.2313,7.754 47.2003,8.26 47.2253,8.453 C47.1923,8.489 47.1743,9.398 47.7803,9.65" id="Fill-33"></path>
                <path d="M48.3262,4.566 C48.6162,5.378 48.1082,6.153 48.4112,6.264 C48.6882,6.39 49.0752,5.427 49.2202,4.536 C49.3882,3.815 48.8742,2.338 48.1442,2.033 C47.6982,1.927 47.0702,2.189 47.2752,2.786 C47.1712,3.07 48.1652,4.037 48.3262,4.566" id="Fill-35"></path>
                <path d="M55.8291,23.6022092 C56.3951,23.6062 57.0491,22.3052 57.3291,21.0182 C57.4811,19.2462 57.2241,18.1652 57.1781,17.1222 C57.1321,16.0802 55.9991,7.6302 55.7681,6.8422 C55.4921,5.3512 56.8701,6.6422 56.7201,5.7752 C56.2431,4.6822 55.0571,3.0902 54.6831,2.1412 C54.4601,1.7342 54.5541,1.3732 54.0521,2.0342 C53.5871,3.5552 53.4251,4.7982 53.6021,5.7442 C54.7981,11.9802 56.0231,17.6652 55.8291,23.6022092" id="Fill-37"></path>
                <path d="M69.9473,6.8883 C70.0793,7.2963 69.7493,8.6073 70.0243,8.7283 C70.2773,8.8653 70.6303,7.8223 70.7623,6.8563 C70.8353,6.3273 70.4463,4.4763 69.7823,4.1463 C69.3743,4.0343 68.8013,4.3163 68.9893,4.9613 C68.8933,5.2703 69.8013,6.3163 69.9473,6.8883" id="Fill-39"></path>
                <path d="M20.6309,21.0319 C20.8739,21.1319 21.2109,20.3649 21.3369,19.6559 C21.4069,19.2669 21.0339,17.9079 20.3999,17.6649 C20.0089,17.5819 19.4759,17.6869 19.6409,18.2639 C19.6219,18.5779 20.5049,18.9539 20.5579,19.6799 C20.6849,19.9799 20.3679,20.9429 20.6309,21.0319" id="Fill-41"></path>
                <path d="M3.5049,3.6813 C3.6299,3.9933 3.3799,4.9913 3.6399,5.0833 C3.8789,5.1863 4.2099,4.3923 4.3359,3.6573 C4.4039,3.2533 4.3499,1.8753 3.4109,1.5923 C3.0259,1.5053 2.4869,1.7213 2.6629,2.2133 C2.5729,2.4493 3.3659,3.2453 3.5049,3.6813" id="Fill-43"></path>
                <path d="M21.9317,8.0914 C21.2107,8.4814 20.9327,9.6414 21.3807,10.3164 C21.7987,10.9114 22.4597,10.6904 22.5477,10.6904 C23.2527,10.7784 23.6707,9.3684 23.6707,9.3684 C23.6707,9.3684 23.6927,8.9734 22.8557,9.7224 C22.5037,9.7874 22.4597,9.6554 22.3717,9.4564 C22.2977,9.0904 22.3127,8.7224 22.4817,8.3564 C22.6067,8.0044 22.3347,7.8494 21.9317,8.0914" id="Fill-45"></path>
                <path d="M27.3526,3.7574 C27.6186,3.5614 27.7076,3.4314 27.7976,3.1034 C27.9086,2.5534 27.2156,3.3634 27.1276,2.7514 C26.9736,2.1834 27.4176,1.9494 27.8356,1.3994 C27.8506,1.0224 27.8416,0.7554 27.3276,1.0614 C26.9646,1.3024 26.2466,2.0484 26.2236,2.9074 C26.2026,3.3914 26.1126,3.3904 26.4296,3.6984 C26.6586,4.0284 26.8896,3.9994 27.3526,3.7574" id="Fill-47"></path>
                <path d="M32.2363,4.0514 C32.7033,2.7884 32.7033,2.2524 32.7343,1.7174 C32.5893,0.9014 32.0383,0.9274 31.6743,1.8324 C31.5193,2.1774 31.3333,3.9754 31.3633,3.9754 C31.2393,4.5114 31.9243,4.7394 32.2363,4.0514" id="Fill-49"></path>
                <path d="M62.9492,13.0094 C62.9492,13.0094 59.1792,15.6874 59.0862,15.7804 C58.7132,16.1134 58.8992,17.2864 59.0862,17.1524 C59.3562,17.2554 63.1462,14.6804 63.0732,14.3794 C63.2502,14.3894 63.3342,12.8744 62.9492,13.0094" id="Fill-51"></path>
                <path d="M62.4863,20.278 C62.7393,20.415 63.4033,19.591 63.3793,18.561 C63.4533,18.034 63.1883,16.09 62.5243,15.759 C62.1173,15.645 61.5753,15.99 61.7613,16.636 C61.6673,16.945 62.2313,18.023 62.3783,18.595 C62.5093,19.002 62.2113,20.157 62.4863,20.278" id="Fill-53"></path>
                <path d="M41.1319,25.9049 C41.1319,25.9359 41.4519,26.2129 41.8259,25.9949 C42.6149,25.6929 43.1109,25.3979 44.2159,25.1569 C44.5049,25.1509 44.4869,24.3749 44.0279,24.3469 C43.4309,24.3779 42.8759,24.4079 42.2779,24.8789 C41.9089,24.9639 41.8489,24.7399 41.7679,24.5399 C41.6739,24.0409 41.9729,23.6929 41.9109,23.3189 C41.9329,23.3419 41.5679,23.0079 41.1939,23.1939 C41.1759,23.1939 40.3659,23.7469 40.1039,24.1299 C39.9439,24.2519 39.9599,24.3539 40.0089,24.5649 C40.1339,24.8509 40.3529,24.7619 40.6019,24.6279 C40.9329,24.5829 41.0929,24.8009 41.0659,25.1979 C40.9129,25.6919 41.1319,25.8739 41.1319,25.9049" id="Fill-55"></path>
                <path d="M68.4277,25.7125 C68.2737,25.5355 67.9267,25.6415 67.6927,25.6115 C67.5817,25.6115 67.2167,25.5575 67.3907,25.2335 C67.5347,25.0335 67.5867,24.9095 67.6857,24.6625 C67.7957,24.4195 67.6997,24.2595 67.3047,24.1265 C66.9007,24.0535 66.7397,24.0895 66.2907,24.1265 C66.0487,24.1785 65.9667,24.2865 65.9227,24.5795 C65.9397,25.0255 66.2107,24.9995 66.4897,25.1765 C66.6517,25.3815 66.7547,25.5715 66.4767,25.9085 C66.2117,26.1515 66.0267,26.2845 65.7617,26.5275 C65.6367,26.7405 65.5577,27.0635 65.9397,27.1655 C66.6437,27.3635 68.2737,26.3075 68.2737,26.2845 C68.5377,26.0875 68.4487,25.7125 68.4277,25.7125" id="Fill-57"></path>
            </g>
        </g>
    </g>
</svg>