<?xml version="1.0" encoding="UTF-8"?>
<svg width="118px" height="136px" viewBox="0 0 118 136" version="1.1" xmlns="http://www.w3.org/2000/svg" xmlns:xlink="http://www.w3.org/1999/xlink">
    <!-- Generator: Sketch 55.2 (78181) - https://sketchapp.com -->
    <title>turkey</title>
    <desc>Created with Sketch.</desc>
    <g id="Page-1" stroke="none" stroke-width="1" fill="none" fill-rule="evenodd">
        <g id="turkey">
            <polygon id="Fill-1" fill="#D73F45" points="58.9988 -0.0001 -0.0002 33.9559 -0.0002 101.8709 59.0008 135.8259 117.9998 101.8709 117.9998 33.9559 59.0018 -0.0001"></polygon>
            <polygon id="Fill-2" fill="#D02228" points="59.0004 -0.0001 59.0004 135.8259 118.0004 101.8709 118.0004 33.9559 59.0024 -0.0001"></polygon>
            <g id="Group-7" transform="translate(26.000000, 44.827000)" fill="#FFFFFF">
                <path d="M30.0793,42.1948 C19.7373,42.1948 11.3523,33.8318 11.3523,23.5148 C11.3523,13.1988 19.7373,4.8358 30.0793,4.8358 C35.6053,4.8358 40.5723,7.2218 44.0013,11.0228 C39.8503,4.4958 32.5483,0.1638 24.2263,0.1638 C11.2983,0.1638 0.8183,10.6168 0.8183,23.5148 C0.8183,36.4098 11.2983,46.8628 24.2263,46.8628 C32.5473,46.8628 39.8483,42.5308 43.9993,36.0078 C40.5713,39.8038 35.6043,42.1948 30.0793,42.1948" id="Fill-3"></path>
                <polygon id="Fill-5" points="60.1838 23.5151 65.1818 16.6521 57.0948 19.2731 52.0958 12.4101 52.0958 20.8941 44.0078 23.5151 52.0958 26.1361 52.0958 34.6171 57.0938 27.7531 65.1818 30.3781"></polygon>
            </g>
        </g>
    </g>
</svg>