<?xml version="1.0" encoding="UTF-8"?>
<svg width="118px" height="136px" viewBox="0 0 118 136" version="1.1" xmlns="http://www.w3.org/2000/svg" xmlns:xlink="http://www.w3.org/1999/xlink">
    <!-- Generator: Sketch 55.2 (78181) - https://sketchapp.com -->
    <title>taiwan</title>
    <desc>Created with Sketch.</desc>
    <g id="Page-1" stroke="none" stroke-width="1" fill="none" fill-rule="evenodd">
        <g id="taiwan">
            <polygon id="Fill-1" fill="#D73F45" points="58.9995 -0.0001 58.9995 135.8269 117.9995 101.8699 117.9995 33.9569"></polygon>
            <polygon id="Fill-2" fill="#D73F45" points="58.9995 -0.0001 0.0005 33.9569 0.0005 101.8699 58.9995 135.8269"></polygon>
            <polygon id="Fill-3" fill="#D02228" points="58.9995 -0.0001 58.9995 135.8269 117.9995 101.8699 117.9995 33.9569"></polygon>
            <path d="M58.9995,-0.0001 L58.9995,135.8269 L58.9995,-0.0001 Z" id="Fill-4" fill="#D02228"></path>
            <polygon id="Fill-5" fill="#155EAC" points="58.9995 -0.0001 0.0005 33.9569 0.0005 68.4129 58.9995 68.4129"></polygon>
            <g id="Group-10" transform="translate(12.000000, 25.827000)" fill="#FFFFFF">
                <path d="M18.6668,12.047 C14.7788,12.047 11.6278,15.199 11.6278,19.087 C11.6278,22.976 14.7788,26.127 18.6668,26.127 C22.5558,26.127 25.7068,22.976 25.7068,19.087 C25.7068,15.199 22.5558,12.047 18.6668,12.047" id="Fill-6"></path>
                <path d="M18.6668,28.2286 C13.6178,28.2286 9.5258,24.1356 9.5258,19.0866 C9.5258,14.0386 13.6178,9.9456 18.6668,9.9456 C23.7158,9.9456 27.8088,14.0386 27.8088,19.0866 C27.8088,24.1356 23.7158,28.2286 18.6668,28.2286 L18.6668,28.2286 Z M27.7868,21.5316 L36.9498,19.0866 L27.7868,16.6436 L34.5008,9.9456 L25.3438,12.4106 L27.8088,3.2536 L21.1108,9.9676 L18.6668,0.8036 L16.2238,9.9676 L9.5258,3.2536 L11.9908,12.4106 L2.8338,9.9456 L9.5478,16.6436 L0.3848,19.0866 L9.5478,21.5316 L2.8338,28.2286 L11.9908,25.7636 L9.5258,34.9196 L16.2238,28.2066 L18.6668,37.3696 L21.1108,28.2066 L27.8088,34.9196 L25.3438,25.7636 L34.5008,28.2286 L27.7868,21.5316 Z" id="Fill-8"></path>
            </g>
        </g>
    </g>
</svg>