<?xml version="1.0" encoding="UTF-8"?>
<svg width="118px" height="136px" viewBox="0 0 118 136" version="1.1" xmlns="http://www.w3.org/2000/svg" xmlns:xlink="http://www.w3.org/1999/xlink">
    <!-- Generator: Sketch 55.2 (78181) - https://sketchapp.com -->
    <title>usa</title>
    <desc>Created with Sketch.</desc>
    <g id="Page-1" stroke="none" stroke-width="1" fill="none" fill-rule="evenodd">
        <g id="usa" transform="translate(-1.000000, 0.000000)">
            <polygon id="Fill-1" fill="#FFFFFF" points="1 81.944 59.999 81.944 59.999 71.944 1 71.944"></polygon>
            <polygon id="Fill-2" fill="#D73F45" points="1 91.944 59.999 91.944 59.999 81.944 1 81.944"></polygon>
            <polygon id="Fill-3" fill="#FFFFFF" points="1 91.9438 1 101.7208 3.185 102.9448 59.999 102.9448 59.999 91.9438"></polygon>
            <polygon id="Fill-4" fill="#D73F45" points="59.9998 102.9441 3.1858 102.9441 22.1238 113.9441 59.9998 113.9441"></polygon>
            <polygon id="Fill-5" fill="#FFFFFF" points="59.9998 113.9441 22.1238 113.9441 41.0618 124.9441 59.9998 124.9441"></polygon>
            <polygon id="Fill-6" fill="#D73F45" points="41.0617 124.9441 59.9997 135.7991 59.9997 124.9441"></polygon>
            <polygon id="Fill-7" fill="#D02228" points="59.9995 -0.0002 59.9995 10.9438 79.1975 10.9438 61.2305 0.5808"></polygon>
            <polygon id="Fill-8" fill="#E9E9E9" points="98.3103 21.9441 79.1973 10.9441 59.9993 10.9441 59.9993 21.9441"></polygon>
            <polygon id="Fill-9" fill="#D02228" points="59.9998 21.9441 59.9998 31.9441 115.6858 31.9441 98.3108 21.9441"></polygon>
            <polygon id="Fill-10" fill="#E9E9E9" points="59.9995 31.9444 59.9995 41.9444 118.9995 41.9444 118.9995 33.8074 115.6855 31.9444"></polygon>
            <polygon id="Fill-11" fill="#D02228" points="59.999 51.944 118.999 51.944 118.999 41.944 59.999 41.944"></polygon>
            <polygon id="Fill-12" fill="#E9E9E9" points="59.999 61.944 118.999 61.944 118.999 51.944 59.999 51.944"></polygon>
            <polygon id="Fill-13" fill="#D02228" points="59.999 71.944 118.999 71.944 118.999 61.944 59.999 61.944"></polygon>
            <polygon id="Fill-14" fill="#155EAC" points="59.9995 -0.0002 58.7695 0.5588 40.8025 10.8988 21.6905 21.8998 4.3145 31.8998 1.0005 33.8078 1.0005 41.8988 1.0005 51.8988 1.0005 61.8988 1.0005 71.9438 59.9995 71.9438 59.9995 61.8988 59.9995 51.8988 59.9995 41.8988 59.9995 31.8998 59.9995 21.8998 59.9995 10.8988"></polygon>
            <polygon id="Fill-15" fill="#E9E9E9" points="59.999 81.944 118.999 81.944 118.999 71.944 59.999 71.944"></polygon>
            <polygon id="Fill-16" fill="#D02228" points="59.999 91.944 118.999 91.944 118.999 81.944 59.999 81.944"></polygon>
            <polygon id="Fill-17" fill="#E9E9E9" points="59.9995 91.9438 59.9995 102.9448 116.8145 102.9448 118.9995 101.7208 118.9995 91.9438"></polygon>
            <polygon id="Fill-18" fill="#D02228" points="59.9998 113.9441 97.8768 113.9441 116.8148 102.9441 59.9998 102.9441"></polygon>
            <polygon id="Fill-19" fill="#E9E9E9" points="59.9998 124.9441 78.9378 124.9441 97.8768 113.9441 59.9998 113.9441"></polygon>
            <polygon id="Fill-20" fill="#D02228" points="59.9995 124.9441 59.9995 135.7991 78.9385 124.9441"></polygon>
            <polygon id="Fill-21" fill="#FFFFFF" points="58.3758 64.9441 55.5708 64.9441 54.7048 62.0501 53.8398 64.9441 51.0368 64.9441 53.3048 66.9291 52.4388 69.9211 54.7068 68.1791 56.9748 69.9941 56.1088 66.9171"></polygon>
            <polygon id="Fill-22" fill="#FFFFFF" points="39.8025 64.9441 38.9365 62.0501 38.0725 64.9441 35.2685 64.9441 37.5365 66.9291 36.6705 69.9211 38.9375 68.1791 41.2065 69.9941 40.3405 66.9171 42.6075 64.9441"></polygon>
            <polygon id="Fill-23" fill="#FFFFFF" points="24.0213 64.9441 23.1553 62.0501 22.2913 64.9441 19.4873 64.9441 21.7553 66.9291 20.8893 69.9211 23.1563 68.1791 25.4253 69.9941 24.5593 66.9171 26.8273 64.9441"></polygon>
            <polygon id="Fill-24" fill="#FFFFFF" points="8.2244 64.9441 7.3584 62.0501 6.4944 64.9441 3.6904 64.9441 5.9584 66.9291 5.0924 69.9211 7.3604 68.1791 9.6284 69.9941 8.7624 66.9171 11.0294 64.9441"></polygon>
            <polygon id="Fill-25" fill="#FFFFFF" points="16.0994 57.9441 15.2334 55.0501 14.3694 57.9441 11.5654 57.9441 13.8334 59.7631 12.9674 62.6711 15.2354 60.8871 17.5034 62.6811 16.6374 59.7611 18.9044 57.9441"></polygon>
            <polygon id="Fill-26" fill="#FFFFFF" points="31.8704 57.9441 31.0044 55.0501 30.1394 57.9441 27.3354 57.9441 29.6044 59.7631 28.7384 62.6711 31.0054 60.8871 33.2744 62.6811 32.4084 59.7611 34.6754 57.9441"></polygon>
            <polygon id="Fill-27" fill="#FFFFFF" points="47.6599 57.9441 46.7939 55.0501 45.9289 57.9441 43.1249 57.9441 45.3939 59.7631 44.5279 62.6711 46.7949 60.8871 49.0639 62.6811 48.1979 59.7611 50.4649 57.9441"></polygon>
            <polygon id="Fill-28" fill="#FFFFFF" points="15.2332 40.05 14.3692 42.944 11.5652 42.944 13.8332 44.95 12.9672 47.952 15.2352 46.216 17.5032 48.033 16.6372 44.937 18.9042 42.944 16.0992 42.944"></polygon>
            <polygon id="Fill-29" fill="#FFFFFF" points="31.0042 40.05 30.1392 42.944 27.3362 42.944 29.6042 44.95 28.7382 47.952 31.0052 46.216 33.2742 48.033 32.4082 44.937 34.6752 42.944 31.8702 42.944"></polygon>
            <polygon id="Fill-30" fill="#FFFFFF" points="46.7937 40.05 45.9287 42.944 43.1257 42.944 45.3937 44.95 44.5277 47.952 46.7947 46.216 49.0637 48.033 48.1977 44.937 50.4647 42.944 47.6597 42.944"></polygon>
            <polygon id="Fill-31" fill="#FFFFFF" points="15.2332 26.05 14.3692 28.944 11.5652 28.944 13.8332 30.64 12.9672 33.487 15.2352 31.673 17.5032 33.451 16.6372 30.646 18.9042 28.944 16.0992 28.944"></polygon>
            <polygon id="Fill-32" fill="#FFFFFF" points="31.0042 26.05 30.1392 28.944 27.3362 28.944 29.6042 30.64 28.7382 33.487 31.0052 31.673 33.2742 33.451 32.4082 30.646 34.6752 28.944 31.8702 28.944"></polygon>
            <polygon id="Fill-33" fill="#FFFFFF" points="46.7937 26.05 45.9287 28.944 43.1257 28.944 45.3937 30.64 44.5277 33.487 46.7947 31.673 49.0637 33.451 48.1977 30.646 50.4647 28.944 47.6597 28.944"></polygon>
            <polygon id="Fill-34" fill="#FFFFFF" points="46.7937 11.05 45.9287 13.944 43.1257 13.944 45.3937 15.796 44.5277 18.721 46.7947 16.946 49.0637 18.744 48.1977 15.792 50.4647 13.944 47.6597 13.944"></polygon>
            <polygon id="Fill-35" fill="#FFFFFF" points="52.4388 55.3684 54.7068 53.5774 56.9748 55.3684 56.1088 52.6044 58.3758 50.9444 55.5708 50.9444 54.7048 48.0504 53.8398 50.9444 51.0368 50.9444 53.3048 52.6044"></polygon>
            <polygon id="Fill-36" fill="#FFFFFF" points="36.6419 55.3684 38.9089 53.5774 41.1779 55.3684 40.3119 52.6044 42.5789 50.9444 39.7739 50.9444 38.9079 48.0504 38.0429 50.9444 35.2399 50.9444 37.5079 52.6044"></polygon>
            <polygon id="Fill-37" fill="#FFFFFF" points="23.1575 48.05 22.2935 50.944 19.4895 50.944 21.7575 52.604 20.8915 55.433 23.1585 53.611 25.4275 55.384 24.5615 52.612 26.8285 50.944 24.0235 50.944"></polygon>
            <polygon id="Fill-38" fill="#FFFFFF" points="7.3611 48.05 6.4971 50.944 3.6931 50.944 5.9611 52.604 5.0951 55.433 7.3621 53.611 9.6311 55.384 8.7651 52.612 11.0321 50.944 8.2271 50.944"></polygon>
            <polygon id="Fill-39" fill="#FFFFFF" points="52.4388 40.6809 54.7068 38.8899 56.9748 40.6809 56.1088 37.7609 58.3758 35.9439 55.5708 35.9439 54.7048 33.0499 53.8398 35.9439 51.0368 35.9439 53.3048 37.7609"></polygon>
            <polygon id="Fill-40" fill="#FFFFFF" points="36.6419 40.6809 38.9089 38.8899 41.1779 40.6809 40.3119 37.7609 42.5789 35.9439 39.7739 35.9439 38.9079 33.0499 38.0429 35.9439 35.2399 35.9439 37.5079 37.7609"></polygon>
            <polygon id="Fill-41" fill="#FFFFFF" points="23.1575 33.05 22.2935 35.944 19.4895 35.944 21.7575 37.76 20.8915 40.668 23.1585 38.884 25.4275 40.677 24.5615 37.759 26.8285 35.944 24.0235 35.944"></polygon>
            <polygon id="Fill-42" fill="#FFFFFF" points="7.3611 33.05 6.4971 35.944 3.6931 35.944 5.9611 37.76 5.0951 40.668 7.3621 38.884 9.6311 40.677 8.7651 37.759 11.0321 35.944 8.2271 35.944"></polygon>
            <polygon id="Fill-43" fill="#FFFFFF" points="52.4388 26.0837 54.7068 24.2927 56.9748 26.0837 56.1088 23.4617 58.3758 21.9437 55.5708 21.9437 54.7048 19.0497 53.8398 21.9437 51.0368 21.9437 53.3048 23.4617"></polygon>
            <polygon id="Fill-44" fill="#FFFFFF" points="36.6419 26.0837 38.9089 24.2927 41.1779 26.0837 40.3119 23.4617 42.5789 21.9437 39.7739 21.9437 38.9079 19.0497 38.0429 21.9437 35.2399 21.9437 37.5079 23.4617"></polygon>
            <polygon id="Fill-45" fill="#FFFFFF" points="23.8084 20.9524 22.2644 21.7044 20.7834 22.4894 21.7574 23.2234 20.8914 26.1004 23.1594 24.3024 25.4274 26.0884 24.5614 23.4644 26.8294 21.9444 24.0234 21.9444"></polygon>
            <polygon id="Fill-46" fill="#FFFFFF" points="1 57.9445 1 59.6775 3.123 57.9445"></polygon>
            <polygon id="Fill-47" fill="#FFFFFF" points="1 61.8991 1 62.1151 1.723 62.6851 1 60.2721"></polygon>
            <polygon id="Fill-48" fill="#FFFFFF" points="1 42.9442 1 45.0532 3.123 42.9442"></polygon>
            <polygon id="Fill-49" fill="#FFFFFF" points="1 47.4901 1.723 48.0601 1 45.6471"></polygon>
            <polygon id="Fill-50" fill="#FFFFFF" points="33.2742 18.7522 32.4082 15.8582 33.0042 15.3872 29.0672 17.6532 28.7382 18.7522 31.0052 16.9612"></polygon>
            <polygon id="Fill-51" fill="#FFFFFF" points="52.4388 11.3747 54.7068 9.5837 56.9748 11.3747 56.1088 8.6077 58.3758 6.9437 55.5708 6.9437 54.7048 4.0497 53.8398 6.9437 51.0368 6.9437 53.3048 8.6077"></polygon>
        </g>
    </g>
</svg>